<?xml version="1.0" encoding="UTF-8"?>
<svg id="Vrstva_2" data-name="Vrstva 2" xmlns="http://www.w3.org/2000/svg" viewBox="0 0 704.1 376.17">
  <defs>
    <style>
      .cls-1 {
        fill: #f08120;
      }

      .cls-2 {
        fill: #fff;
      }

      .cls-3 {
        fill: #feeb1a;
      }
    </style>
  </defs>
  <g id="Vrstva_3" data-name="Vrstva 3">
    <path class="cls-2" d="M124.59,41.06c0,16.38-8.72,25.94-23.19,33.39,15.96,6.81,25.95,16.59,25.95,37.64,0,25.1-24.25,39.57-52.96,39.57H.16V2.76h74.01c27.44,0,50.42,13.19,50.42,38.29ZM41.42,37.22v24.04h27.65c7.87,0,12.34-2.98,12.34-11.7,0-9.57-4.68-12.34-12.34-12.34h-27.65ZM71.83,91.04h-30.41v26.16h30.41c8.51,0,12.34-3.83,12.34-12.76s-4.04-13.4-12.34-13.4Z"/>
    <path class="cls-2" d="M247.83,114v37.65h-100.18V2.76h42.54v111.24h57.65Z"/>
    <path class="cls-2" d="M413.8,151.66h-46.37l-8.08-24.89h-48.71l-8.08,24.89h-45.73L312.55,1.7h45.31l55.94,149.96ZM335.1,44.67l-15.74,50.2h31.49l-15.74-50.2Z"/>
    <path class="cls-2" d="M460.67,77.21c0,24.46,17.02,38.93,38.93,38.93,17.66,0,28.72-2.98,43.39-9.14v39.35c-13.4,5.74-30.63,8.08-43.39,8.08-47,0-84.65-33.39-84.65-77.21S449.83,0,498.11,0c14.89,0,31.27,2.76,44.88,9.14v39.35c-13.19-5.96-27.87-9.99-44.88-10.21-23.18,0-37.44,14.68-37.44,38.93Z"/>
    <path class="cls-2" d="M648.79,151.66l-40.84-45.09v45.09h-42.54V2.76h42.54v41.06l39.77-41.06h52.54l-70.83,70.84,74.66,78.06h-55.31Z"/>
    <path class="cls-1" d="M611.83,187.21v54.45s48.93,0,48.93,0v-54.45h42.54v148.89h-42.54v-57.43s-48.93,0-48.93,0v57.43h-42.54v-148.89h42.54Z"/>
    <path class="cls-1" d="M204.64,298.45v-111.24h42.54v148.89h-100.18v-37.65h57.65Z"/>
    <path class="cls-1" d="M21.23,222.98L.57,187.21h124.81v148.89H0s18.39-36.16,18.39-36.16h64.45s0-22.12,0-22.12H20.94v-35.31h61.9s0-19.15,0-19.15l-61.62-.39Z"/>
    <path class="cls-3" d="M457.94,342.66c-.23.23-.45.46-.68.69.23-.23.45-.46.68-.69Z"/>
    <path class="cls-3" d="M454.58,345.91c-.23.21-.47.42-.71.63.24-.21.47-.42.71-.63Z"/>
    <path class="cls-3" d="M436.9,358.44c-.31.17-.62.33-.93.49.31-.16.62-.33.93-.49Z"/>
    <path class="cls-3" d="M440.4,356.47c-.13.08-.27.16-.41.23.13-.08.27-.15.41-.23Z"/>
    <path class="cls-3" d="M447.81,351.51c-.2.15-.41.29-.61.44.2-.15.41-.29.61-.44Z"/>
    <path class="cls-3" d="M444.55,353.82c-.28.19-.57.38-.85.57.29-.19.57-.38.85-.57Z"/>
    <path class="cls-3" d="M451.57,348.54c-.26.21-.51.43-.77.64.26-.21.51-.43.77-.64Z"/>
    <polygon class="cls-3" points="432.37 360.73 432.37 360.73 432.37 360.73 432.37 360.73"/>
    <path class="cls-3" d="M463.63,336.26c-.19.24-.38.48-.57.72.2-.24.38-.48.57-.72Z"/>
    <path class="cls-3" d="M364.12,344.32c.31-.12.63-.24.94-.36-.31.12-.63.24-.94.36Z"/>
    <path class="cls-3" d="M368.39,342.67c.31-.12.62-.24.93-.36-.31.12-.62.24-.93.36Z"/>
    <path class="cls-3" d="M460.69,339.72c-.24.27-.49.54-.74.81.25-.27.5-.54.74-.81Z"/>
    <path class="cls-3" d="M359.95,345.91c.27-.1.54-.21.82-.31-.27.1-.54.21-.82.31Z"/>
    <path class="cls-3" d="M355.84,347.44c.15-.06.3-.11.45-.17-.15.06-.3.11-.45.17Z"/>
    <path class="cls-3" d="M372.8,340.93c.25-.1.51-.2.76-.3-.26.1-.51.2-.76.3Z"/>
    <path class="cls-3" d="M370.12,365.26c-.38-.11-.77-.22-1.15-.34.38.12.76.23,1.15.34Z"/>
    <path class="cls-3" d="M373.93,366.31c-.46-.12-.93-.24-1.39-.36.46.12.92.25,1.39.36Z"/>
    <path class="cls-3" d="M365.82,363.86c-.47-.17-.94-.35-1.42-.52.47.18.94.35,1.42.52Z"/>
    <path class="cls-3" d="M378.06,367.24c-.41-.08-.82-.17-1.23-.26.41.09.82.17,1.23.26Z"/>
    <path class="cls-3" d="M382.23,367.98c-.44-.07-.88-.14-1.32-.21.44.07.88.14,1.32.21Z"/>
    <path class="cls-3" d="M377.76,338.94s.03-.01.04-.02c-.01,0-.03.01-.04.02Z"/>
    <path class="cls-3" d="M357.97,360.63c-.47-.22-.93-.45-1.4-.68.46.23.93.46,1.4.68Z"/>
    <path class="cls-3" d="M347.31,354.69c-.45-.3-.91-.59-1.36-.9.45.3.9.6,1.36.9Z"/>
    <path class="cls-3" d="M428.68,362.34c-.32.13-.65.27-.98.39.33-.13.65-.26.98-.39Z"/>
    <path class="cls-3" d="M362.28,362.5c-.44-.18-.88-.35-1.32-.54.44.19.88.36,1.32.54Z"/>
    <path class="cls-3" d="M354.64,358.97c-.46-.24-.92-.48-1.38-.73.46.25.92.49,1.38.73Z"/>
    <path class="cls-3" d="M407.67,368.08c-.31.04-.62.09-.94.14.31-.04.62-.09.94-.14Z"/>
    <path class="cls-3" d="M416.11,366.45c-.24.06-.48.12-.72.18.24-.06.48-.12.72-.18Z"/>
    <path class="cls-3" d="M411.67,367.42c-.33.06-.65.12-.98.18.33-.06.65-.11.98-.18Z"/>
    <path class="cls-3" d="M424.39,363.98c-.15.05-.29.11-.44.16.15-.05.29-.11.44-.16Z"/>
    <path class="cls-3" d="M420.23,365.33c-.33.1-.66.19-.98.28.33-.09.66-.19.98-.28Z"/>
    <path class="cls-3" d="M350.44,356.65c-.45-.26-.89-.54-1.33-.81.44.27.88.55,1.33.81Z"/>
    <path class="cls-3" d="M385.91,368.46c-.28-.03-.56-.07-.84-.1.28.03.56.07.84.1Z"/>
    <path class="cls-3" d="M394.45,368.97c-.31,0-.61-.02-.92-.02.31,0,.61.02.92.02Z"/>
    <path class="cls-3" d="M390.66,368.84c-.41-.02-.82-.04-1.23-.07.41.03.82.05,1.23.07Z"/>
    <path class="cls-3" d="M399.16,368.88c-.37.02-.73.03-1.1.05.37-.01.73-.03,1.1-.05Z"/>
    <path class="cls-3" d="M403.06,368.63c-.32.03-.64.05-.96.07.32-.02.64-.04.96-.07Z"/>
    <path class="cls-3" d="M428.37,316.29c.53-.26,1.05-.52,1.58-.77-.53.26-1.05.52-1.58.77Z"/>
    <path class="cls-3" d="M462.79,298.39c.29-.16.59-.32.88-.49-.29.16-.59.32-.88.49Z"/>
    <path class="cls-3" d="M479.22,306.82c-.14.46-.29.91-.44,1.36.15-.45.3-.9.44-1.36Z"/>
    <path class="cls-3" d="M466.12,333.01c-.24.33-.49.66-.73.99.25-.33.49-.66.73-.99Z"/>
    <path class="cls-3" d="M476.33,314.86c-.15.37-.32.73-.48,1.1.16-.37.32-.73.48-1.1Z"/>
    <path class="cls-3" d="M458.78,300.59c.29-.16.58-.32.88-.48-.29.16-.58.32-.88.48Z"/>
    <path class="cls-3" d="M480.49,302.16c-.12.5-.25,1.01-.38,1.51.13-.5.26-1.01.38-1.51Z"/>
    <path class="cls-3" d="M466.81,296.15c.25-.14.51-.28.76-.43-.25.14-.51.28-.76.43Z"/>
    <path class="cls-3" d="M470.96,293.79c.14-.08.28-.16.41-.24-.14.08-.28.16-.41.24Z"/>
    <path class="cls-3" d="M474.83,318.25c-.2.43-.41.87-.62,1.3.21-.43.41-.87.62-1.3Z"/>
    <path class="cls-3" d="M436.93,312.04c.46-.23.92-.46,1.38-.7-.46.23-.92.46-1.38.7Z"/>
    <path class="cls-3" d="M450.74,304.91s.02-.01.03-.02c-.01,0-.02.01-.03.02Z"/>
    <path class="cls-3" d="M441.36,309.79c.35-.18.7-.36,1.05-.54-.35.18-.7.36-1.05.54Z"/>
    <path class="cls-3" d="M478.05,310.34c-.17.48-.34.95-.51,1.42.18-.47.34-.95.51-1.42Z"/>
    <path class="cls-3" d="M454.77,302.76c.24-.13.48-.26.72-.39-.24.13-.48.26-.72.39Z"/>
    <path class="cls-3" d="M432.63,314.19c.51-.25,1.01-.5,1.52-.76-.51.25-1.01.5-1.52.76Z"/>
    <path class="cls-3" d="M424.12,318.35c.51-.24,1.01-.49,1.52-.73-.51.24-1.01.49-1.52.73Z"/>
    <path class="cls-3" d="M394.99,331.69c.52-.23,1.04-.45,1.56-.68-.52.23-1.04.45-1.56.68Z"/>
    <path class="cls-3" d="M386.48,335.33c.36-.15.73-.31,1.09-.46-.36.15-.73.31-1.09.46Z"/>
    <path class="cls-3" d="M399.29,329.81c.54-.24,1.07-.47,1.61-.71-.54.24-1.07.48-1.61.71Z"/>
    <path class="cls-3" d="M482.13,293.81c-.08.51-.15,1.03-.23,1.54.08-.51.15-1.02.23-1.54Z"/>
    <path class="cls-3" d="M482.61,290.07c-.06.54-.12,1.08-.19,1.62.07-.54.13-1.08.19-1.62Z"/>
    <path class="cls-3" d="M468.62,329.4c-.15.24-.3.48-.46.71.16-.23.3-.47.46-.71Z"/>
    <path class="cls-3" d="M390.72,333.53c.47-.2.95-.41,1.43-.61-.48.2-.95.41-1.43.61Z"/>
    <path class="cls-3" d="M470.84,325.83c-.23.39-.46.77-.69,1.15.23-.38.46-.77.69-1.15Z"/>
    <path class="cls-3" d="M419.85,320.38c.43-.2.86-.41,1.29-.61-.43.2-.86.41-1.29.61Z"/>
    <path class="cls-3" d="M408.21,325.8c.43-.2.87-.39,1.3-.59-.43.2-.87.39-1.3.59Z"/>
    <path class="cls-3" d="M472.87,322.2c-.2.37-.4.75-.6,1.12.2-.37.4-.74.6-1.12Z"/>
    <path class="cls-3" d="M403.67,327.86c.51-.23,1.03-.46,1.54-.69-.51.23-1.03.46-1.54.69Z"/>
    <path class="cls-3" d="M481.32,298.53c-.1.51-.22,1.02-.33,1.53.11-.51.23-1.02.33-1.53Z"/>
    <path class="cls-3" d="M431.66,286.48c-1.6.83-3.22,1.66-4.86,2.49,1.64-.83,3.26-1.66,4.86-2.49Z"/>
    <path class="cls-3" d="M349.58,322.74c-1.55.56-3.08,1.1-4.59,1.63,1.51-.53,3.04-1.07,4.59-1.63Z"/>
    <path class="cls-3" d="M375.54,312.63c-1.73.72-3.44,1.42-5.14,2.11,1.7-.69,3.41-1.39,5.14-2.11Z"/>
    <path class="cls-3" d="M344.8,324.44c-1.53.53-3.04,1.05-4.52,1.55,1.48-.5,2.99-1.02,4.52-1.55Z"/>
    <path class="cls-3" d="M436.98,283.7c-1.62.86-3.26,1.72-4.92,2.58,1.66-.86,3.3-1.72,4.92-2.58Z"/>
    <path class="cls-3" d="M447.03,278.26c-3.19,1.77-6.49,3.56-9.88,5.35,3.39-1.8,6.69-3.58,9.88-5.35Z"/>
    <path class="cls-3" d="M456.27,273.02c-1.43.83-2.89,1.67-4.38,2.51,1.49-.84,2.95-1.68,4.38-2.51Z"/>
    <path class="cls-3" d="M460.68,270.43c-1.37.82-2.77,1.64-4.2,2.47,1.43-.83,2.83-1.65,4.2-2.47Z"/>
    <path class="cls-3" d="M464.95,267.85c-1.34.82-2.7,1.64-4.1,2.47,1.39-.83,2.76-1.65,4.1-2.47Z"/>
    <path class="cls-3" d="M323.18,331.25c5.19-1.42,10.89-3.17,17-5.23-6.11,2.05-11.81,3.8-17,5.23h0Z"/>
    <path class="cls-3" d="M451.72,275.63c-1.52.86-3.07,1.73-4.65,2.6,1.57-.87,3.12-1.74,4.65-2.6Z"/>
    <path class="cls-3" d="M354.56,320.92c-1.6.6-3.18,1.18-4.74,1.74,1.56-.56,3.14-1.14,4.74-1.74Z"/>
    <path class="cls-3" d="M359.72,318.96c-1.68.65-3.34,1.27-4.98,1.88,1.64-.61,3.3-1.24,4.98-1.88Z"/>
    <path class="cls-3" d="M370.22,314.82c-3.56,1.44-7.04,2.82-10.45,4.13,3.41-1.31,6.9-2.69,10.45-4.13Z"/>
    <path class="cls-3" d="M420.87,291.96c-1.66.83-3.34,1.65-5.04,2.48,1.69-.83,3.37-1.65,5.04-2.48Z"/>
    <path class="cls-3" d="M415.35,294.67c-1.75.85-3.52,1.7-5.3,2.55,1.78-.85,3.55-1.7,5.3-2.55Z"/>
    <path class="cls-3" d="M380.98,310.35c-1.69.72-3.36,1.42-5.03,2.12,1.66-.69,3.34-1.4,5.03-2.12Z"/>
    <path class="cls-3" d="M476.46,247.81c.29.7.55,1.4.82,2.1-.27-.7-.53-1.4-.82-2.1Z"/>
    <path class="cls-3" d="M479.97,258.14c-4.43,3.06-9.43,6.3-14.93,9.66,5.5-3.36,10.51-6.6,14.93-9.66-.3-1.1-.62-2.19-.97-3.28.34,1.09.67,2.19.97,3.28Z"/>
    <path class="cls-3" d="M477.84,251.4c.34.94.66,1.89.96,2.83-.31-.95-.62-1.89-.96-2.83Z"/>
    <path class="cls-3" d="M474.84,244.09s0-.01,0-.02c-.13-.28-.28-.55-.41-.82.13.28.28.54.41.82,0,0,0,.01,0,.02Z"/>
    <path class="cls-3" d="M472.89,240.16c-.67-1.28-1.38-2.53-2.1-3.76h0c.73,1.23,1.43,2.48,2.1,3.76Z"/>
    <path class="cls-3" d="M398.06,302.81c-1.8.82-3.58,1.62-5.36,2.42,1.78-.79,3.56-1.6,5.36-2.42Z"/>
    <path class="cls-3" d="M318.61,323.89c-.37-.65-.73-1.31-1.08-1.97.35.67.72,1.32,1.08,1.97Z"/>
    <path class="cls-3" d="M392.22,305.45c-1.72.77-3.43,1.52-5.13,2.27,1.7-.74,3.41-1.5,5.13-2.27Z"/>
    <path class="cls-3" d="M313.96,314.27c-.54-1.33-1.05-2.66-1.52-4,.47,1.34.98,2.68,1.52,4Z"/>
    <path class="cls-3" d="M320.94,327.84c-.53-.84-1.05-1.69-1.55-2.56.5.86,1.02,1.71,1.55,2.56Z"/>
    <path class="cls-3" d="M386.54,307.95c-1.69.74-3.37,1.46-5.03,2.17,1.67-.71,3.35-1.43,5.03-2.17Z"/>
    <path class="cls-3" d="M398.36,302.68c1.9-.87,3.8-1.74,5.71-2.64s3.81-1.79,5.69-2.68c-1.88.9-3.78,1.79-5.69,2.68-1.91.89-3.82,1.77-5.71,2.64Z"/>
    <path class="cls-3" d="M323.18,331.25c-.65-.93-1.27-1.88-1.89-2.85.61.96,1.24,1.91,1.89,2.85Z"/>
    <path class="cls-3" d="M426.3,289.23c-1.62.82-3.25,1.64-4.9,2.46,1.65-.82,3.28-1.64,4.9-2.46Z"/>
    <path class="cls-3" d="M329.49,223.02c.43-.49.86-.97,1.31-1.45-.44.48-.88.96-1.31,1.45Z"/>
    <path class="cls-3" d="M338.48,214.22c.48-.41.97-.82,1.46-1.22-.5.4-.98.81-1.46,1.22Z"/>
    <path class="cls-3" d="M307.85,273.17c.07-.79.15-1.58.24-2.36-.09.79-.17,1.57-.24,2.36Z"/>
    <path class="cls-3" d="M332.33,219.96c.45-.46.9-.92,1.36-1.38-.46.45-.91.91-1.36,1.38Z"/>
    <path class="cls-3" d="M449.99,212.52c.63.5,1.25,1.01,1.87,1.54-.62-.52-1.24-1.03-1.87-1.54Z"/>
    <path class="cls-3" d="M461.83,223.94c.56.66,1.13,1.32,1.67,1.99-.55-.68-1.11-1.33-1.67-1.99Z"/>
    <path class="cls-3" d="M335.33,217.03c.47-.44.94-.87,1.42-1.3-.48.43-.95.87-1.42,1.3Z"/>
    <path class="cls-3" d="M446.73,210.05c.65.47,1.29.95,1.92,1.43-.64-.49-1.27-.97-1.92-1.43Z"/>
    <path class="cls-3" d="M456.17,217.94c.6.58,1.19,1.16,1.77,1.75-.58-.59-1.17-1.17-1.77-1.75Z"/>
    <path class="cls-3" d="M349,206.58c.48-.3.96-.61,1.45-.9-.49.29-.97.6-1.45.9Z"/>
    <path class="cls-3" d="M341.81,211.54c.5-.38.99-.76,1.49-1.13-.51.37-1,.75-1.49,1.13Z"/>
    <path class="cls-3" d="M312.44,310.24c-.35-1-.67-2-.98-3,.31,1,.63,2.01.98,3Z"/>
    <path class="cls-3" d="M345.3,209c.5-.34.99-.7,1.5-1.03-.51.33-1,.69-1.5,1.03Z"/>
    <path class="cls-3" d="M308.39,293.8c-.12-.84-.22-1.67-.32-2.51.1.84.2,1.67.32,2.51Z"/>
    <path class="cls-3" d="M315.92,243.61c.29-.61.61-1.22.91-1.83-.3.61-.62,1.21-.91,1.83Z"/>
    <path class="cls-3" d="M352.99,204.26c.42-.23.83-.47,1.25-.7-.42.22-.83.47-1.25.7Z"/>
    <path class="cls-3" d="M314.26,247.35c.27-.65.57-1.29.86-1.93-.29.64-.59,1.28-.86,1.93Z"/>
    <path class="cls-3" d="M317.76,239.95c.31-.59.65-1.17.98-1.76-.33.58-.66,1.17-.98,1.76Z"/>
    <path class="cls-3" d="M307.89,289.66c-.08-.82-.14-1.65-.2-2.47.06.82.12,1.65.2,2.47Z"/>
    <g>
      <path class="cls-1" d="M470.96,293.79c-1.13.64-2.26,1.28-3.4,1.93-.25.14-.51.28-.76.43-1.04.59-2.09,1.17-3.14,1.76-.29.16-.59.32-.88.49-1.04.57-2.08,1.15-3.13,1.72-.29.16-.58.32-.88.48-1.09.6-2.19,1.19-3.29,1.78-.24.13-.48.26-.72.39-1.32.71-2.66,1.42-4,2.13-.01,0-.02.01-.03.02-2.75,1.45-5.52,2.9-8.33,4.34-.35.18-.7.36-1.05.54-1.01.52-2.03,1.04-3.05,1.55-.46.23-.92.46-1.38.7-.92.47-1.85.93-2.78,1.39-.51.25-1.01.5-1.52.76-.89.44-1.78.88-2.68,1.32-.53.26-1.05.52-1.58.77-.91.44-1.82.89-2.73,1.33-.51.24-1.01.49-1.52.73-.99.48-1.98.95-2.98,1.42-.43.2-.86.41-1.29.61-1.42.67-2.85,1.35-4.29,2.01-.29.14-.59.28-.88.41-.29.14-.59.27-.88.41-1.43.67-2.87,1.33-4.3,1.99-.43.2-.87.39-1.3.59-1,.46-2,.91-3,1.36-.51.23-1.03.46-1.54.69-.92.42-1.85.83-2.77,1.24-.54.24-1.07.48-1.61.71-.91.4-1.82.8-2.73,1.2-.52.23-1.04.45-1.56.68-.95.41-1.9.82-2.85,1.23-.48.2-.95.41-1.43.61-1.05.45-2.1.89-3.15,1.34-.36.15-.73.31-1.09.46-2.9,1.22-5.8,2.42-8.67,3.59-.01,0-.03.01-.04.02-1.4.57-2.8,1.13-4.19,1.69-.26.1-.51.2-.76.3-1.16.46-2.32.92-3.48,1.38-.31.12-.62.24-.93.36-1.11.43-2.22.86-3.32,1.29-.31.12-.63.24-.94.36-1.12.43-2.24.86-3.36,1.28-.27.1-.54.21-.82.31-1.22.46-2.44.91-3.66,1.36-.15.06-.3.11-.45.17-4.24,1.57-8.43,3.06-12.55,4.49.87.64,1.76,1.26,2.66,1.87.45.3.9.6,1.36.9.6.39,1.2.77,1.81,1.14.44.27.88.55,1.33.81.93.55,1.87,1.08,2.82,1.6.46.25.92.49,1.38.73.64.33,1.29.66,1.94.98.46.23.93.46,1.4.68.99.46,1.98.91,2.98,1.33.44.19.88.36,1.32.54.71.29,1.41.56,2.13.83.47.18.94.35,1.42.52,1.05.37,2.1.73,3.16,1.06.38.12.76.23,1.15.34.8.24,1.61.47,2.42.69.46.12.92.25,1.39.36.96.24,1.93.47,2.9.68.41.09.82.17,1.23.26.95.19,1.9.36,2.85.52.44.07.88.14,1.32.21.94.14,1.89.27,2.84.38.28.03.56.07.84.1,1.17.13,2.35.22,3.53.3.41.03.82.05,1.23.07.95.05,1.91.09,2.87.11.31,0,.61.02.92.02,1.2.01,2.41,0,3.62-.04.37-.01.73-.03,1.1-.05.98-.04,1.95-.1,2.93-.18.32-.02.64-.04.96-.07,1.23-.11,2.45-.24,3.68-.41.31-.04.62-.09.94-.14,1.01-.14,2.01-.31,3.01-.49.33-.06.65-.11.98-.18,1.24-.24,2.48-.5,3.72-.79.24-.06.48-.12.72-.18,1.05-.26,2.09-.54,3.14-.83.33-.09.66-.19.98-.28,1.24-.37,2.48-.76,3.72-1.19.15-.05.29-.11.44-.16,1.11-.39,2.22-.81,3.32-1.25.33-.13.65-.26.98-.39,1.23-.51,2.46-1.04,3.69-1.61h0s0,0,0,0c1.22-.57,2.42-1.17,3.6-1.79.31-.16.62-.33.93-.49,1.05-.56,2.08-1.14,3.09-1.74.13-.08.27-.15.41-.23,1.12-.67,2.22-1.37,3.3-2.08.29-.19.57-.38.85-.57.9-.61,1.78-1.23,2.65-1.87.2-.15.41-.29.61-.44,1.02-.76,2.01-1.54,2.99-2.34.26-.21.51-.43.77-.64.78-.65,1.55-1.32,2.31-2,.24-.21.47-.42.71-.63.91-.84,1.81-1.69,2.68-2.56.23-.23.45-.46.68-.69.69-.7,1.36-1.41,2.02-2.13.25-.27.5-.54.74-.81.81-.9,1.59-1.81,2.36-2.74.2-.24.38-.48.57-.72.6-.75,1.19-1.5,1.76-2.26.25-.33.49-.66.73-.99.7-.95,1.38-1.92,2.04-2.9.16-.23.3-.47.46-.71.52-.8,1.03-1.6,1.53-2.42.23-.38.46-.77.69-1.15.49-.83.97-1.67,1.43-2.51.2-.37.4-.74.6-1.12.46-.88.91-1.76,1.34-2.65.21-.43.41-.87.62-1.3.35-.76.69-1.52,1.02-2.29.16-.37.32-.73.48-1.1.43-1.03.83-2.06,1.21-3.1.18-.47.34-.95.51-1.42.25-.72.49-1.44.73-2.16.15-.45.3-.9.44-1.36.32-1.04.62-2.09.9-3.14.13-.5.26-1.01.38-1.51.17-.7.34-1.4.49-2.11.11-.51.23-1.02.33-1.53.21-1.06.41-2.12.59-3.19.08-.51.15-1.02.23-1.54.1-.71.2-1.41.29-2.12.07-.54.13-1.08.19-1.62.11-1.08.21-2.15.28-3.23-3.74,2.24-7.58,4.48-11.5,6.73-.14.08-.28.16-.41.24Z"/>
      <path class="cls-1" d="M306.37,314.64c-11.03,8.35-16.74,14.93-15.12,18.41,1.65,3.54,10.63,3.33,24.5.09-2.43-3.73-4.64-7.68-6.57-11.83-1.03-2.21-1.96-4.43-2.81-6.67Z"/>
      <path class="cls-1" d="M472.89,240.16c-.67-1.28-1.38-2.53-2.1-3.76-.54-.91-1.11-1.8-1.68-2.69-.2-.31-.39-.63-.6-.94-.52-.8-1.07-1.57-1.62-2.34-.27-.38-.53-.77-.81-1.15-.53-.73-1.08-1.43-1.63-2.14-.31-.4-.62-.81-.94-1.21-.55-.68-1.11-1.33-1.67-1.99-.35-.4-.69-.81-1.04-1.2-.56-.63-1.14-1.25-1.72-1.87-.37-.4-.75-.79-1.13-1.18-.58-.59-1.17-1.17-1.77-1.75-.4-.38-.8-.77-1.21-1.14-.6-.56-1.21-1.1-1.82-1.64-.42-.37-.85-.74-1.28-1.1-.62-.52-1.24-1.03-1.87-1.54-.44-.35-.89-.7-1.34-1.04-.64-.49-1.27-.97-1.92-1.43-.46-.33-.93-.66-1.4-.98-.65-.45-1.31-.9-1.97-1.33-.48-.31-.97-.61-1.45-.92-.67-.42-1.34-.84-2.02-1.24-.49-.29-.99-.57-1.49-.85-.69-.39-1.37-.78-2.07-1.14-.5-.27-1.01-.51-1.52-.77-.71-.36-1.41-.72-2.12-1.05-.51-.24-1.02-.46-1.53-.69-.73-.33-1.45-.66-2.19-.97-.48-.2-.97-.38-1.46-.57-1.81-.72-3.64-1.38-5.5-1.97-.19-.06-.38-.13-.57-.19-.68-.21-1.37-.4-2.06-.59-.63-.18-1.25-.37-1.88-.54-.66-.17-1.33-.32-2-.48-.66-.16-1.32-.32-1.99-.47-.66-.14-1.32-.26-1.98-.38-.68-.13-1.36-.26-2.05-.38-.66-.11-1.32-.2-1.98-.29-.7-.1-1.4-.2-2.1-.28-.66-.08-1.31-.14-1.97-.2-.71-.07-1.42-.13-2.13-.18-.66-.05-1.31-.08-1.97-.11-.72-.03-1.44-.06-2.17-.08-.65-.01-1.31-.02-1.96-.02-.73,0-1.46,0-2.19.03-.65.02-1.3.04-1.95.07-.74.04-1.48.08-2.22.13-.65.05-1.29.1-1.94.16-.75.07-1.49.16-2.24.25-.64.08-1.28.16-1.91.25-.76.11-1.51.24-2.27.37-.63.11-1.25.21-1.88.33-.77.15-1.54.32-2.31.49-.61.14-1.22.27-1.83.41-.79.19-1.58.41-2.36.63-.59.16-1.17.31-1.75.49-.83.25-1.65.52-2.47.79-.54.18-1.09.34-1.63.53-.91.32-1.82.67-2.72,1.03-.45.17-.9.33-1.34.51-1.35.55-2.69,1.13-4.02,1.75-1.33.62-2.64,1.28-3.93,1.96-.42.22-.83.47-1.25.7-.85.47-1.71.93-2.54,1.43-.49.29-.97.6-1.45.9-.74.46-1.48.91-2.19,1.38-.51.33-1,.69-1.5,1.03-.67.46-1.35.93-2,1.41-.51.37-1,.75-1.49,1.13-.63.48-1.25.96-1.86,1.45-.5.4-.98.81-1.46,1.22-.59.5-1.17.99-1.74,1.5-.48.43-.95.87-1.42,1.3-.55.51-1.1,1.03-1.63,1.56-.46.45-.91.91-1.36,1.38-.52.53-1.03,1.07-1.53,1.61-.44.48-.88.96-1.31,1.45-.49.55-.96,1.11-1.43,1.67-.42.5-.84,1-1.24,1.51-.45.57-.89,1.14-1.33,1.71-.4.52-.79,1.04-1.18,1.57-.42.58-.83,1.17-1.23,1.76-.37.54-.75,1.08-1.11,1.64-.39.59-.76,1.19-1.14,1.79-.35.56-.71,1.12-1.05,1.7-.36.6-.69,1.21-1.03,1.82-.33.58-.66,1.17-.98,1.76-.32.61-.62,1.22-.93,1.84-.3.61-.62,1.21-.91,1.83-.28.6-.54,1.21-.81,1.81-.29.64-.59,1.28-.86,1.93-.11.26-.2.52-.3.77-.7,1.73-1.34,3.48-1.93,5.25-.17.5-.35,1-.51,1.51-.24.76-.45,1.52-.66,2.28-.15.54-.32,1.08-.46,1.63-.2.76-.38,1.53-.56,2.29-.13.56-.27,1.11-.39,1.67-.17.77-.31,1.54-.45,2.31-.11.56-.22,1.13-.31,1.69-.13.78-.24,1.56-.35,2.34-.08.57-.16,1.14-.23,1.71-.09.79-.17,1.57-.24,2.36-.05.57-.1,1.14-.15,1.71-.06.8-.1,1.59-.14,2.39-.03.57-.05,1.13-.06,1.7-.02.8-.03,1.61-.03,2.42,0,.56,0,1.12.02,1.69.02.81.04,1.63.08,2.44.03.56.06,1.11.1,1.67.06.82.12,1.65.2,2.47.05.54.12,1.09.18,1.63.1.84.2,1.67.32,2.51.08.53.17,1.05.25,1.58.14.85.28,1.71.45,2.56.1.5.21,1,.32,1.5.19.87.37,1.75.59,2.62.11.46.24.91.36,1.37.24.91.48,1.83.75,2.74.11.36.23.72.34,1.08.31,1,.63,2.01.98,3,0,0,0,0,0,0h0s0,.01,0,.02c.47,1.34.98,2.68,1.52,4,.54,1.34,1.12,2.67,1.74,4,.58,1.24,1.19,2.45,1.82,3.65.35.67.72,1.32,1.08,1.97.26.47.52.94.79,1.4.5.86,1.02,1.71,1.55,2.56.12.19.23.37.35.56.61.96,1.24,1.91,1.89,2.85,0,0,0,0,0,0h0c5.19-1.42,10.89-3.17,17-5.23.03-.01.06-.02.1-.03,1.48-.5,2.99-1.02,4.52-1.55.07-.02.13-.05.2-.07,1.51-.53,3.04-1.07,4.59-1.63.08-.03.16-.06.24-.09,1.56-.56,3.14-1.14,4.74-1.74.06-.02.12-.05.18-.07,1.64-.61,3.3-1.24,4.98-1.88.02,0,.03-.01.05-.02,3.41-1.31,6.9-2.69,10.45-4.13.06-.02.12-.05.18-.07,1.7-.69,3.41-1.39,5.14-2.11.14-.06.27-.11.41-.17,1.66-.69,3.34-1.4,5.03-2.12.17-.07.35-.15.52-.22,1.67-.71,3.35-1.43,5.03-2.17.18-.08.36-.16.54-.24,1.7-.74,3.41-1.5,5.13-2.27.16-.07.33-.14.49-.22,1.78-.79,3.56-1.6,5.36-2.42.1-.04.2-.09.29-.13,1.9-.87,3.8-1.74,5.71-2.64,1.91-.89,3.81-1.79,5.69-2.68.1-.05.19-.09.29-.14,1.78-.85,3.55-1.7,5.3-2.55.16-.08.32-.16.48-.23,1.69-.83,3.37-1.65,5.04-2.48.18-.09.35-.18.53-.26,1.65-.82,3.28-1.64,4.9-2.46.17-.09.34-.17.51-.26,1.64-.83,3.26-1.66,4.86-2.49.13-.07.26-.14.39-.2,1.66-.86,3.3-1.72,4.92-2.58.06-.03.11-.06.17-.09,3.39-1.8,6.69-3.58,9.88-5.35.02,0,.03-.02.05-.03,1.57-.87,3.12-1.74,4.65-2.6.06-.03.11-.06.17-.09,1.49-.84,2.95-1.68,4.38-2.51.07-.04.14-.08.21-.12,1.43-.83,2.83-1.65,4.2-2.47.06-.03.12-.07.18-.1,1.39-.83,2.76-1.65,4.1-2.47.03-.02.06-.03.08-.05,5.5-3.36,10.51-6.6,14.93-9.66-.3-1.1-.62-2.19-.97-3.28-.06-.21-.13-.41-.2-.62-.31-.95-.62-1.89-.96-2.83-.18-.5-.37-1-.56-1.49-.27-.7-.53-1.4-.82-2.1-.51-1.25-1.05-2.49-1.62-3.72,0,0,0-.01,0-.02-.13-.28-.28-.55-.41-.82-.5-1.04-1-2.07-1.53-3.08Z"/>
      <path class="cls-1" d="M478.05,234.58c1.17,2.09,2.28,4.24,3.3,6.44,1.94,4.15,3.54,8.38,4.84,12.64,11.39-8.55,17.33-15.29,15.68-18.83-1.62-3.48-10.33-3.34-23.82-.25Z"/>
      <path class="cls-1" d="M551.18,218.69c-10.24-6.03-22.58,2.72-49.62-3.51-5.89-1.36-11.98-4.83-18.58-9.26-16.42-11.05-35.94-28.1-63.07-33.55-3.74-.69-7.53-1.2-11.34-1.53-19.86-1.7-40.43,1.61-59.79,10.64-19.75,9.21-35.74,23.19-47.26,39.93-1.82,2.64-3.53,5.36-5.12,8.13-13.59,24.45-13.05,50.62-15.16,70.46-.84,7.9-2.1,14.79-4.85,20.17-12.61,24.71-27.25,28.54-29.21,40.26-2.68,16.01,36.05,11.37,87.91-5.75,27.36,22.35,66.15,28.49,100.31,12.56s54.4-49.59,54.86-84.91c46.45-28.72,74.9-55.4,60.91-63.65ZM291.26,333.05c-1.62-3.48,4.09-10.06,15.12-18.41.85,2.24,1.78,4.47,2.81,6.67,1.94,4.15,4.14,8.1,6.57,11.83-13.87,3.23-22.85,3.44-24.5-.09ZM482.61,290.07c-.06.54-.12,1.08-.19,1.62-.09.71-.18,1.42-.29,2.12-.08.51-.14,1.03-.23,1.54-.18,1.07-.37,2.13-.59,3.19-.1.51-.22,1.02-.33,1.53-.16.71-.32,1.41-.49,2.11-.12.5-.25,1.01-.38,1.51-.28,1.05-.58,2.1-.9,3.14-.14.46-.29.91-.44,1.36-.23.72-.48,1.44-.73,2.16-.17.48-.34.95-.51,1.42-.39,1.04-.79,2.08-1.21,3.1-.15.37-.32.73-.48,1.1-.33.77-.67,1.53-1.02,2.29-.2.43-.41.87-.62,1.3-.43.89-.88,1.77-1.34,2.65-.2.37-.4.75-.6,1.12-.46.85-.94,1.68-1.43,2.51-.23.39-.46.77-.69,1.15-.5.81-1.01,1.62-1.53,2.42-.15.24-.3.48-.46.71-.66.98-1.34,1.94-2.04,2.9-.24.33-.49.66-.73.99-.57.76-1.16,1.52-1.76,2.26-.19.24-.38.48-.57.72-.76.93-1.55,1.84-2.36,2.74-.24.27-.49.54-.74.81-.66.72-1.33,1.43-2.02,2.13-.23.23-.45.46-.68.69-.87.87-1.76,1.72-2.68,2.56-.23.21-.47.42-.71.63-.76.68-1.53,1.34-2.31,2-.26.21-.51.43-.77.64-.98.8-1.97,1.58-2.99,2.34-.2.15-.41.29-.61.44-.87.64-1.76,1.26-2.65,1.87-.28.19-.57.38-.85.57-1.08.71-2.18,1.41-3.3,2.08-.13.08-.27.16-.41.23-1.01.6-2.05,1.18-3.09,1.74-.31.17-.62.33-.93.49-1.18.62-2.38,1.22-3.6,1.79h0s0,0,0,0c-1.22.57-2.45,1.1-3.69,1.61-.32.13-.65.26-.98.39-1.1.44-2.21.86-3.32,1.25-.15.05-.29.11-.44.16-1.23.43-2.47.82-3.72,1.19-.33.1-.66.19-.98.28-1.04.3-2.09.58-3.14.83-.24.06-.48.12-.72.18-1.24.29-2.47.55-3.72.79-.33.06-.65.12-.98.18-1,.18-2.01.34-3.01.49-.31.04-.62.09-.94.14-1.23.16-2.45.3-3.68.41-.32.03-.64.05-.96.07-.98.08-1.95.14-2.93.18-.37.02-.73.03-1.1.05-1.21.04-2.42.05-3.62.04-.31,0-.61-.02-.92-.02-.96-.02-1.91-.06-2.87-.11-.41-.02-.82-.04-1.23-.07-1.18-.08-2.36-.18-3.53-.3-.28-.03-.56-.07-.84-.1-.95-.11-1.9-.24-2.84-.38-.44-.07-.88-.14-1.32-.21-.95-.16-1.9-.33-2.85-.52-.41-.08-.82-.17-1.23-.26-.97-.21-1.93-.44-2.9-.68-.46-.12-.93-.24-1.39-.36-.81-.22-1.61-.45-2.42-.69-.38-.11-.77-.22-1.15-.34-1.06-.33-2.11-.69-3.16-1.06-.47-.17-.94-.35-1.42-.52-.71-.27-1.42-.55-2.13-.83-.44-.18-.88-.35-1.32-.54-1-.43-2-.87-2.98-1.33-.47-.22-.93-.45-1.4-.68-.65-.32-1.29-.64-1.94-.98-.46-.24-.92-.48-1.38-.73-.95-.52-1.89-1.05-2.82-1.6-.45-.26-.88-.54-1.33-.81-.61-.37-1.21-.75-1.81-1.14-.46-.3-.91-.59-1.36-.9-.9-.61-1.78-1.23-2.66-1.87,4.12-1.42,8.3-2.92,12.55-4.49.15-.06.3-.11.45-.17,1.21-.45,2.43-.9,3.66-1.36.27-.1.54-.21.82-.31,1.12-.42,2.24-.85,3.36-1.28.31-.12.63-.24.94-.36,1.11-.43,2.21-.86,3.32-1.29.31-.12.62-.24.93-.36,1.16-.45,2.32-.91,3.48-1.38.25-.1.51-.2.76-.3,1.39-.56,2.79-1.12,4.19-1.69.01,0,.03-.01.04-.02,2.88-1.17,5.77-2.37,8.67-3.59.36-.15.73-.31,1.09-.46,1.05-.44,2.1-.89,3.15-1.34.47-.2.95-.41,1.43-.61.95-.41,1.9-.82,2.85-1.23.52-.23,1.04-.45,1.56-.68.91-.4,1.82-.8,2.73-1.2.54-.24,1.07-.47,1.61-.71.92-.41,1.85-.82,2.77-1.24.51-.23,1.03-.46,1.54-.69,1-.45,2-.91,3-1.36.43-.2.87-.39,1.3-.59,1.43-.66,2.87-1.32,4.3-1.99.29-.14.59-.27.88-.41.29-.14.58-.28.88-.41,1.43-.67,2.86-1.34,4.29-2.01.43-.2.86-.41,1.29-.61.99-.47,1.99-.95,2.98-1.42.51-.24,1.01-.49,1.52-.73.91-.44,1.82-.88,2.73-1.33.53-.26,1.05-.52,1.58-.77.9-.44,1.79-.88,2.68-1.32.51-.25,1.01-.5,1.52-.76.93-.46,1.85-.93,2.78-1.39.46-.23.92-.46,1.38-.7,1.02-.52,2.04-1.04,3.05-1.55.35-.18.7-.36,1.05-.54,2.8-1.44,5.58-2.89,8.33-4.34.01,0,.02-.01.03-.02,1.34-.71,2.67-1.42,4-2.13.24-.13.48-.26.72-.39,1.1-.59,2.2-1.19,3.29-1.78.29-.16.58-.32.88-.48,1.05-.57,2.09-1.15,3.13-1.72.29-.16.59-.32.88-.49,1.05-.58,2.1-1.17,3.14-1.76.25-.14.51-.28.76-.43,1.14-.64,2.27-1.28,3.4-1.93.14-.08.28-.16.41-.24,3.93-2.24,7.77-4.49,11.5-6.73-.07,1.08-.17,2.16-.28,3.23ZM474.84,244.09c.57,1.23,1.11,2.47,1.62,3.72.29.7.55,1.4.82,2.1.19.5.38.99.56,1.49.34.94.66,1.89.96,2.83.07.21.13.41.2.62.34,1.09.67,2.19.97,3.28-4.43,3.06-9.43,6.3-14.93,9.66-.03.02-.06.03-.08.05-1.34.82-2.7,1.64-4.1,2.47-.06.03-.12.07-.18.1-1.37.82-2.77,1.64-4.2,2.47-.07.04-.14.08-.21.12-1.43.83-2.89,1.67-4.38,2.51-.06.03-.11.06-.17.09-1.52.86-3.07,1.73-4.65,2.6-.02,0-.03.02-.05.03-3.19,1.77-6.49,3.56-9.88,5.35-.06.03-.11.06-.17.09-1.62.86-3.26,1.72-4.92,2.58-.13.07-.26.14-.39.2-1.6.83-3.22,1.66-4.86,2.49-.17.09-.34.17-.51.26-1.62.82-3.25,1.64-4.9,2.46-.18.09-.35.18-.53.26-1.66.83-3.34,1.65-5.04,2.48-.16.08-.32.16-.48.23-1.75.85-3.52,1.7-5.3,2.55-.1.05-.19.09-.29.14-1.88.9-3.78,1.79-5.69,2.68-1.91.89-3.82,1.77-5.71,2.64-.1.04-.2.09-.29.13-1.8.82-3.58,1.62-5.36,2.42-.16.07-.33.15-.49.22-1.72.77-3.43,1.52-5.13,2.27-.18.08-.36.16-.54.24-1.69.74-3.37,1.46-5.03,2.17-.17.07-.35.15-.52.22-1.69.72-3.36,1.42-5.03,2.12-.14.06-.27.11-.41.17-1.73.72-3.44,1.42-5.14,2.11-.06.02-.12.05-.18.07-3.56,1.44-7.04,2.82-10.45,4.13-.02,0-.03.01-.05.02-1.68.65-3.34,1.27-4.98,1.88-.06.02-.12.05-.18.07-1.6.6-3.18,1.18-4.74,1.74-.08.03-.16.06-.24.09-1.55.56-3.08,1.1-4.59,1.63-.07.02-.13.05-.2.07-1.53.53-3.04,1.05-4.52,1.55-.03.01-.06.02-.1.03-6.11,2.05-11.81,3.8-17,5.23h0s0,0,0,0c-.65-.93-1.28-1.88-1.89-2.85-.12-.18-.23-.37-.35-.56-.53-.84-1.05-1.69-1.55-2.56-.27-.46-.52-.93-.79-1.4-.36-.65-.73-1.3-1.08-1.97-.63-1.2-1.24-2.41-1.82-3.65-.62-1.32-1.2-2.66-1.74-4-.54-1.33-1.05-2.66-1.52-4,0,0,0-.01,0-.02h0s0,0,0,0c-.35-1-.67-2-.98-3-.11-.36-.24-.72-.34-1.08-.27-.91-.51-1.83-.75-2.74-.12-.46-.25-.91-.36-1.37-.21-.87-.4-1.75-.59-2.62-.11-.5-.22-1-.32-1.5-.17-.85-.31-1.7-.45-2.56-.09-.53-.18-1.05-.25-1.58-.12-.84-.22-1.67-.32-2.51-.06-.54-.13-1.09-.18-1.63-.08-.82-.14-1.65-.2-2.47-.04-.56-.07-1.11-.1-1.67-.04-.82-.07-1.63-.08-2.44-.01-.56-.02-1.13-.02-1.69,0-.81,0-1.61.03-2.42.01-.57.04-1.14.06-1.7.04-.8.08-1.59.14-2.39.04-.57.09-1.14.15-1.71.07-.79.15-1.58.24-2.36.07-.57.15-1.14.23-1.71.11-.78.22-1.56.35-2.34.09-.57.21-1.13.31-1.69.14-.77.29-1.54.45-2.31.12-.56.26-1.11.39-1.67.18-.77.36-1.53.56-2.29.14-.55.31-1.09.46-1.63.22-.76.43-1.53.66-2.28.16-.51.34-1.01.51-1.51.59-1.77,1.23-3.52,1.93-5.25.1-.26.2-.52.3-.77.27-.65.57-1.29.86-1.93.27-.6.53-1.21.81-1.81.29-.62.61-1.22.91-1.83.31-.61.61-1.23.93-1.84.31-.59.65-1.17.98-1.76.34-.61.68-1.22,1.03-1.82.34-.57.69-1.13,1.05-1.7.37-.6.75-1.2,1.14-1.79.36-.55.74-1.09,1.11-1.64.41-.59.81-1.18,1.23-1.76.39-.53.78-1.05,1.18-1.57.44-.58.88-1.15,1.33-1.71.41-.51.82-1.01,1.24-1.51.47-.56.95-1.12,1.43-1.67.43-.49.86-.97,1.31-1.45.5-.54,1.01-1.08,1.53-1.61.45-.46.9-.92,1.36-1.38.54-.53,1.08-1.05,1.63-1.56.47-.44.94-.87,1.42-1.3.57-.51,1.15-1.01,1.74-1.5.49-.41.97-.82,1.46-1.22.61-.49,1.23-.97,1.86-1.45.5-.38.99-.76,1.49-1.13.66-.48,1.33-.94,2-1.41.5-.34.99-.7,1.5-1.03.72-.48,1.46-.93,2.19-1.38.48-.3.96-.61,1.45-.9.83-.49,1.69-.96,2.54-1.43.42-.23.83-.47,1.25-.7,1.29-.68,2.6-1.33,3.93-1.96,1.33-.62,2.68-1.2,4.02-1.75.44-.18.89-.34,1.34-.51.91-.35,1.81-.71,2.72-1.03.54-.19,1.08-.36,1.63-.53.82-.27,1.64-.54,2.47-.79.58-.17,1.17-.33,1.75-.49.79-.22,1.57-.43,2.36-.63.61-.15,1.22-.28,1.83-.41.77-.17,1.54-.34,2.31-.49.63-.12,1.25-.23,1.88-.33.76-.13,1.51-.26,2.27-.37.64-.09,1.28-.17,1.91-.25.75-.09,1.49-.18,2.24-.25.65-.06,1.29-.11,1.94-.16.74-.05,1.48-.1,2.22-.13.65-.03,1.3-.06,1.95-.07.73-.02,1.46-.03,2.19-.03.65,0,1.31,0,1.96.02.72.02,1.44.05,2.17.08.66.03,1.31.06,1.97.11.71.05,1.42.12,2.13.18.66.06,1.32.12,1.97.2.7.08,1.4.18,2.1.28.66.09,1.32.18,1.98.29.69.11,1.37.25,2.05.38.66.13,1.33.24,1.98.38.67.14,1.33.31,1.99.47.67.16,1.34.31,2,.48.63.17,1.25.36,1.88.54.69.2,1.38.38,2.06.59.19.06.38.13.57.19,1.86.59,3.69,1.26,5.5,1.97.48.19.98.37,1.46.57.74.31,1.46.64,2.19.97.51.23,1.03.45,1.53.69.71.34,1.42.7,2.12,1.05.51.26,1.02.5,1.52.77.7.37,1.38.76,2.07,1.14.5.28,1,.56,1.49.85.68.4,1.35.82,2.02,1.24.48.3.97.6,1.45.92.66.43,1.32.88,1.97,1.33.47.32.94.65,1.4.98.65.47,1.29.95,1.92,1.43.45.34.9.69,1.34,1.04.63.5,1.25,1.01,1.87,1.54.43.36.85.73,1.28,1.1.61.54,1.22,1.08,1.82,1.64.41.38.81.76,1.21,1.14.6.58,1.19,1.16,1.77,1.75.38.39.75.78,1.13,1.18.58.61,1.16,1.23,1.72,1.87.35.4.7.8,1.04,1.2.56.66,1.13,1.32,1.67,1.99.32.4.63.8.94,1.21.55.71,1.1,1.41,1.63,2.14.28.38.54.77.81,1.15.55.77,1.1,1.55,1.62,2.34.2.31.4.63.6.94.57.89,1.14,1.78,1.68,2.69.73,1.23,1.43,2.48,2.1,3.76.53,1.01,1.04,2.04,1.53,3.08.13.28.28.54.41.82,0,0,0,.01,0,.02ZM486.19,253.67c-1.3-4.26-2.9-8.49-4.84-12.64-1.03-2.21-2.13-4.35-3.3-6.44,13.48-3.08,22.2-3.22,23.82.25,1.65,3.54-4.28,10.28-15.68,18.83Z"/>
    </g>
    <path class="cls-3" d="M308.99,265.07c.14-.77.29-1.55.45-2.31-.17.77-.31,1.54-.45,2.31Z"/>
    <path class="cls-3" d="M309.83,261.09c.18-.77.36-1.53.56-2.29-.2.76-.38,1.53-.56,2.29Z"/>
    <path class="cls-3" d="M324.3,229.49c.39-.53.78-1.05,1.18-1.57-.4.52-.79,1.04-1.18,1.57Z"/>
    <path class="cls-3" d="M459.07,220.87c.58.61,1.16,1.23,1.72,1.87-.56-.63-1.14-1.25-1.72-1.87Z"/>
    <path class="cls-3" d="M308.33,269.1c.11-.78.22-1.56.35-2.34-.13.78-.24,1.56-.35,2.34Z"/>
    <path class="cls-3" d="M326.82,226.2c.41-.51.82-1.01,1.24-1.51-.42.5-.84,1-1.24,1.51Z"/>
    <path class="cls-3" d="M321.96,232.88c.36-.55.74-1.09,1.11-1.64-.37.54-.75,1.08-1.11,1.64Z"/>
    <path class="cls-3" d="M309.09,297.94c-.17-.85-.31-1.7-.45-2.56.14.85.28,1.71.45,2.56Z"/>
    <path class="cls-3" d="M453.14,215.16c.61.54,1.22,1.08,1.82,1.64-.6-.56-1.21-1.1-1.82-1.64Z"/>
    <path class="cls-3" d="M319.77,236.37c.34-.57.69-1.13,1.05-1.7-.35.56-.71,1.12-1.05,1.7Z"/>
    <path class="cls-3" d="M310.85,257.16c.22-.76.43-1.53.66-2.28-.24.76-.45,1.52-.66,2.28Z"/>
    <path class="cls-3" d="M436.33,203.58c.7.37,1.38.76,2.07,1.14-.69-.39-1.37-.78-2.07-1.14Z"/>
    <path class="cls-3" d="M403.43,193.77c.66.06,1.32.12,1.97.2-.66-.08-1.31-.14-1.97-.2Z"/>
    <path class="cls-3" d="M407.5,194.25c.66.09,1.32.18,1.98.29-.66-.11-1.32-.2-1.98-.29Z"/>
    <path class="cls-3" d="M362.19,199.85c.44-.18.89-.34,1.34-.51-.45.17-.9.33-1.34.51Z"/>
    <path class="cls-3" d="M464.45,227.14c.55.71,1.1,1.41,1.63,2.14-.53-.73-1.08-1.43-1.63-2.14Z"/>
    <path class="cls-3" d="M311.11,306.17c-.27-.91-.51-1.83-.75-2.74.24.91.48,1.83.75,2.74Z"/>
    <path class="cls-3" d="M411.53,194.92c.66.13,1.33.24,1.98.38-.66-.14-1.32-.26-1.98-.38Z"/>
    <path class="cls-3" d="M310,302.06c-.21-.87-.4-1.75-.59-2.62.19.87.37,1.75.59,2.62Z"/>
    <path class="cls-3" d="M466.89,230.43c.55.77,1.1,1.55,1.62,2.34-.52-.8-1.07-1.57-1.62-2.34Z"/>
    <path class="cls-3" d="M428.97,200.11c.74.31,1.46.64,2.19.97-.73-.33-1.45-.66-2.19-.97Z"/>
    <path class="cls-3" d="M395.2,193.38c.65,0,1.31,0,1.96.02-.65-.01-1.31-.02-1.96-.02Z"/>
    <path class="cls-3" d="M432.69,201.76c.71.34,1.42.7,2.12,1.05-.71-.36-1.41-.72-2.12-1.05Z"/>
    <path class="cls-3" d="M419.38,196.78c.69.2,1.38.38,2.06.59-.68-.21-1.37-.4-2.06-.59Z"/>
    <path class="cls-3" d="M415.5,195.76c.67.16,1.34.31,2,.48-.66-.17-1.33-.32-2-.48Z"/>
    <path class="cls-3" d="M307.59,285.52c-.04-.82-.07-1.63-.08-2.44.02.81.04,1.63.08,2.44Z"/>
    <path class="cls-3" d="M399.33,193.48c.66.03,1.31.06,1.97.11-.66-.05-1.31-.08-1.97-.11Z"/>
    <path class="cls-3" d="M374.47,195.87c.61-.15,1.22-.28,1.83-.41-.61.14-1.22.27-1.83.41Z"/>
    <path class="cls-3" d="M378.6,194.97c.63-.12,1.25-.23,1.88-.33-.63.11-1.25.21-1.88.33Z"/>
    <path class="cls-3" d="M313.96,248.12c-.7,1.73-1.34,3.48-1.93,5.25.59-1.77,1.23-3.52,1.93-5.25Z"/>
    <path class="cls-3" d="M307.57,277.27c.04-.8.08-1.59.14-2.39-.06.8-.1,1.59-.14,2.39Z"/>
    <path class="cls-3" d="M443.36,207.73c.66.43,1.32.88,1.97,1.33-.65-.45-1.31-.9-1.97-1.33Z"/>
    <path class="cls-3" d="M370.35,196.99c.58-.17,1.17-.33,1.75-.49-.59.16-1.17.31-1.75.49Z"/>
    <path class="cls-3" d="M366.25,198.31c.54-.19,1.08-.36,1.63-.53-.54.18-1.09.34-1.63.53Z"/>
    <path class="cls-3" d="M439.9,205.57c.68.4,1.35.82,2.02,1.24-.67-.42-1.34-.84-2.02-1.24Z"/>
    <path class="cls-3" d="M386.91,193.77c.65-.06,1.29-.11,1.94-.16-.65.05-1.29.1-1.94.16Z"/>
    <path class="cls-3" d="M307.48,281.38c0-.81,0-1.61.03-2.42-.02.8-.03,1.61-.03,2.42Z"/>
    <path class="cls-3" d="M391.06,193.48c.65-.03,1.3-.06,1.95-.07-.65.02-1.3.04-1.95.07Z"/>
    <path class="cls-3" d="M382.75,194.27c.64-.09,1.28-.17,1.91-.25-.64.08-1.28.16-1.91.25Z"/>
    <path class="cls-3" d="M470.79,236.41h0c-.54-.91-1.11-1.8-1.68-2.69.57.89,1.14,1.78,1.68,2.69h0Z"/>
    <path class="cls-3" d="M427.51,199.54c-1.81-.72-3.64-1.38-5.5-1.97,1.86.59,3.69,1.26,5.5,1.97Z"/>
    <path d="M349.11,355.83c-.61-.37-1.21-.75-1.81-1.14.6.39,1.2.77,1.81,1.14Z"/>
    <path d="M402.09,368.7c-.98.08-1.95.14-2.93.18.98-.04,1.95-.1,2.93-.18Z"/>
    <path d="M463.05,336.98c-.76.93-1.55,1.84-2.36,2.74.81-.9,1.59-1.81,2.36-2.74Z"/>
    <path d="M459.95,340.53c-.66.72-1.33,1.43-2.02,2.13.69-.7,1.36-1.41,2.02-2.13Z"/>
    <path d="M465.39,333.99c-.57.76-1.16,1.52-1.76,2.26.6-.75,1.19-1.5,1.76-2.26Z"/>
    <path d="M468.16,330.11c-.66.98-1.34,1.94-2.04,2.9.7-.95,1.38-1.92,2.04-2.9Z"/>
    <path d="M450.8,349.18c-.98.8-1.97,1.58-2.99,2.34,1.02-.76,2.01-1.54,2.99-2.34Z"/>
    <path d="M447.2,351.95c-.87.64-1.76,1.26-2.65,1.87.9-.61,1.78-1.23,2.65-1.87Z"/>
    <path d="M457.26,343.35c-.87.87-1.76,1.72-2.68,2.56.91-.84,1.81-1.69,2.68-2.56Z"/>
    <path d="M470.15,326.98c-.5.81-1.01,1.62-1.53,2.42.52-.8,1.03-1.6,1.53-2.42Z"/>
    <path d="M453.88,346.54c-.76.68-1.53,1.34-2.31,2,.78-.65,1.55-1.32,2.31-2Z"/>
    <path d="M474.21,319.55c-.43.89-.88,1.77-1.34,2.65.46-.88.91-1.76,1.34-2.65Z"/>
    <path d="M472.27,323.32c-.46.85-.94,1.68-1.43,2.51.49-.83.97-1.67,1.43-2.51Z"/>
    <path d="M481.9,295.34c-.18,1.07-.37,2.13-.59,3.19.21-1.06.41-2.12.59-3.19Z"/>
    <path d="M480.99,300.06c-.16.71-.32,1.41-.49,2.11.17-.7.34-1.4.49-2.11Z"/>
    <path d="M482.42,291.68c-.09.71-.18,1.42-.29,2.12.1-.71.2-1.41.29-2.12Z"/>
    <path d="M480.11,303.67c-.28,1.05-.58,2.1-.9,3.14.32-1.04.62-2.09.9-3.14Z"/>
    <path d="M443.7,354.39c-1.08.71-2.18,1.41-3.3,2.08,1.12-.67,2.22-1.37,3.3-2.08Z"/>
    <path d="M475.85,315.96c-.33.77-.67,1.53-1.02,2.29.35-.76.69-1.52,1.02-2.29Z"/>
    <path d="M477.54,311.76c-.39,1.04-.79,2.08-1.21,3.1.43-1.03.83-2.06,1.21-3.1Z"/>
    <path d="M478.78,308.18c-.23.72-.48,1.44-.73,2.16.25-.72.49-1.44.73-2.16Z"/>
    <path d="M427.71,362.73c-1.1.44-2.21.86-3.32,1.25,1.11-.39,2.22-.81,3.32-1.25Z"/>
    <path d="M372.54,365.95c-.81-.22-1.61-.45-2.42-.69.8.24,1.61.47,2.42.69Z"/>
    <path d="M376.83,366.99c-.97-.21-1.93-.44-2.9-.68.96.24,1.93.47,2.9.68Z"/>
    <path d="M385.07,368.36c-.95-.11-1.9-.24-2.84-.38.94.14,1.89.27,2.84.38Z"/>
    <path d="M439.99,356.71c-1.01.6-2.05,1.18-3.09,1.74,1.05-.56,2.08-1.14,3.09-1.74Z"/>
    <path d="M356.57,359.95c-.65-.32-1.29-.65-1.94-.98.64.33,1.29.66,1.94.98Z"/>
    <path d="M360.96,361.96c-1-.43-2-.87-2.98-1.33.99.46,1.98.91,2.98,1.33Z"/>
    <path d="M368.98,364.92c-1.06-.33-2.11-.69-3.16-1.06,1.05.37,2.1.73,3.16,1.06Z"/>
    <path d="M393.53,368.94c-.96-.02-1.91-.06-2.87-.11.95.05,1.91.09,2.87.11Z"/>
    <path d="M364.41,363.33c-.71-.27-1.42-.55-2.13-.83.71.29,1.41.56,2.13.83Z"/>
    <path d="M389.44,368.77c-1.18-.08-2.36-.18-3.53-.3,1.17.13,2.35.22,3.53.3Z"/>
    <path d="M353.26,358.24c-.95-.52-1.89-1.05-2.82-1.6.93.55,1.87,1.08,2.82,1.6Z"/>
    <path d="M398.07,368.92c-1.21.04-2.42.05-3.62.04,1.2.01,2.41,0,3.62-.04Z"/>
    <path d="M432.37,360.73h0c-1.22.57-2.45,1.1-3.69,1.61,1.23-.51,2.46-1.04,3.69-1.61Z"/>
    <path d="M435.97,358.94c-1.18.62-2.38,1.22-3.6,1.79,1.22-.57,2.42-1.17,3.6-1.79Z"/>
    <path d="M423.95,364.14c-1.23.43-2.47.82-3.72,1.19,1.24-.37,2.48-.76,3.72-1.19Z"/>
    <path d="M410.69,367.6c-1,.18-2.01.34-3.01.49,1.01-.14,2.01-.31,3.01-.49Z"/>
    <path d="M419.25,365.62c-1.04.3-2.09.58-3.14.83,1.05-.26,2.09-.54,3.14-.83Z"/>
    <path d="M406.74,368.22c-1.23.16-2.45.3-3.68.41,1.23-.11,2.45-.24,3.68-.41Z"/>
    <path d="M415.39,366.63c-1.24.29-2.48.55-3.72.79,1.24-.24,2.48-.5,3.72-.79Z"/>
    <path d="M380.91,367.77c-.95-.16-1.9-.33-2.85-.52.95.19,1.9.36,2.85.52Z"/>
    <path d="M482.61,290.07c.11-1.08.21-2.15.28-3.23h0c-.07,1.08-.17,2.16-.28,3.23Z"/>
    <path d="M343.29,351.92c.87.64,1.76,1.26,2.66,1.87-.9-.61-1.78-1.23-2.66-1.87h0Z"/>
    <polygon points="482.88 286.83 482.88 286.83 482.88 286.83 482.88 286.83 482.88 286.83"/>
    <polygon points="343.29 351.92 343.29 351.92 343.29 351.92 343.29 351.92 343.29 351.92"/>
    <path d="M471.38,293.56c-.14.08-.28.16-.41.24-1.13.64-2.26,1.28-3.4,1.93-.25.14-.51.28-.76.43-1.04.59-2.09,1.17-3.14,1.76-.29.16-.59.32-.88.49-1.04.57-2.08,1.15-3.13,1.72-.29.16-.58.32-.88.48-1.09.6-2.19,1.19-3.29,1.78-.24.13-.48.26-.72.39-1.32.71-2.66,1.42-4,2.13-.01,0-.02.01-.03.02-2.75,1.45-5.52,2.9-8.33,4.34-.35.18-.7.36-1.05.54-1.01.52-2.03,1.04-3.05,1.55-.46.23-.92.46-1.38.7-.92.47-1.85.93-2.78,1.39-.51.25-1.01.5-1.52.76-.89.44-1.78.88-2.68,1.32-.53.26-1.05.52-1.58.77-.91.44-1.82.89-2.73,1.33-.51.24-1.01.49-1.52.73-.99.48-1.98.95-2.98,1.42-.43.2-.86.41-1.29.61-1.42.67-2.85,1.35-4.28,2.01-.29.14-.59.28-.88.41-.29.14-.59.27-.88.41-1.43.67-2.87,1.33-4.3,1.99-.43.2-.87.39-1.3.59-1,.46-2,.91-3,1.36-.51.23-1.03.46-1.54.69-.92.42-1.85.83-2.77,1.24-.54.24-1.07.48-1.61.71-.91.4-1.82.8-2.73,1.2-.52.23-1.04.45-1.56.68-.95.41-1.9.82-2.85,1.23-.48.2-.95.41-1.43.61-1.05.45-2.1.89-3.15,1.34-.36.15-.73.31-1.09.46-2.9,1.22-5.8,2.42-8.67,3.59-.01,0-.03.01-.04.02-1.4.57-2.8,1.13-4.19,1.69-.26.1-.51.2-.76.3-1.16.46-2.32.92-3.48,1.38-.31.12-.62.24-.93.36-1.11.43-2.22.86-3.32,1.29-.31.12-.63.24-.94.36-1.12.43-2.24.86-3.36,1.28-.27.1-.54.21-.82.31-1.22.46-2.44.91-3.66,1.36-.15.06-.3.11-.45.17-4.24,1.57-8.43,3.06-12.55,4.49.87.64,1.76,1.26,2.66,1.87.45.3.9.6,1.36.9.6.39,1.2.77,1.81,1.14.44.27.88.55,1.33.81.93.55,1.87,1.08,2.82,1.6.46.25.92.49,1.38.73.64.33,1.29.66,1.94.98.46.23.93.46,1.4.68.99.46,1.98.91,2.98,1.33.44.19.88.36,1.32.54.71.29,1.41.56,2.13.83.47.18.94.35,1.42.52,1.05.37,2.1.73,3.16,1.06.38.12.76.23,1.15.34.8.24,1.61.47,2.42.69.46.12.92.25,1.39.36.96.24,1.93.47,2.9.68.41.09.82.17,1.23.26.95.19,1.9.36,2.85.52.44.07.88.14,1.32.21.94.14,1.89.27,2.84.38.28.03.56.07.84.1,1.17.13,2.35.22,3.53.3.41.03.82.05,1.23.07.95.05,1.91.09,2.87.11.31,0,.61.02.92.02,1.2.01,2.41,0,3.62-.04.37-.01.73-.03,1.1-.05.98-.04,1.95-.1,2.93-.18.32-.02.64-.04.96-.07,1.23-.11,2.45-.24,3.68-.41.31-.04.62-.09.94-.14,1.01-.14,2.01-.31,3.01-.49.33-.06.65-.11.98-.18,1.24-.24,2.48-.5,3.72-.79.24-.06.48-.12.72-.18,1.05-.26,2.09-.54,3.14-.83.33-.09.66-.19.98-.28,1.24-.37,2.48-.76,3.72-1.19.15-.05.29-.11.44-.16,1.11-.39,2.22-.81,3.32-1.25.33-.13.65-.26.98-.39,1.23-.51,2.46-1.04,3.69-1.61h0c1.22-.57,2.42-1.17,3.6-1.79.31-.16.62-.33.93-.49,1.04-.56,2.08-1.14,3.09-1.74.13-.08.27-.15.41-.23,1.12-.67,2.22-1.37,3.3-2.08.29-.19.57-.38.85-.57.9-.61,1.78-1.23,2.65-1.87.2-.15.41-.29.61-.44,1.02-.76,2.01-1.54,2.99-2.34.26-.21.51-.43.77-.64.78-.65,1.55-1.32,2.31-2,.24-.21.47-.42.71-.63.91-.84,1.81-1.69,2.68-2.56.23-.23.45-.46.68-.69.69-.7,1.36-1.41,2.02-2.13.25-.27.5-.54.74-.81.81-.9,1.59-1.81,2.36-2.74.2-.24.38-.48.57-.72.6-.75,1.19-1.5,1.76-2.26.25-.33.49-.66.73-.99.7-.95,1.38-1.92,2.04-2.9.16-.23.3-.47.46-.71.52-.8,1.03-1.61,1.53-2.42.23-.38.46-.77.69-1.15.49-.83.97-1.67,1.43-2.51.2-.37.4-.74.6-1.12.46-.88.91-1.76,1.34-2.65.21-.43.41-.87.62-1.3.35-.76.69-1.52,1.02-2.29.16-.37.32-.73.48-1.1.43-1.03.83-2.06,1.21-3.1.18-.47.34-.95.51-1.42.25-.72.49-1.44.73-2.16.15-.45.3-.9.44-1.36.32-1.04.62-2.09.9-3.14.13-.5.26-1.01.38-1.51.17-.7.34-1.4.49-2.11.11-.51.23-1.02.33-1.53.21-1.06.41-2.12.59-3.19.08-.51.15-1.02.23-1.54.1-.71.2-1.41.29-2.12.07-.54.13-1.08.19-1.62.11-1.08.21-2.15.28-3.23-3.74,2.24-7.58,4.48-11.5,6.73Z"/>
    <path d="M434.15,313.43c.93-.46,1.85-.93,2.78-1.39-.92.47-1.85.93-2.78,1.39Z"/>
    <path d="M450.77,304.89c1.34-.71,2.67-1.42,4-2.13-1.32.71-2.66,1.42-4,2.13Z"/>
    <path d="M438.31,311.34c1.02-.52,2.04-1.04,3.05-1.55-1.01.52-2.03,1.04-3.05,1.55Z"/>
    <path d="M373.57,340.62c1.39-.56,2.79-1.12,4.19-1.69-1.4.57-2.8,1.13-4.19,1.69Z"/>
    <path d="M429.95,315.51c.9-.44,1.79-.88,2.68-1.32-.89.44-1.78.88-2.68,1.32Z"/>
    <path d="M377.8,338.92c2.88-1.17,5.77-2.37,8.67-3.59-2.9,1.22-5.8,2.42-8.67,3.59Z"/>
    <path d="M442.41,309.25c2.8-1.44,5.58-2.89,8.33-4.34-2.75,1.45-5.52,2.9-8.33,4.34Z"/>
    <path d="M369.32,342.3c1.16-.45,2.32-.91,3.48-1.38-1.16.46-2.32.92-3.48,1.38Z"/>
    <path d="M400.9,329.1c.92-.41,1.85-.82,2.77-1.24-.92.42-1.85.83-2.77,1.24Z"/>
    <path d="M360.76,345.6c1.12-.42,2.24-.85,3.36-1.28-1.12.43-2.24.86-3.36,1.28Z"/>
    <path d="M405.21,327.17c1-.45,2-.91,3-1.36-1,.46-2,.91-3,1.36Z"/>
    <path d="M396.55,331.01c.91-.4,1.82-.8,2.73-1.2-.91.4-1.82.8-2.73,1.2Z"/>
    <path d="M425.64,317.61c.91-.44,1.82-.88,2.73-1.33-.91.44-1.82.89-2.73,1.33Z"/>
    <path d="M356.29,347.27c1.21-.45,2.43-.9,3.66-1.36-1.22.46-2.44.91-3.66,1.36Z"/>
    <path d="M421.14,319.77c.99-.47,1.99-.95,2.98-1.42-.99.48-1.98.95-2.98,1.42Z"/>
    <path d="M365.06,343.96c1.11-.43,2.21-.86,3.32-1.29-1.11.43-2.22.86-3.32,1.29Z"/>
    <path d="M467.57,295.72c1.14-.64,2.27-1.28,3.4-1.93-1.13.64-2.26,1.28-3.4,1.93Z"/>
    <path d="M414.69,322.81c.29-.14.58-.28.88-.41,1.43-.67,2.86-1.34,4.28-2.01-1.42.67-2.85,1.35-4.29,2.01-.29.14-.59.28-.88.41-.29.14-.59.27-.88.41-1.43.67-2.87,1.33-4.3,1.99,1.43-.66,2.87-1.32,4.3-1.99.29-.14.59-.27.88-.41Z"/>
    <path d="M387.57,334.87c1.05-.44,2.1-.89,3.15-1.34-1.05.45-2.1.89-3.15,1.34Z"/>
    <path d="M482.88,286.83h0c-3.74,2.24-7.58,4.48-11.5,6.73,3.93-2.24,7.77-4.49,11.5-6.73Z"/>
    <path d="M355.84,347.44c-4.24,1.57-8.43,3.06-12.55,4.49h0c4.12-1.42,8.3-2.92,12.55-4.49Z"/>
    <path d="M392.14,332.92c.95-.41,1.9-.82,2.85-1.23-.95.41-1.9.82-2.85,1.23Z"/>
    <path d="M459.66,300.11c1.05-.57,2.09-1.15,3.13-1.72-1.04.57-2.08,1.15-3.13,1.72Z"/>
    <path d="M455.49,302.37c1.1-.59,2.2-1.19,3.29-1.78-1.09.6-2.19,1.19-3.29,1.78Z"/>
    <path d="M463.66,297.9c1.05-.58,2.1-1.17,3.14-1.76-1.04.59-2.09,1.17-3.14,1.76Z"/>
    <path d="M315.71,318.27c-.62-1.32-1.2-2.66-1.74-4,.54,1.34,1.12,2.67,1.74,4Z"/>
    <path d="M472.89,240.16c.53,1.01,1.04,2.04,1.53,3.08-.5-1.04-1-2.07-1.53-3.08Z"/>
    <polygon points="323.18 331.25 323.18 331.25 323.18 331.25 323.18 331.25"/>
    <path d="M478.8,254.23c.07.21.13.41.2.62-.06-.21-.13-.41-.2-.62Z"/>
    <path d="M317.52,321.92c-.63-1.2-1.24-2.41-1.82-3.65.58,1.24,1.19,2.45,1.82,3.65Z"/>
    <path d="M477.28,249.91c.19.5.38.99.56,1.49-.18-.5-.37-1-.56-1.49Z"/>
    <path d="M474.84,244.09c.57,1.23,1.11,2.48,1.62,3.72-.51-1.25-1.05-2.49-1.62-3.72Z"/>
    <path d="M319.39,325.29c-.27-.46-.53-.93-.79-1.4.26.47.52.94.79,1.4Z"/>
    <path d="M312.44,310.25s0,.01,0,.02c0,0,0-.01,0-.02h0Z"/>
    <path d="M321.29,328.4c-.12-.18-.23-.37-.35-.56.12.19.23.37.35.56Z"/>
    <path d="M417.5,196.24c.63.17,1.25.36,1.88.54-.63-.18-1.25-.37-1.88-.54Z"/>
    <path d="M427.51,199.54c.49.19.98.37,1.46.57-.48-.2-.97-.38-1.46-.57Z"/>
    <path d="M438.4,204.73c.5.28,1,.56,1.49.85-.49-.29-.99-.57-1.49-.85Z"/>
    <path d="M431.16,201.07c.51.23,1.03.45,1.53.69-.51-.24-1.02-.46-1.53-.69Z"/>
    <path d="M434.81,202.81c.51.26,1.02.5,1.52.77-.5-.27-1.01-.51-1.52-.77Z"/>
    <path d="M421.44,197.37c.19.06.38.13.57.19-.19-.06-.38-.13-.57-.19Z"/>
    <path d="M441.91,206.81c.48.3.97.6,1.45.92-.48-.31-.97-.61-1.45-.92Z"/>
    <path d="M413.51,195.3c.67.14,1.33.31,1.99.47-.66-.16-1.32-.32-1.99-.47Z"/>
    <path d="M401.3,193.58c.71.05,1.42.12,2.13.18-.71-.07-1.42-.13-2.13-.18Z"/>
    <path d="M405.4,193.97c.7.08,1.4.18,2.1.28-.7-.1-1.4-.2-2.1-.28Z"/>
    <path d="M409.48,194.54c.69.11,1.37.25,2.05.38-.68-.13-1.36-.26-2.05-.38Z"/>
    <polygon points="312.44 310.24 312.44 310.25 312.44 310.25 312.44 310.25 312.44 310.24"/>
    <path d="M468.51,232.77c.2.31.4.63.6.94-.2-.31-.39-.63-.6-.94Z"/>
    <path d="M463.51,225.93c.32.4.63.8.94,1.21-.31-.4-.62-.81-.94-1.21Z"/>
    <path d="M466.08,229.28c.28.38.54.77.81,1.15-.27-.38-.53-.77-.81-1.15Z"/>
    <path d="M445.33,209.06c.47.32.94.65,1.4.98-.46-.33-.93-.66-1.4-.98Z"/>
    <path d="M397.16,193.4c.72.02,1.44.05,2.17.08-.72-.03-1.44-.06-2.17-.08Z"/>
    <path d="M362.19,199.85c-1.35.55-2.69,1.13-4.02,1.75s-2.64,1.28-3.93,1.96c1.29-.68,2.6-1.33,3.93-1.96s2.68-1.2,4.02-1.75Z"/>
    <path d="M448.65,211.48c.45.34.9.69,1.34,1.04-.44-.35-.89-.7-1.34-1.04Z"/>
    <path d="M451.87,214.06c.43.36.85.73,1.28,1.1-.42-.37-.85-.74-1.28-1.1Z"/>
    <path d="M454.96,216.8c.41.38.81.76,1.21,1.14-.4-.38-.8-.77-1.21-1.14Z"/>
    <path d="M457.94,219.69c.38.39.75.78,1.13,1.18-.37-.4-.75-.79-1.13-1.18Z"/>
    <path d="M460.79,222.73c.35.4.7.8,1.04,1.2-.35-.4-.69-.81-1.04-1.2Z"/>
    <path d="M311.46,307.24c-.11-.36-.24-.72-.34-1.08.11.36.23.72.34,1.08Z"/>
    <path d="M309.44,262.76c.12-.56.26-1.11.39-1.67-.13.56-.27,1.11-.39,1.67Z"/>
    <path d="M310.39,258.79c.14-.55.31-1.09.46-1.63-.15.54-.32,1.08-.46,1.63Z"/>
    <path d="M311.51,254.88c.16-.51.34-1.01.51-1.51-.17.5-.35,1-.51,1.51Z"/>
    <path d="M308.68,266.76c.09-.57.21-1.13.31-1.69-.11.56-.22,1.13-.31,1.69Z"/>
    <path d="M315.11,245.42c.27-.6.53-1.21.81-1.81-.28.6-.54,1.21-.81,1.81Z"/>
    <path d="M316.83,241.78c.31-.61.61-1.23.93-1.84-.32.61-.62,1.22-.93,1.84Z"/>
    <path d="M318.74,238.19c.34-.61.68-1.22,1.03-1.82-.36.6-.69,1.21-1.03,1.82Z"/>
    <path d="M308.1,270.81c.07-.57.15-1.14.23-1.71-.08.57-.16,1.14-.23,1.71Z"/>
    <path d="M313.96,248.12c.1-.26.2-.52.3-.77-.11.26-.2.52-.3.77Z"/>
    <path d="M307.71,274.88c.04-.57.09-1.14.15-1.71-.05.57-.1,1.14-.15,1.71Z"/>
    <path d="M308.64,295.38c-.09-.53-.18-1.05-.25-1.58.08.53.17,1.05.25,1.58Z"/>
    <path d="M320.82,234.67c.37-.6.75-1.2,1.14-1.79-.39.59-.76,1.19-1.14,1.79Z"/>
    <path d="M309.41,299.44c-.11-.5-.22-1-.32-1.5.1.5.21,1,.32,1.5Z"/>
    <path d="M310.36,303.43c-.12-.46-.25-.91-.36-1.37.11.46.24.91.36,1.37Z"/>
    <path d="M308.07,291.29c-.06-.54-.13-1.09-.18-1.63.05.54.12,1.09.18,1.63Z"/>
    <path d="M307.51,278.97c.01-.57.04-1.14.06-1.7-.03.57-.05,1.13-.06,1.7Z"/>
    <path d="M307.69,287.18c-.04-.56-.07-1.11-.1-1.67.03.56.06,1.11.1,1.67Z"/>
    <path d="M307.5,283.07c-.01-.56-.02-1.13-.02-1.69,0,.56,0,1.12.02,1.69Z"/>
    <path d="M376.3,195.46c.77-.17,1.54-.34,2.31-.49-.77.15-1.54.32-2.31.49Z"/>
    <path d="M393.01,193.4c.73-.02,1.46-.03,2.19-.03-.73,0-1.46,0-2.19.03Z"/>
    <path d="M367.88,197.78c.82-.27,1.64-.54,2.47-.79-.83.25-1.65.52-2.47.79Z"/>
    <path d="M372.1,196.5c.79-.22,1.58-.43,2.36-.63-.79.19-1.58.41-2.36.63Z"/>
    <path d="M363.53,199.34c.91-.35,1.81-.71,2.72-1.03-.91.32-1.82.67-2.72,1.03Z"/>
    <path d="M388.84,193.61c.74-.05,1.48-.1,2.22-.13-.74.04-1.48.08-2.22.13Z"/>
    <path d="M380.48,194.63c.76-.13,1.51-.26,2.27-.37-.76.11-1.51.24-2.27.37Z"/>
    <path d="M350.45,205.68c.83-.49,1.69-.96,2.54-1.43-.85.47-1.71.93-2.54,1.43Z"/>
    <path d="M384.67,194.02c.75-.09,1.49-.18,2.24-.25-.75.07-1.49.16-2.24.25Z"/>
    <path d="M336.74,215.72c.57-.51,1.15-1.01,1.74-1.5-.59.5-1.17.99-1.74,1.5Z"/>
    <path d="M330.8,221.58c.5-.54,1.01-1.08,1.53-1.61-.52.53-1.03,1.07-1.53,1.61Z"/>
    <path d="M333.69,218.59c.54-.53,1.08-1.05,1.63-1.56-.55.51-1.1,1.03-1.63,1.56Z"/>
    <path d="M328.06,224.69c.47-.56.95-1.12,1.43-1.67-.49.55-.96,1.11-1.43,1.67Z"/>
    <path d="M325.48,227.91c.44-.58.88-1.15,1.33-1.71-.45.57-.89,1.14-1.33,1.71Z"/>
    <path d="M339.95,212.99c.61-.49,1.23-.97,1.86-1.45-.63.48-1.25.96-1.86,1.45Z"/>
    <path d="M323.07,231.24c.41-.59.81-1.18,1.23-1.76-.42.58-.83,1.17-1.23,1.76Z"/>
    <path d="M343.3,210.41c.66-.48,1.33-.94,2-1.41-.67.46-1.35.93-2,1.41Z"/>
    <path d="M346.8,207.97c.72-.47,1.46-.93,2.19-1.38-.74.46-1.48.91-2.19,1.38Z"/>
    <path d="M340.28,325.99s-.06.02-.1.03c.03-.01.06-.02.1-.03Z"/>
    <path d="M387.08,307.72c-.18.08-.36.16-.54.24.18-.08.36-.16.54-.24Z"/>
    <path d="M381.5,310.12c-.17.07-.35.15-.52.22.17-.07.35-.15.52-.22Z"/>
    <path d="M375.95,312.46c-.14.06-.27.11-.41.17.14-.06.27-.11.41-.17Z"/>
    <path d="M398.36,302.68c-.1.04-.2.09-.29.13.1-.04.2-.09.29-.13Z"/>
    <path d="M474.42,243.24c-.5-1.04-1-2.07-1.53-3.08-.67-1.28-1.38-2.53-2.1-3.76-.54-.91-1.11-1.8-1.68-2.69-.2-.31-.39-.63-.6-.94-.52-.8-1.07-1.57-1.62-2.34-.27-.38-.53-.77-.81-1.15-.53-.73-1.08-1.43-1.63-2.14-.31-.4-.62-.81-.94-1.21-.55-.68-1.11-1.34-1.67-1.99-.35-.4-.69-.81-1.04-1.2-.56-.63-1.14-1.25-1.72-1.87-.37-.4-.75-.79-1.13-1.18-.58-.59-1.18-1.17-1.77-1.75-.4-.38-.8-.77-1.21-1.14-.6-.56-1.21-1.1-1.82-1.64-.42-.37-.85-.74-1.28-1.1-.62-.52-1.24-1.03-1.87-1.54-.44-.35-.89-.7-1.34-1.04-.64-.49-1.27-.97-1.92-1.43-.46-.33-.93-.66-1.4-.98-.65-.45-1.31-.9-1.97-1.33-.48-.31-.97-.61-1.45-.92-.67-.42-1.34-.84-2.02-1.24-.49-.29-.99-.57-1.49-.85-.69-.39-1.37-.78-2.07-1.14-.5-.27-1.01-.51-1.52-.77-.71-.36-1.41-.72-2.12-1.05-.51-.24-1.02-.46-1.53-.69-.73-.33-1.45-.66-2.19-.97-.48-.2-.97-.38-1.46-.57-1.81-.72-3.64-1.38-5.5-1.97-.19-.06-.38-.13-.57-.19-.68-.21-1.37-.4-2.06-.59-.63-.18-1.25-.37-1.88-.54-.66-.17-1.33-.32-2-.48-.66-.16-1.32-.32-1.99-.47-.66-.14-1.32-.26-1.98-.38-.68-.13-1.36-.26-2.05-.38-.66-.11-1.32-.2-1.98-.29-.7-.1-1.4-.2-2.1-.28-.66-.08-1.31-.14-1.97-.2-.71-.07-1.42-.13-2.13-.18-.66-.05-1.31-.08-1.97-.11-.72-.03-1.44-.06-2.17-.08-.65-.01-1.31-.02-1.96-.02-.73,0-1.46,0-2.19.03-.65.02-1.3.04-1.95.07-.74.04-1.48.08-2.22.13-.65.05-1.29.1-1.94.16-.75.07-1.49.16-2.24.25-.64.08-1.28.16-1.91.25-.76.11-1.51.24-2.27.37-.63.11-1.26.21-1.88.33-.77.15-1.54.32-2.31.49-.61.14-1.22.27-1.83.41-.79.19-1.58.41-2.36.63-.59.16-1.17.31-1.75.49-.83.25-1.65.52-2.47.79-.54.18-1.09.34-1.63.53-.91.32-1.82.67-2.72,1.03-.45.17-.9.33-1.34.51-1.35.55-2.69,1.13-4.02,1.75s-2.64,1.28-3.93,1.96c-.42.22-.83.47-1.25.7-.85.47-1.71.93-2.54,1.43-.49.29-.97.6-1.45.9-.74.46-1.48.91-2.19,1.38-.51.33-1,.69-1.5,1.03-.67.46-1.35.93-2,1.41-.51.37-1,.75-1.49,1.13-.63.48-1.25.96-1.86,1.45-.5.4-.98.81-1.46,1.22-.59.5-1.17.99-1.74,1.5-.48.43-.95.87-1.42,1.3-.55.51-1.1,1.03-1.63,1.56-.46.45-.91.91-1.36,1.38-.52.53-1.03,1.07-1.53,1.61-.44.48-.88.96-1.31,1.45-.49.55-.96,1.11-1.43,1.67-.42.5-.84,1-1.24,1.51-.45.57-.89,1.14-1.33,1.71-.4.52-.79,1.04-1.18,1.57-.42.58-.83,1.17-1.23,1.76-.37.54-.75,1.09-1.11,1.64-.39.59-.76,1.19-1.14,1.79-.35.56-.71,1.13-1.05,1.7-.36.6-.69,1.21-1.03,1.82-.33.58-.66,1.17-.98,1.76-.32.61-.62,1.22-.93,1.84-.3.61-.62,1.21-.91,1.83-.28.6-.54,1.21-.81,1.81-.29.64-.59,1.28-.86,1.93-.11.26-.2.52-.3.77-.7,1.73-1.34,3.48-1.93,5.25-.17.5-.35,1-.51,1.51-.24.76-.45,1.52-.66,2.28-.15.54-.32,1.08-.46,1.63-.2.76-.38,1.53-.56,2.29-.13.56-.27,1.11-.39,1.67-.17.77-.31,1.54-.45,2.31-.11.56-.22,1.13-.31,1.69-.13.78-.24,1.56-.35,2.34-.08.57-.16,1.14-.23,1.71-.09.79-.17,1.57-.24,2.36-.05.57-.1,1.14-.15,1.71-.06.8-.1,1.59-.14,2.39-.03.57-.05,1.13-.06,1.7-.02.8-.03,1.61-.03,2.42,0,.56,0,1.12.02,1.69.02.81.04,1.63.08,2.44.03.56.06,1.11.1,1.67.06.82.12,1.65.2,2.47.05.54.12,1.09.18,1.63.1.84.2,1.68.32,2.51.08.53.17,1.05.25,1.58.14.85.28,1.71.45,2.56.1.5.21,1,.32,1.5.19.87.37,1.75.59,2.62.11.46.24.91.36,1.37.24.91.48,1.83.75,2.74.11.36.23.72.34,1.08.31,1,.63,2.01.98,3,0,0,0,0,0,0,0,0,0,.01,0,.02.47,1.34.98,2.68,1.52,4,.55,1.34,1.12,2.67,1.74,4,.58,1.24,1.19,2.45,1.82,3.65.35.67.72,1.32,1.08,1.97.26.47.52.94.79,1.4.5.86,1.02,1.71,1.55,2.56.12.19.23.37.35.56.62.96,1.24,1.91,1.89,2.85,0,0,0,0,0,0,5.19-1.42,10.89-3.17,17-5.23.03-.01.06-.02.1-.03,1.48-.5,2.99-1.02,4.52-1.55.07-.02.13-.05.2-.07,1.51-.53,3.04-1.07,4.59-1.63.08-.03.16-.06.24-.09,1.56-.56,3.14-1.14,4.74-1.74.06-.02.12-.05.18-.07,1.64-.61,3.3-1.24,4.98-1.88.02,0,.03-.01.05-.02,3.41-1.31,6.9-2.69,10.45-4.13.06-.02.12-.05.18-.07,1.7-.69,3.41-1.39,5.14-2.11.14-.06.27-.11.41-.17,1.66-.69,3.34-1.4,5.03-2.12.17-.07.35-.15.52-.22,1.67-.71,3.35-1.43,5.03-2.17.18-.08.36-.16.54-.24,1.7-.74,3.41-1.5,5.13-2.27.16-.07.33-.14.49-.22,1.78-.79,3.56-1.6,5.36-2.42.1-.04.2-.09.29-.13,1.9-.87,3.8-1.74,5.71-2.64s3.81-1.79,5.69-2.68c.1-.05.19-.09.29-.14,1.78-.85,3.55-1.7,5.3-2.55.16-.08.32-.16.48-.23,1.69-.83,3.37-1.65,5.04-2.48.18-.09.35-.18.53-.26,1.65-.82,3.28-1.64,4.9-2.46.17-.09.34-.17.51-.26,1.64-.83,3.26-1.66,4.86-2.49.13-.07.26-.14.39-.2,1.66-.86,3.3-1.72,4.92-2.58.06-.03.11-.06.17-.09,3.39-1.8,6.69-3.58,9.88-5.35.02,0,.03-.02.05-.03,1.57-.87,3.12-1.74,4.65-2.6.06-.03.11-.06.17-.09,1.49-.84,2.95-1.68,4.38-2.51.07-.04.14-.08.21-.12,1.43-.83,2.83-1.65,4.2-2.47.06-.03.12-.07.18-.1,1.39-.83,2.76-1.65,4.1-2.47.03-.02.06-.03.08-.05,5.5-3.36,10.51-6.6,14.93-9.66-.3-1.1-.63-2.19-.97-3.28-.07-.21-.13-.41-.2-.62-.3-.95-.63-1.89-.96-2.83-.18-.5-.37-1-.56-1.49-.27-.7-.53-1.4-.82-2.1-.51-1.25-1.05-2.49-1.62-3.72,0,0,0-.01,0-.02-.13-.28-.28-.55-.41-.82Z"/>
    <path d="M345,324.37c-.07.02-.13.05-.2.07.07-.02.13-.05.2-.07Z"/>
    <path d="M410.05,297.22c-.1.05-.19.09-.29.14.1-.05.19-.09.29-.14Z"/>
    <path d="M354.74,320.85c-.06.02-.12.05-.18.07.06-.02.12-.05.18-.07Z"/>
    <path d="M349.82,322.66c-.08.03-.16.06-.24.09.08-.03.16-.06.24-.09Z"/>
    <path d="M359.77,318.95s-.03.01-.05.02c.02,0,.03-.01.05-.02Z"/>
    <path d="M370.4,314.75c-.06.02-.12.05-.18.07.06-.02.12-.05.18-.07Z"/>
    <path d="M392.7,305.23c-.16.07-.33.15-.49.22.16-.07.33-.14.49-.22Z"/>
    <path d="M451.89,275.53c-.06.03-.11.06-.17.09.06-.03.11-.06.17-.09Z"/>
    <path d="M447.07,278.23s-.03.02-.05.03c.02,0,.03-.02.05-.03Z"/>
    <path d="M456.48,272.9c-.07.04-.14.08-.21.12.07-.04.14-.08.21-.12Z"/>
    <path d="M415.83,294.44c-.16.08-.32.16-.48.23.16-.08.32-.16.48-.23Z"/>
    <path d="M465.04,267.8s-.06.03-.08.05c.03-.02.06-.03.08-.05Z"/>
    <path d="M460.86,270.32c-.06.03-.12.07-.18.1.06-.03.12-.07.18-.1Z"/>
    <path d="M426.81,288.98c-.17.09-.34.17-.51.26.17-.09.34-.17.51-.26Z"/>
    <path d="M421.4,291.7c-.18.09-.35.18-.53.26.18-.09.35-.18.53-.26Z"/>
    <path d="M432.06,286.28c-.13.07-.26.14-.39.2.13-.07.26-.14.39-.2Z"/>
    <path d="M437.15,283.61c-.06.03-.11.06-.17.09.06-.03.11-.06.17-.09Z"/>
  </g>
</svg>