<?xml version="1.0" encoding="UTF-8"?>
<svg id="Vrstva_2" data-name="Vrstva 2" xmlns="http://www.w3.org/2000/svg" viewBox="0 0 915.28 915.28">
  <defs>
    <style>
      .cls-1 {
        fill: #f08120;
      }

      .cls-2 {
        fill: #feeb1a;
      }
    </style>
  </defs>
  <g id="Vrstva_1-2" data-name="Vrstva 1">
    <circle cx="457.64" cy="457.64" r="457.64"/>
    <g id="Vrstva_3" data-name="Vrstva 3">
      <path class="cls-2" d="M609.07,611.21c-.54.54-1.06,1.08-1.6,1.62.54-.54,1.06-1.08,1.6-1.62Z"/>
      <path class="cls-2" d="M601.16,618.86c-.54.49-1.11.99-1.67,1.48.56-.49,1.11-.99,1.67-1.48Z"/>
      <path class="cls-2" d="M559.56,648.34c-.73.4-1.46.78-2.19,1.15.73-.38,1.46-.78,2.19-1.15Z"/>
      <path class="cls-2" d="M567.8,643.71c-.31.19-.64.38-.96.54.31-.19.64-.35.96-.54Z"/>
      <path class="cls-2" d="M585.23,632.04c-.47.35-.96.68-1.44,1.04.47-.35.96-.68,1.44-1.04Z"/>
      <path class="cls-2" d="M577.56,637.47c-.66.45-1.34.89-2,1.34.68-.45,1.34-.89,2-1.34Z"/>
      <path class="cls-2" d="M594.08,625.05c-.61.49-1.2,1.01-1.81,1.51.61-.49,1.2-1.01,1.81-1.51Z"/>
      <path class="cls-2" d="M622.46,596.15c-.45.56-.89,1.13-1.34,1.69.47-.56.89-1.13,1.34-1.69Z"/>
      <path class="cls-2" d="M388.31,615.12c.73-.28,1.48-.56,2.21-.85-.73.28-1.48.56-2.21.85Z"/>
      <path class="cls-2" d="M398.36,611.24l2.19-.85-2.19.85Z"/>
      <path class="cls-2" d="M615.54,604.3c-.56.64-1.15,1.27-1.74,1.91.59-.64,1.18-1.27,1.74-1.91Z"/>
      <path class="cls-2" d="M378.5,618.86c.64-.24,1.27-.49,1.93-.73-.64.24-1.27.49-1.93.73Z"/>
      <path class="cls-2" d="M368.83,622.46c.35-.14.71-.26,1.06-.4-.35.14-.71.26-1.06.4Z"/>
      <path class="cls-2" d="M408.73,607.14c.59-.24,1.2-.47,1.79-.71-.61.24-1.2.47-1.79.71Z"/>
      <path class="cls-2" d="M402.43,664.39c-.89-.26-1.81-.52-2.71-.8.89.28,1.79.54,2.71.8Z"/>
      <path class="cls-2" d="M411.39,666.86c-1.08-.28-2.19-.56-3.27-.85,1.08.28,2.16.59,3.27.85Z"/>
      <path class="cls-2" d="M392.31,661.1c-1.11-.4-2.21-.82-3.34-1.22,1.11.42,2.21.82,3.34,1.22Z"/>
      <path class="cls-2" d="M421.11,669.05c-.96-.19-1.93-.4-2.89-.61.96.21,1.93.4,2.89.61Z"/>
      <path class="cls-2" d="M430.92,670.79c-1.04-.16-2.07-.33-3.11-.49,1.04.16,2.07.33,3.11.49Z"/>
      <path class="cls-2" d="M420.4,602.46s.07-.02.09-.05c-.02,0-.07.02-.09.05Z"/>
      <path class="cls-2" d="M373.84,653.5c-1.11-.52-2.19-1.06-3.29-1.6,1.08.54,2.19,1.08,3.29,1.6Z"/>
      <path class="cls-2" d="M348.75,639.52c-1.06-.71-2.14-1.39-3.2-2.12,1.06.71,2.12,1.41,3.2,2.12Z"/>
      <path class="cls-2" d="M540.22,657.52c-.75.31-1.53.64-2.31.92.78-.31,1.53-.61,2.31-.92Z"/>
      <path class="cls-2" d="M383.98,657.9c-1.04-.42-2.07-.82-3.11-1.27,1.04.45,2.07.85,3.11,1.27Z"/>
      <path class="cls-2" d="M366,649.59c-1.08-.56-2.16-1.13-3.25-1.72,1.08.59,2.16,1.15,3.25,1.72Z"/>
      <path class="cls-2" d="M490.78,671.03c-.73.09-1.46.21-2.21.33.73-.09,1.46-.21,2.21-.33Z"/>
      <path class="cls-2" d="M510.64,667.19c-.56.14-1.13.28-1.69.42.56-.14,1.13-.28,1.69-.42Z"/>
      <path class="cls-2" d="M500.19,669.47c-.78.14-1.53.28-2.31.42.78-.14,1.53-.26,2.31-.42Z"/>
      <path class="cls-2" d="M530.12,661.38c-.35.12-.68.26-1.04.38.35-.12.68-.26,1.04-.38Z"/>
      <path class="cls-2" d="M520.34,664.56c-.78.24-1.55.45-2.31.66.78-.21,1.55-.45,2.31-.66Z"/>
      <path class="cls-2" d="M356.12,644.13c-1.06-.61-2.09-1.27-3.13-1.91,1.04.64,2.07,1.29,3.13,1.91Z"/>
      <path class="cls-2" d="M439.58,671.92c-.66-.07-1.32-.16-1.98-.24.66.07,1.32.16,1.98.24Z"/>
      <path class="cls-2" d="M459.68,673.12c-.73,0-1.44-.05-2.16-.05.73,0,1.44.05,2.16.05Z"/>
      <path class="cls-2" d="M450.76,672.82c-.96-.05-1.93-.09-2.89-.16.96.07,1.93.12,2.89.16Z"/>
      <path class="cls-2" d="M470.76,672.91c-.87.05-1.72.07-2.59.12.87-.02,1.72-.07,2.59-.12Z"/>
      <path class="cls-2" d="M479.93,672.32c-.75.07-1.51.12-2.26.16.75-.05,1.51-.09,2.26-.16Z"/>
      <path class="cls-2" d="M539.49,549.16c1.25-.61,2.47-1.22,3.72-1.81-1.25.61-2.47,1.22-3.72,1.81Z"/>
      <path class="cls-2" d="M620.48,507.04c.68-.38,1.39-.75,2.07-1.15-.68.38-1.39.75-2.07,1.15Z"/>
      <path class="cls-2" d="M659.14,526.88c-.33,1.08-.68,2.14-1.04,3.2.35-1.06.71-2.12,1.04-3.2Z"/>
      <path class="cls-2" d="M628.32,588.51c-.56.78-1.15,1.55-1.72,2.33.59-.78,1.15-1.55,1.72-2.33Z"/>
      <path class="cls-2" d="M652.34,545.8c-.35.87-.75,1.72-1.13,2.59.38-.87.75-1.72,1.13-2.59Z"/>
      <path class="cls-2" d="M611.05,512.22c.68-.38,1.36-.75,2.07-1.13-.68.38-1.36.75-2.07,1.13Z"/>
      <path class="cls-2" d="M662.13,515.92c-.28,1.18-.59,2.38-.89,3.55.31-1.18.61-2.38.89-3.55Z"/>
      <path class="cls-2" d="M629.94,501.77c.59-.33,1.2-.66,1.79-1.01-.59.33-1.2.66-1.79,1.01Z"/>
      <path class="cls-2" d="M639.71,496.22c.33-.19.66-.38.96-.56-.33.19-.66.38-.96.56Z"/>
      <path class="cls-2" d="M648.81,553.78c-.47,1.01-.96,2.05-1.46,3.06.49-1.01.96-2.05,1.46-3.06Z"/>
      <path class="cls-2" d="M559.63,539.16c1.08-.54,2.16-1.08,3.25-1.65-1.08.54-2.16,1.08-3.25,1.65Z"/>
      <path class="cls-2" d="M592.13,522.39s.05-.02.07-.05c-.02,0-.05.02-.07.05Z"/>
      <path class="cls-2" d="M570.06,533.87c.82-.42,1.65-.85,2.47-1.27-.82.42-1.65.85-2.47,1.27Z"/>
      <path class="cls-2" d="M656.39,535.16c-.4,1.13-.8,2.24-1.2,3.34.42-1.11.8-2.24,1.2-3.34Z"/>
      <path class="cls-2" d="M601.61,517.33c.56-.31,1.13-.61,1.69-.92-.56.31-1.13.61-1.69.92Z"/>
      <path class="cls-2" d="M549.51,544.22c1.2-.59,2.38-1.18,3.58-1.79-1.2.59-2.38,1.18-3.58,1.79Z"/>
      <path class="cls-2" d="M529.49,554.01c1.2-.56,2.38-1.15,3.58-1.72-1.2.56-2.38,1.15-3.58,1.72Z"/>
      <path class="cls-2" d="M460.95,585.4c1.22-.54,2.45-1.06,3.67-1.6-1.22.54-2.45,1.06-3.67,1.6Z"/>
      <path class="cls-2" d="M440.92,593.97c.85-.35,1.72-.73,2.56-1.08-.85.35-1.72.73-2.56,1.08Z"/>
      <path class="cls-2" d="M471.06,580.98c1.27-.56,2.52-1.11,3.79-1.67-1.27.56-2.52,1.13-3.79,1.67Z"/>
      <path class="cls-2" d="M665.99,496.27c-.19,1.2-.35,2.42-.54,3.62.19-1.2.35-2.4.54-3.62Z"/>
      <path class="cls-2" d="M667.12,487.47c-.14,1.27-.28,2.54-.45,3.81.16-1.27.31-2.54.45-3.81Z"/>
      <path class="cls-2" d="M634.2,580.01c-.35.56-.71,1.13-1.08,1.67.38-.54.71-1.11,1.08-1.67Z"/>
      <path class="cls-2" d="M450.9,589.73c1.11-.47,2.24-.96,3.36-1.44-1.13.47-2.24.96-3.36,1.44Z"/>
      <path class="cls-2" d="M639.42,571.61c-.54.92-1.08,1.81-1.62,2.71.54-.89,1.08-1.81,1.62-2.71Z"/>
      <path class="cls-2" d="M519.44,558.79c1.01-.47,2.02-.96,3.04-1.44-1.01.47-2.02.96-3.04,1.44Z"/>
      <path class="cls-2" d="M492.05,571.54c1.01-.47,2.05-.92,3.06-1.39-1.01.47-2.05.92-3.06,1.39Z"/>
      <path class="cls-2" d="M644.2,563.07c-.47.87-.94,1.76-1.41,2.64.47-.87.94-1.74,1.41-2.64Z"/>
      <path class="cls-2" d="M481.37,576.39c1.2-.54,2.42-1.08,3.62-1.62-1.2.54-2.42,1.08-3.62,1.62Z"/>
      <path class="cls-2" d="M664.08,507.37c-.24,1.2-.52,2.4-.78,3.6.26-1.2.54-2.4.78-3.6Z"/>
      <path class="cls-2" d="M547.23,479.02c-3.76,1.95-7.58,3.91-11.44,5.86,3.86-1.95,7.67-3.91,11.44-5.86Z"/>
      <path class="cls-2" d="M354.1,564.34c-3.65,1.32-7.25,2.59-10.8,3.84,3.55-1.25,7.15-2.52,10.8-3.84Z"/>
      <path class="cls-2" d="M415.18,540.55c-4.07,1.69-8.09,3.34-12.09,4.96,4-1.62,8.02-3.27,12.09-4.96Z"/>
      <path class="cls-2" d="M342.85,568.34c-3.6,1.25-7.15,2.47-10.64,3.65,3.48-1.18,7.04-2.4,10.64-3.65Z"/>
      <path class="cls-2" d="M559.75,472.48c-3.81,2.02-7.67,4.05-11.58,6.07,3.91-2.02,7.76-4.05,11.58-6.07Z"/>
      <path class="cls-2" d="M583.4,459.68c-7.51,4.16-15.27,8.38-23.25,12.59,7.98-4.24,15.74-8.42,23.25-12.59Z"/>
      <path class="cls-2" d="M605.14,447.35c-3.36,1.95-6.8,3.93-10.31,5.91,3.51-1.98,6.94-3.95,10.31-5.91Z"/>
      <path class="cls-2" d="M615.52,441.25c-3.22,1.93-6.52,3.86-9.88,5.81,3.36-1.95,6.66-3.88,9.88-5.81Z"/>
      <path class="cls-2" d="M625.56,435.18c-3.15,1.93-6.35,3.86-9.65,5.81,3.27-1.95,6.49-3.88,9.65-5.81Z"/>
      <path class="cls-2" d="M291.98,584.37c12.21-3.34,25.62-7.46,40-12.31-14.38,4.82-27.79,8.94-40,12.31h0Z"/>
      <path class="cls-2" d="M594.43,453.49c-3.58,2.02-7.22,4.07-10.94,6.12,3.69-2.05,7.34-4.09,10.94-6.12Z"/>
      <path class="cls-2" d="M365.81,560.06c-3.76,1.41-7.48,2.78-11.15,4.09,3.67-1.32,7.39-2.68,11.15-4.09Z"/>
      <path class="cls-2" d="M377.95,555.45c-3.95,1.53-7.86,2.99-11.72,4.42,3.86-1.44,7.76-2.92,11.72-4.42Z"/>
      <path class="cls-2" d="M402.66,545.71c-8.38,3.39-16.57,6.64-24.59,9.72,8.02-3.08,16.24-6.33,24.59-9.72Z"/>
      <path class="cls-2" d="M521.84,491.91c-3.91,1.95-7.86,3.88-11.86,5.84,3.98-1.95,7.93-3.88,11.86-5.84Z"/>
      <path class="cls-2" d="M508.85,498.29c-4.12,2-8.28,4-12.47,6,4.19-2,8.35-4,12.47-6Z"/>
      <path class="cls-2" d="M427.98,535.19c-3.98,1.69-7.91,3.34-11.84,4.99,3.91-1.62,7.86-3.29,11.84-4.99Z"/>
      <path class="cls-2" d="M652.65,388.03c.68,1.65,1.29,3.29,1.93,4.94-.64-1.65-1.25-3.29-1.93-4.94Z"/>
      <path class="cls-2" d="M660.91,412.34c-10.42,7.2-22.19,14.82-35.13,22.73,12.94-7.91,24.73-15.53,35.13-22.73-.71-2.59-1.46-5.15-2.28-7.72.8,2.56,1.58,5.15,2.28,7.72Z"/>
      <path class="cls-2" d="M655.89,396.48c.8,2.21,1.55,4.45,2.26,6.66-.73-2.24-1.46-4.45-2.26-6.66Z"/>
      <path class="cls-2" d="M648.83,379.28v-.05c-.31-.66-.66-1.29-.96-1.93.31.66.66,1.27.96,1.93v.05Z"/>
      <path class="cls-2" d="M644.25,370.03c-1.58-3.01-3.25-5.95-4.94-8.85h0c1.72,2.89,3.36,5.84,4.94,8.85Z"/>
      <path class="cls-2" d="M468.17,517.45c-4.24,1.93-8.42,3.81-12.61,5.69,4.19-1.86,8.38-3.76,12.61-5.69Z"/>
      <path class="cls-2" d="M281.22,567.05c-.87-1.53-1.72-3.08-2.54-4.64.82,1.58,1.69,3.11,2.54,4.64Z"/>
      <path class="cls-2" d="M454.43,523.66c-4.05,1.81-8.07,3.58-12.07,5.34,4-1.74,8.02-3.53,12.07-5.34Z"/>
      <path class="cls-2" d="M270.28,544.41c-1.27-3.13-2.47-6.26-3.58-9.41,1.11,3.15,2.31,6.31,3.58,9.41Z"/>
      <path class="cls-2" d="M286.7,576.34c-1.25-1.98-2.47-3.98-3.65-6.02,1.18,2.02,2.4,4.02,3.65,6.02Z"/>
      <path class="cls-2" d="M441.06,529.54c-3.98,1.74-7.93,3.44-11.84,5.11,3.93-1.67,7.88-3.36,11.84-5.11Z"/>
      <path class="cls-2" d="M468.88,517.14c4.47-2.05,8.94-4.09,13.44-6.21s8.97-4.21,13.39-6.31c-4.42,2.12-8.89,4.21-13.39,6.31-4.49,2.09-8.99,4.16-13.44,6.21Z"/>
      <path class="cls-2" d="M291.98,584.37c-1.53-2.19-2.99-4.42-4.45-6.71,1.44,2.26,2.92,4.49,4.45,6.71Z"/>
      <path class="cls-2" d="M534.62,485.49c-3.81,1.93-7.65,3.86-11.53,5.79,3.88-1.93,7.72-3.86,11.53-5.79Z"/>
      <path class="cls-2" d="M306.82,329.7c1.01-1.15,2.02-2.28,3.08-3.41-1.04,1.13-2.07,2.26-3.08,3.41Z"/>
      <path class="cls-2" d="M327.98,308.99c1.13-.96,2.28-1.93,3.44-2.87-1.18.94-2.31,1.91-3.44,2.87Z"/>
      <path class="cls-2" d="M255.9,447.7c.16-1.86.35-3.72.56-5.55-.21,1.86-.4,3.69-.56,5.55Z"/>
      <path class="cls-2" d="M313.51,322.5c1.06-1.08,2.12-2.16,3.2-3.25-1.08,1.06-2.14,2.14-3.2,3.25Z"/>
      <path class="cls-2" d="M590.36,304.99c1.48,1.18,2.94,2.38,4.4,3.62-1.46-1.22-2.92-2.42-4.4-3.62Z"/>
      <path class="cls-2" d="M618.22,331.86c1.32,1.55,2.66,3.11,3.93,4.68-1.29-1.6-2.61-3.13-3.93-4.68Z"/>
      <path class="cls-2" d="M320.56,315.6c1.11-1.04,2.21-2.05,3.34-3.06-1.13,1.01-2.24,2.05-3.34,3.06Z"/>
      <path class="cls-2" d="M582.69,299.18c1.53,1.11,3.04,2.24,4.52,3.36-1.51-1.15-2.99-2.28-4.52-3.36Z"/>
      <path class="cls-2" d="M604.9,317.74c1.41,1.36,2.8,2.73,4.16,4.12-1.36-1.39-2.75-2.75-4.16-4.12Z"/>
      <path class="cls-2" d="M352.73,291.01c1.13-.71,2.26-1.44,3.41-2.12-1.15.68-2.28,1.41-3.41,2.12Z"/>
      <path class="cls-2" d="M335.81,302.68c1.18-.89,2.33-1.79,3.51-2.66-1.2.87-2.35,1.76-3.51,2.66Z"/>
      <path class="cls-2" d="M266.7,534.93c-.82-2.35-1.58-4.71-2.31-7.06.73,2.35,1.48,4.73,2.31,7.06Z"/>
      <path class="cls-2" d="M344.02,296.71c1.18-.8,2.33-1.65,3.53-2.42-1.2.78-2.35,1.62-3.53,2.42Z"/>
      <path class="cls-2" d="M257.17,496.24c-.28-1.98-.52-3.93-.75-5.91.24,1.98.47,3.93.75,5.91Z"/>
      <path class="cls-2" d="M274.89,378.15c.68-1.44,1.44-2.87,2.14-4.31-.71,1.44-1.46,2.85-2.14,4.31Z"/>
      <path class="cls-2" d="M362.12,285.55c.99-.54,1.95-1.11,2.94-1.65-.99.52-1.95,1.11-2.94,1.65Z"/>
      <path class="cls-2" d="M270.99,386.95c.64-1.53,1.34-3.04,2.02-4.54-.68,1.51-1.39,3.01-2.02,4.54Z"/>
      <path class="cls-2" d="M279.22,369.53c.73-1.39,1.53-2.75,2.31-4.14-.78,1.36-1.55,2.75-2.31,4.14Z"/>
      <path class="cls-2" d="M256,486.5c-.19-1.93-.33-3.88-.47-5.81.14,1.93.28,3.88.47,5.81Z"/>
      <g>
        <path class="cls-1" d="M639.71,496.22c-2.66,1.51-5.32,3.01-8,4.54-.59.33-1.2.66-1.79,1.01-2.45,1.39-4.92,2.75-7.39,4.14-.68.38-1.39.75-2.07,1.15-2.45,1.34-4.89,2.71-7.36,4.05-.68.38-1.36.75-2.07,1.13-2.56,1.41-5.15,2.8-7.74,4.19-.56.31-1.13.61-1.69.92-3.11,1.67-6.26,3.34-9.41,5.01-.02,0-.05.02-.07.05-6.47,3.41-12.99,6.82-19.6,10.21-.82.42-1.65.85-2.47,1.27-2.38,1.22-4.78,2.45-7.18,3.65-1.08.54-2.16,1.08-3.25,1.65-2.16,1.11-4.35,2.19-6.54,3.27-1.2.59-2.38,1.18-3.58,1.79-2.09,1.04-4.19,2.07-6.31,3.11-1.25.61-2.47,1.22-3.72,1.81-2.14,1.04-4.28,2.09-6.42,3.13-1.2.56-2.38,1.15-3.58,1.72-2.33,1.13-4.66,2.24-7.01,3.34-1.01.47-2.02.96-3.04,1.44-3.34,1.58-6.71,3.18-10.09,4.73-.68.33-1.39.66-2.07.96-.68.33-1.39.64-2.07.96-3.36,1.58-6.75,3.13-10.12,4.68-1.01.47-2.05.92-3.06,1.39-2.35,1.08-4.71,2.14-7.06,3.2-1.2.54-2.42,1.08-3.62,1.62-2.16.99-4.35,1.95-6.52,2.92-1.27.56-2.52,1.13-3.79,1.67-2.14.94-4.28,1.88-6.42,2.82-1.22.54-2.45,1.06-3.67,1.6-2.24.96-4.47,1.93-6.71,2.89-1.13.47-2.24.96-3.36,1.44-2.47,1.06-4.94,2.09-7.41,3.15-.85.35-1.72.73-2.56,1.08-6.82,2.87-13.65,5.69-20.4,8.45-.02,0-.07.02-.09.05-3.29,1.34-6.59,2.66-9.86,3.98-.61.24-1.2.47-1.79.71-2.73,1.08-5.46,2.16-8.19,3.25l-2.19.85c-2.61,1.01-5.22,2.02-7.81,3.04-.73.28-1.48.56-2.21.85-2.64,1.01-5.27,2.02-7.91,3.01-.64.24-1.27.49-1.93.73-2.87,1.08-5.74,2.14-8.61,3.2-.35.14-.71.26-1.06.4-9.98,3.69-19.84,7.2-29.53,10.57,2.05,1.51,4.14,2.96,6.26,4.4,1.06.71,2.12,1.41,3.2,2.12,1.41.92,2.82,1.81,4.26,2.68,1.04.64,2.07,1.29,3.13,1.91,2.19,1.29,4.4,2.54,6.64,3.76,1.08.59,2.16,1.15,3.25,1.72,1.51.78,3.04,1.55,4.56,2.31,1.08.54,2.19,1.08,3.29,1.6,2.33,1.08,4.66,2.14,7.01,3.13,1.04.45,2.07.85,3.11,1.27,1.67.68,3.32,1.32,5.01,1.95,1.11.42,2.21.82,3.34,1.22,2.47.87,4.94,1.72,7.44,2.49.89.28,1.79.54,2.71.8,1.88.56,3.79,1.11,5.69,1.62,1.08.28,2.16.59,3.27.85,2.26.56,4.54,1.11,6.82,1.6.96.21,1.93.4,2.89.61,2.24.45,4.47.85,6.71,1.22,1.04.16,2.07.33,3.11.49,2.21.33,4.45.64,6.68.89.66.07,1.32.16,1.98.24,2.75.31,5.53.52,8.31.71.96.07,1.93.12,2.89.16,2.24.12,4.49.21,6.75.26.73,0,1.44.05,2.16.05,2.82.02,5.67,0,8.52-.09.87-.02,1.72-.07,2.59-.12,2.31-.09,4.59-.24,6.89-.42.75-.05,1.51-.09,2.26-.16,2.89-.26,5.76-.56,8.66-.96.73-.09,1.46-.21,2.21-.33,2.38-.33,4.73-.73,7.08-1.15.78-.14,1.53-.26,2.31-.42,2.92-.56,5.84-1.18,8.75-1.86.56-.14,1.13-.28,1.69-.42,2.47-.61,4.92-1.27,7.39-1.95.78-.21,1.55-.45,2.31-.66,2.92-.87,5.84-1.79,8.75-2.8.35-.12.68-.26,1.04-.38,2.61-.92,5.22-1.91,7.81-2.94.78-.31,1.53-.61,2.31-.92,2.89-1.2,5.79-2.45,8.68-3.79h0c2.87-1.34,5.69-2.75,8.47-4.21.73-.38,1.46-.78,2.19-1.15,2.47-1.32,4.89-2.68,7.27-4.09.31-.19.64-.35.96-.54,2.64-1.58,5.22-3.22,7.76-4.89.68-.45,1.34-.89,2-1.34,2.12-1.44,4.19-2.89,6.24-4.4.47-.35.96-.68,1.44-1.04,2.4-1.79,4.73-3.62,7.04-5.51.61-.49,1.2-1.01,1.81-1.51,1.84-1.53,3.65-3.11,5.44-4.71.56-.49,1.11-.99,1.67-1.48,2.14-1.98,4.26-3.98,6.31-6.02.54-.54,1.06-1.08,1.6-1.62,1.62-1.65,3.2-3.32,4.75-5.01.59-.64,1.18-1.27,1.74-1.91,1.91-2.12,3.74-4.26,5.55-6.45.47-.56.89-1.13,1.34-1.69,1.41-1.76,2.8-3.53,4.14-5.32.59-.78,1.15-1.55,1.72-2.33,1.65-2.24,3.25-4.52,4.8-6.82.38-.54.71-1.11,1.08-1.67,1.22-1.88,2.42-3.76,3.6-5.69.54-.89,1.08-1.81,1.62-2.71,1.15-1.95,2.28-3.93,3.36-5.91.47-.87.94-1.74,1.41-2.64,1.08-2.07,2.14-4.14,3.15-6.24.49-1.01.96-2.05,1.46-3.06.82-1.79,1.62-3.58,2.4-5.39.38-.87.75-1.72,1.13-2.59,1.01-2.42,1.95-4.85,2.85-7.29.42-1.11.8-2.24,1.2-3.34.59-1.69,1.15-3.39,1.72-5.08.35-1.06.71-2.12,1.04-3.2.75-2.45,1.46-4.92,2.12-7.39.31-1.18.61-2.38.89-3.55.4-1.65.8-3.29,1.15-4.96.26-1.2.54-2.4.78-3.6.49-2.49.96-4.99,1.39-7.51.19-1.2.35-2.4.54-3.62.24-1.67.47-3.32.68-4.99.16-1.27.31-2.54.45-3.81.26-2.54.49-5.06.66-7.6-8.8,5.27-17.84,10.54-27.06,15.84-.33.19-.66.38-.96.56l-.21.05h0Z"/>
        <path class="cls-1" d="M644.25,370.03c-1.58-3.01-3.25-5.95-4.94-8.85-1.27-2.14-2.61-4.24-3.95-6.33-.47-.73-.92-1.48-1.41-2.21-1.22-1.88-2.52-3.69-3.81-5.51-.64-.89-1.25-1.81-1.91-2.71-1.25-1.72-2.54-3.36-3.84-5.04-.73-.94-1.46-1.91-2.21-2.85-1.29-1.6-2.61-3.13-3.93-4.68-.82-.94-1.62-1.91-2.45-2.82-1.32-1.48-2.68-2.94-4.05-4.4-.87-.94-1.76-1.86-2.66-2.78-1.36-1.39-2.75-2.75-4.16-4.12-.94-.89-1.88-1.81-2.85-2.68-1.41-1.32-2.85-2.59-4.28-3.86-.99-.87-2-1.74-3.01-2.59-1.46-1.22-2.92-2.42-4.4-3.62-1.04-.82-2.09-1.65-3.15-2.45-1.51-1.15-2.99-2.28-4.52-3.36-1.08-.78-2.19-1.55-3.29-2.31-1.53-1.06-3.08-2.12-4.64-3.13-1.13-.73-2.28-1.44-3.41-2.16-1.58-.99-3.15-1.98-4.75-2.92-1.15-.68-2.33-1.34-3.51-2-1.62-.92-3.22-1.84-4.87-2.68-1.18-.64-2.38-1.2-3.58-1.81-1.67-.85-3.32-1.69-4.99-2.47-1.2-.56-2.4-1.08-3.6-1.62-1.72-.78-3.41-1.55-5.15-2.28-1.13-.47-2.28-.89-3.44-1.34-4.26-1.69-8.57-3.25-12.94-4.64-.45-.14-.89-.31-1.34-.45-1.6-.49-3.22-.94-4.85-1.39-1.48-.42-2.94-.87-4.42-1.27-1.55-.4-3.13-.75-4.71-1.13-1.55-.38-3.11-.75-4.68-1.11-1.55-.33-3.11-.61-4.66-.89-1.6-.31-3.2-.61-4.82-.89-1.55-.26-3.11-.47-4.66-.68-1.65-.24-3.29-.47-4.94-.66-1.55-.19-3.08-.33-4.64-.47-1.67-.16-3.34-.31-5.01-.42-1.55-.12-3.08-.19-4.64-.26-1.69-.07-3.39-.14-5.11-.19-1.53,0-3.08-.05-4.61-.05-1.72,0-3.44,0-5.15.07-1.53.05-3.06.09-4.59.16-1.74.09-3.48.19-5.22.31-1.53.12-3.04.24-4.56.38-1.76.16-3.51.38-5.27.59-1.51.19-3.01.38-4.49.59-1.79.26-3.55.56-5.34.87-1.48.26-2.94.49-4.42.78-1.81.35-3.62.75-5.44,1.15-1.44.33-2.87.64-4.31.96-1.86.45-3.72.96-5.55,1.48-1.39.38-2.75.73-4.12,1.15-1.95.59-3.88,1.22-5.81,1.86-1.27.42-2.56.8-3.84,1.25-2.14.75-4.28,1.58-6.4,2.42-1.06.4-2.12.78-3.15,1.2-3.18,1.29-6.33,2.66-9.46,4.12s-6.21,3.01-9.25,4.61c-.99.52-1.95,1.11-2.94,1.65-2,1.11-4.02,2.19-5.98,3.36-1.15.68-2.28,1.41-3.41,2.12-1.74,1.08-3.48,2.14-5.15,3.25-1.2.78-2.35,1.62-3.53,2.42-1.58,1.08-3.18,2.19-4.71,3.32-1.2.87-2.35,1.76-3.51,2.66-1.48,1.13-2.94,2.26-4.38,3.41-1.18.94-2.31,1.91-3.44,2.87-1.39,1.18-2.75,2.33-4.09,3.53-1.13,1.01-2.24,2.05-3.34,3.06-1.29,1.2-2.59,2.42-3.84,3.67-1.08,1.06-2.14,2.14-3.2,3.25-1.22,1.25-2.42,2.52-3.6,3.79-1.04,1.13-2.07,2.26-3.08,3.41-1.15,1.29-2.26,2.61-3.36,3.93-.99,1.18-1.98,2.35-2.92,3.55-1.06,1.34-2.09,2.68-3.13,4.02-.94,1.22-1.86,2.45-2.78,3.69-.99,1.36-1.95,2.75-2.89,4.14-.87,1.27-1.76,2.54-2.61,3.86-.92,1.39-1.79,2.8-2.68,4.21-.82,1.32-1.67,2.64-2.47,4-.85,1.41-1.62,2.85-2.42,4.28-.78,1.36-1.55,2.75-2.31,4.14-.75,1.44-1.46,2.87-2.19,4.33-.71,1.44-1.46,2.85-2.14,4.31-.66,1.41-1.27,2.85-1.91,4.26-.68,1.51-1.39,3.01-2.02,4.54-.26.61-.47,1.22-.71,1.81-1.65,4.07-3.15,8.19-4.54,12.35-.4,1.18-.82,2.35-1.2,3.55-.56,1.79-1.06,3.58-1.55,5.36-.35,1.27-.75,2.54-1.08,3.84-.47,1.79-.89,3.6-1.32,5.39-.31,1.32-.64,2.61-.92,3.93-.4,1.81-.73,3.62-1.06,5.44-.26,1.32-.52,2.66-.73,3.98-.31,1.84-.56,3.67-.82,5.51-.19,1.34-.38,2.68-.54,4.02-.21,1.86-.4,3.69-.56,5.55-.12,1.34-.24,2.68-.35,4.02-.14,1.88-.24,3.74-.33,5.62-.07,1.34-.12,2.66-.14,4-.05,1.88-.07,3.79-.07,5.69,0,1.32,0,2.64.05,3.98.05,1.91.09,3.84.19,5.74.07,1.32.14,2.61.24,3.93.14,1.93.28,3.88.47,5.81.12,1.27.28,2.56.42,3.84.24,1.98.47,3.93.75,5.91.19,1.25.4,2.47.59,3.72.33,2,.66,4.02,1.06,6.02.24,1.18.49,2.35.75,3.53.45,2.05.87,4.12,1.39,6.16.26,1.08.56,2.14.85,3.22.56,2.14,1.13,4.31,1.76,6.45.26.85.54,1.69.8,2.54.73,2.35,1.48,4.73,2.31,7.06h0v.05c1.11,3.15,2.31,6.31,3.58,9.41,1.27,3.15,2.64,6.28,4.09,9.41,1.36,2.92,2.8,5.76,4.28,8.59.82,1.58,1.69,3.11,2.54,4.64.61,1.11,1.22,2.21,1.86,3.29,1.18,2.02,2.4,4.02,3.65,6.02.28.45.54.87.82,1.32,1.44,2.26,2.92,4.49,4.45,6.71h0c12.21-3.34,25.62-7.46,40-12.31.07-.02.14-.05.24-.07,3.48-1.18,7.04-2.4,10.64-3.65.16-.05.31-.12.47-.16,3.55-1.25,7.15-2.52,10.8-3.84.19-.07.38-.14.56-.21,3.67-1.32,7.39-2.68,11.15-4.09.14-.05.28-.12.42-.16,3.86-1.44,7.76-2.92,11.72-4.42.05,0,.07-.02.12-.05,8.02-3.08,16.24-6.33,24.59-9.72.14-.05.28-.12.42-.16,4-1.62,8.02-3.27,12.09-4.96.33-.14.64-.26.96-.4,3.91-1.62,7.86-3.29,11.84-4.99.4-.16.82-.35,1.22-.52,3.93-1.67,7.88-3.36,11.84-5.11.42-.19.85-.38,1.27-.56,4-1.74,8.02-3.53,12.07-5.34.38-.16.78-.33,1.15-.52,4.19-1.86,8.38-3.76,12.61-5.69.24-.09.47-.21.68-.31,4.47-2.05,8.94-4.09,13.44-6.21,4.49-2.09,8.97-4.21,13.39-6.31.24-.12.45-.21.68-.33,4.19-2,8.35-4,12.47-6,.38-.19.75-.38,1.13-.54,3.98-1.95,7.93-3.88,11.86-5.84.42-.21.82-.42,1.25-.61,3.88-1.93,7.72-3.86,11.53-5.79.4-.21.8-.4,1.2-.61,3.86-1.95,7.67-3.91,11.44-5.86.31-.16.61-.33.92-.47,3.91-2.02,7.76-4.05,11.58-6.07.14-.07.26-.14.4-.21,7.98-4.24,15.74-8.42,23.25-12.59.05,0,.07-.05.12-.07,3.69-2.05,7.34-4.09,10.94-6.12.14-.07.26-.14.4-.21,3.51-1.98,6.94-3.95,10.31-5.91.16-.09.33-.19.49-.28,3.36-1.95,6.66-3.88,9.88-5.81.14-.07.28-.16.42-.24,3.27-1.95,6.49-3.88,9.65-5.81.07-.05.14-.07.19-.12,12.94-7.91,24.73-15.53,35.13-22.73-.71-2.59-1.46-5.15-2.28-7.72-.14-.49-.31-.96-.47-1.46-.73-2.24-1.46-4.45-2.26-6.66-.42-1.18-.87-2.35-1.32-3.51-.64-1.65-1.25-3.29-1.93-4.94-1.2-2.94-2.47-5.86-3.81-8.75v-.05c-.31-.66-.66-1.29-.96-1.93-1.18-2.45-2.35-4.87-3.6-7.25l-.07-.09h0Z"/>
        <path class="cls-1" d="M828.46,319.51c-24.09-14.19-53.13,6.4-116.76-8.26-13.86-3.2-28.19-11.37-43.72-21.79-38.64-26-84.57-66.12-148.41-78.94-8.8-1.62-17.72-2.82-26.68-3.6-46.73-4-95.13,3.79-140.69,25.04-46.47,21.67-84.1,54.57-111.2,93.96-4.28,6.21-8.31,12.61-12.05,19.13-31.98,57.53-30.71,119.11-35.67,165.79-1.98,18.59-4.94,34.8-11.41,47.46-29.67,58.14-64.12,67.16-68.73,94.73-6.31,37.67,84.83,26.75,206.85-13.53,64.38,52.59,155.65,67.04,236.03,29.55,80.38-37.48,128-116.69,129.09-199.8,109.3-67.58,176.24-130.36,143.32-149.77h.02v.02ZM216.87,588.6c-3.81-8.19,9.62-23.67,35.58-43.32,2,5.27,4.19,10.52,6.61,15.69,4.56,9.77,9.74,19.06,15.46,27.84-32.64,7.6-53.77,8.09-57.65-.21ZM667.12,487.47c-.14,1.27-.28,2.54-.45,3.81-.21,1.67-.42,3.34-.68,4.99-.19,1.2-.33,2.42-.54,3.62-.42,2.52-.87,5.01-1.39,7.51-.24,1.2-.52,2.4-.78,3.6-.38,1.67-.75,3.32-1.15,4.96-.28,1.18-.59,2.38-.89,3.55-.66,2.47-1.36,4.94-2.12,7.39-.33,1.08-.68,2.14-1.04,3.2-.54,1.69-1.13,3.39-1.72,5.08-.4,1.13-.8,2.24-1.2,3.34-.92,2.45-1.86,4.89-2.85,7.29-.35.87-.75,1.72-1.13,2.59-.78,1.81-1.58,3.6-2.4,5.39-.47,1.01-.96,2.05-1.46,3.06-1.01,2.09-2.07,4.16-3.15,6.24-.47.87-.94,1.76-1.41,2.64-1.08,2-2.21,3.95-3.36,5.91-.54.92-1.08,1.81-1.62,2.71-1.18,1.91-2.38,3.81-3.6,5.69-.35.56-.71,1.13-1.08,1.67-1.55,2.31-3.15,4.56-4.8,6.82-.56.78-1.15,1.55-1.72,2.33-1.34,1.79-2.73,3.58-4.14,5.32-.45.56-.89,1.13-1.34,1.69-1.79,2.19-3.65,4.33-5.55,6.45-.56.64-1.15,1.27-1.74,1.91-1.55,1.69-3.13,3.36-4.75,5.01-.54.54-1.06,1.08-1.6,1.62-2.05,2.05-4.14,4.05-6.31,6.02-.54.49-1.11.99-1.67,1.48-1.79,1.6-3.6,3.15-5.44,4.71-.61.49-1.2,1.01-1.81,1.51-2.31,1.88-4.64,3.72-7.04,5.51-.47.35-.96.68-1.44,1.04-2.05,1.51-4.14,2.96-6.24,4.4-.66.45-1.34.89-2,1.34-2.54,1.67-5.13,3.32-7.76,4.89-.31.19-.64.38-.96.54-2.38,1.41-4.82,2.78-7.27,4.09-.73.4-1.46.78-2.19,1.15-2.78,1.46-5.6,2.87-8.47,4.21h0c-2.87,1.34-5.76,2.59-8.68,3.79-.75.31-1.53.61-2.31.92-2.59,1.04-5.2,2.02-7.81,2.94-.35.12-.68.26-1.04.38-2.89,1.01-5.81,1.93-8.75,2.8-.78.24-1.55.45-2.31.66-2.45.71-4.92,1.36-7.39,1.95-.56.14-1.13.28-1.69.42-2.92.68-5.81,1.29-8.75,1.86-.78.14-1.53.28-2.31.42-2.35.42-4.73.8-7.08,1.15-.73.09-1.46.21-2.21.33-2.89.38-5.76.71-8.66.96-.75.07-1.51.12-2.26.16-2.31.19-4.59.33-6.89.42-.87.05-1.72.07-2.59.12-2.85.09-5.69.12-8.52.09-.73,0-1.44-.05-2.16-.05-2.26-.05-4.49-.14-6.75-.26-.96-.05-1.93-.09-2.89-.16-2.78-.19-5.55-.42-8.31-.71-.66-.07-1.32-.16-1.98-.24-2.24-.26-4.47-.56-6.68-.89-1.04-.16-2.07-.33-3.11-.49-2.24-.38-4.47-.78-6.71-1.22-.96-.19-1.93-.4-2.89-.61-2.28-.49-4.54-1.04-6.82-1.6-1.08-.28-2.19-.56-3.27-.85-1.91-.52-3.79-1.06-5.69-1.62-.89-.26-1.81-.52-2.71-.8-2.49-.78-4.96-1.62-7.44-2.49-1.11-.4-2.21-.82-3.34-1.22-1.67-.64-3.34-1.29-5.01-1.95-1.04-.42-2.07-.82-3.11-1.27-2.35-1.01-4.71-2.05-7.01-3.13-1.11-.52-2.19-1.06-3.29-1.6-1.53-.75-3.04-1.51-4.56-2.31-1.08-.56-2.16-1.13-3.25-1.72-2.24-1.22-4.45-2.47-6.64-3.76-1.06-.61-2.07-1.27-3.13-1.91-1.44-.87-2.85-1.76-4.26-2.68-1.08-.71-2.14-1.39-3.2-2.12-2.12-1.44-4.19-2.89-6.26-4.4,9.69-3.34,19.53-6.87,29.53-10.57.35-.14.71-.26,1.06-.4,2.85-1.06,5.72-2.12,8.61-3.2.64-.24,1.27-.49,1.93-.73,2.64-.99,5.27-2,7.91-3.01.73-.28,1.48-.56,2.21-.85,2.61-1.01,5.2-2.02,7.81-3.04l2.19-.85c2.73-1.06,5.46-2.14,8.19-3.25.59-.24,1.2-.47,1.79-.71,3.27-1.32,6.56-2.64,9.86-3.98.02,0,.07-.02.09-.05,6.78-2.75,13.58-5.58,20.4-8.45.85-.35,1.72-.73,2.56-1.08,2.47-1.04,4.94-2.09,7.41-3.15,1.11-.47,2.24-.96,3.36-1.44,2.24-.96,4.47-1.93,6.71-2.89,1.22-.54,2.45-1.06,3.67-1.6,2.14-.94,4.28-1.88,6.42-2.82,1.27-.56,2.52-1.11,3.79-1.67,2.16-.96,4.35-1.93,6.52-2.92,1.2-.54,2.42-1.08,3.62-1.62,2.35-1.06,4.71-2.14,7.06-3.2,1.01-.47,2.05-.92,3.06-1.39,3.36-1.55,6.75-3.11,10.12-4.68.68-.33,1.39-.64,2.07-.96s1.36-.66,2.07-.96c3.36-1.58,6.73-3.15,10.09-4.73,1.01-.47,2.02-.96,3.04-1.44,2.33-1.11,4.68-2.24,7.01-3.34,1.2-.56,2.38-1.15,3.58-1.72,2.14-1.04,4.28-2.07,6.42-3.13,1.25-.61,2.47-1.22,3.72-1.81,2.12-1.04,4.21-2.07,6.31-3.11,1.2-.59,2.38-1.18,3.58-1.79,2.19-1.08,4.35-2.19,6.54-3.27,1.08-.54,2.16-1.08,3.25-1.65,2.4-1.22,4.8-2.45,7.18-3.65.82-.42,1.65-.85,2.47-1.27,6.59-3.39,13.13-6.8,19.6-10.21.02,0,.05-.02.07-.05,3.15-1.67,6.28-3.34,9.41-5.01.56-.31,1.13-.61,1.69-.92,2.59-1.39,5.18-2.8,7.74-4.19.68-.38,1.36-.75,2.07-1.13,2.47-1.34,4.92-2.71,7.36-4.05.68-.38,1.39-.75,2.07-1.15,2.47-1.36,4.94-2.75,7.39-4.14.59-.33,1.2-.66,1.79-1.01,2.68-1.51,5.34-3.01,8-4.54.33-.19.66-.38.96-.56,9.25-5.27,18.28-10.57,27.06-15.84-.16,2.54-.4,5.08-.66,7.6l.21-.05h0ZM648.83,379.28c1.34,2.89,2.61,5.81,3.81,8.75.68,1.65,1.29,3.29,1.93,4.94.45,1.18.89,2.33,1.32,3.51.8,2.21,1.55,4.45,2.26,6.66.16.49.31.96.47,1.46.8,2.56,1.58,5.15,2.28,7.72-10.42,7.2-22.19,14.82-35.13,22.73-.07.05-.14.07-.19.12-3.15,1.93-6.35,3.86-9.65,5.81-.14.07-.28.16-.42.24-3.22,1.93-6.52,3.86-9.88,5.81-.16.09-.33.19-.49.28-3.36,1.95-6.8,3.93-10.31,5.91-.14.07-.26.14-.4.21-3.58,2.02-7.22,4.07-10.94,6.12-.05,0-.07.05-.12.07-7.51,4.16-15.27,8.38-23.25,12.59-.14.07-.26.14-.4.21-3.81,2.02-7.67,4.05-11.58,6.07-.31.16-.61.33-.92.47-3.76,1.95-7.58,3.91-11.44,5.86-.4.21-.8.4-1.2.61-3.81,1.93-7.65,3.86-11.53,5.79-.42.21-.82.42-1.25.61-3.91,1.95-7.86,3.88-11.86,5.84-.38.19-.75.38-1.13.54-4.12,2-8.28,4-12.47,6-.24.12-.45.21-.68.33-4.42,2.12-8.89,4.21-13.39,6.31-4.49,2.09-8.99,4.16-13.44,6.21-.24.09-.47.21-.68.31-4.24,1.93-8.42,3.81-12.61,5.69-.38.16-.78.35-1.15.52-4.05,1.81-8.07,3.58-12.07,5.34-.42.19-.85.38-1.27.56-3.98,1.74-7.93,3.44-11.84,5.11-.4.16-.82.35-1.22.52-3.98,1.69-7.91,3.34-11.84,4.99-.33.14-.64.26-.96.4-4.07,1.69-8.09,3.34-12.09,4.96-.14.05-.28.12-.42.16-8.38,3.39-16.57,6.64-24.59,9.72-.05,0-.07.02-.12.05-3.95,1.53-7.86,2.99-11.72,4.42-.14.05-.28.12-.42.16-3.76,1.41-7.48,2.78-11.15,4.09-.19.07-.38.14-.56.21-3.65,1.32-7.25,2.59-10.8,3.84-.16.05-.31.12-.47.16-3.6,1.25-7.15,2.47-10.64,3.65-.07.02-.14.05-.24.07-14.38,4.82-27.79,8.94-40,12.31h0c-1.53-2.19-3.01-4.42-4.45-6.71-.28-.42-.54-.87-.82-1.32-1.25-1.98-2.47-3.98-3.65-6.02-.64-1.08-1.22-2.19-1.86-3.29-.85-1.53-1.72-3.06-2.54-4.64-1.48-2.82-2.92-5.67-4.28-8.59-1.46-3.11-2.82-6.26-4.09-9.41-1.27-3.13-2.47-6.26-3.58-9.41v-.05h0c-.82-2.35-1.58-4.71-2.31-7.06-.26-.85-.56-1.69-.8-2.54-.64-2.14-1.2-4.31-1.76-6.45-.28-1.08-.59-2.14-.85-3.22-.49-2.05-.94-4.12-1.39-6.16-.26-1.18-.52-2.35-.75-3.53-.4-2-.73-4-1.06-6.02-.21-1.25-.42-2.47-.59-3.72-.28-1.98-.52-3.93-.75-5.91-.14-1.27-.31-2.56-.42-3.84-.19-1.93-.33-3.88-.47-5.81-.09-1.32-.16-2.61-.24-3.93-.09-1.93-.16-3.84-.19-5.74-.02-1.32-.05-2.66-.05-3.98,0-1.91,0-3.79.07-5.69.02-1.34.09-2.68.14-4,.09-1.88.19-3.74.33-5.62.09-1.34.21-2.68.35-4.02.16-1.86.35-3.72.56-5.55.16-1.34.35-2.68.54-4.02.26-1.84.52-3.67.82-5.51.21-1.34.49-2.66.73-3.98.33-1.81.68-3.62,1.06-5.44.28-1.32.61-2.61.92-3.93.42-1.81.85-3.6,1.32-5.39.33-1.29.73-2.56,1.08-3.84.52-1.79,1.01-3.6,1.55-5.36.38-1.2.8-2.38,1.2-3.55,1.39-4.16,2.89-8.28,4.54-12.35.24-.61.47-1.22.71-1.81.64-1.53,1.34-3.04,2.02-4.54.64-1.41,1.25-2.85,1.91-4.26.68-1.46,1.44-2.87,2.14-4.31.73-1.44,1.44-2.89,2.19-4.33.73-1.39,1.53-2.75,2.31-4.14.8-1.44,1.6-2.87,2.42-4.28.8-1.34,1.62-2.66,2.47-4,.87-1.41,1.76-2.82,2.68-4.21.85-1.29,1.74-2.56,2.61-3.86.96-1.39,1.91-2.78,2.89-4.14.92-1.25,1.84-2.47,2.78-3.69,1.04-1.36,2.07-2.71,3.13-4.02.96-1.2,1.93-2.38,2.92-3.55,1.11-1.32,2.24-2.64,3.36-3.93,1.01-1.15,2.02-2.28,3.08-3.41,1.18-1.27,2.38-2.54,3.6-3.79,1.06-1.08,2.12-2.16,3.2-3.25,1.27-1.25,2.54-2.47,3.84-3.67,1.11-1.04,2.21-2.05,3.34-3.06,1.34-1.2,2.71-2.38,4.09-3.53,1.15-.96,2.28-1.93,3.44-2.87,1.44-1.15,2.89-2.28,4.38-3.41,1.18-.89,2.33-1.79,3.51-2.66,1.55-1.13,3.13-2.21,4.71-3.32,1.18-.8,2.33-1.65,3.53-2.42,1.69-1.13,3.44-2.19,5.15-3.25,1.13-.71,2.26-1.44,3.41-2.12,1.95-1.15,3.98-2.26,5.98-3.36.99-.54,1.95-1.11,2.94-1.65,3.04-1.6,6.12-3.13,9.25-4.61,3.13-1.46,6.31-2.82,9.46-4.12,1.04-.42,2.09-.8,3.15-1.2,2.14-.82,4.26-1.67,6.4-2.42,1.27-.45,2.54-.85,3.84-1.25,1.93-.64,3.86-1.27,5.81-1.86,1.36-.4,2.75-.78,4.12-1.15,1.86-.52,3.69-1.01,5.55-1.48,1.44-.35,2.87-.66,4.31-.96,1.81-.4,3.62-.8,5.44-1.15,1.48-.28,2.94-.54,4.42-.78,1.79-.31,3.55-.61,5.34-.87,1.51-.21,3.01-.4,4.49-.59,1.76-.21,3.51-.42,5.27-.59,1.53-.14,3.04-.26,4.56-.38,1.74-.12,3.48-.24,5.22-.31,1.53-.07,3.06-.14,4.59-.16,1.72-.05,3.44-.07,5.15-.07,1.53,0,3.08,0,4.61.05,1.69.05,3.39.12,5.11.19,1.55.07,3.08.14,4.64.26,1.67.12,3.34.28,5.01.42,1.55.14,3.11.28,4.64.47,1.65.19,3.29.42,4.94.66,1.55.21,3.11.42,4.66.68,1.62.26,3.22.59,4.82.89,1.55.31,3.13.56,4.66.89,1.58.33,3.13.73,4.68,1.11,1.58.38,3.15.73,4.71,1.13,1.48.4,2.94.85,4.42,1.27,1.62.47,3.25.89,4.85,1.39.45.14.89.31,1.34.45,4.38,1.39,8.68,2.96,12.94,4.64,1.13.45,2.31.87,3.44,1.34,1.74.73,3.44,1.51,5.15,2.28,1.2.54,2.42,1.06,3.6,1.62,1.67.8,3.34,1.65,4.99,2.47,1.2.61,2.4,1.18,3.58,1.81,1.65.87,3.25,1.79,4.87,2.68,1.18.66,2.35,1.32,3.51,2,1.6.94,3.18,1.93,4.75,2.92,1.13.71,2.28,1.41,3.41,2.16,1.55,1.01,3.11,2.07,4.64,3.13,1.11.75,2.21,1.53,3.29,2.31,1.53,1.11,3.04,2.24,4.52,3.36,1.06.8,2.12,1.62,3.15,2.45,1.48,1.18,2.94,2.38,4.4,3.62,1.01.85,2,1.72,3.01,2.59,1.44,1.27,2.87,2.54,4.28,3.86.96.89,1.91,1.79,2.85,2.68,1.41,1.36,2.8,2.73,4.16,4.12.89.92,1.76,1.84,2.66,2.78,1.36,1.44,2.73,2.89,4.05,4.4.82.94,1.65,1.88,2.45,2.82,1.32,1.55,2.66,3.11,3.93,4.68.75.94,1.48,1.88,2.21,2.85,1.29,1.67,2.59,3.32,3.84,5.04.66.89,1.27,1.81,1.91,2.71,1.29,1.81,2.59,3.65,3.81,5.51.47.73.94,1.48,1.41,2.21,1.34,2.09,2.68,4.19,3.95,6.33,1.72,2.89,3.36,5.84,4.94,8.85,1.25,2.38,2.45,4.8,3.6,7.25.31.66.66,1.27.96,1.93v.05l.07.09h0ZM675.54,401.82c-3.06-10.02-6.82-19.98-11.39-29.74-2.42-5.2-5.01-10.24-7.76-15.15,31.72-7.25,52.24-7.58,56.05.59,3.88,8.33-10.07,24.19-36.9,44.31h0Z"/>
      </g>
      <path class="cls-2" d="M258.59,428.64c.33-1.81.68-3.65,1.06-5.44-.4,1.81-.73,3.62-1.06,5.44Z"/>
      <path class="cls-2" d="M260.56,419.28c.42-1.81.85-3.6,1.32-5.39-.47,1.79-.89,3.6-1.32,5.39Z"/>
      <path class="cls-2" d="M294.61,344.92c.92-1.25,1.84-2.47,2.78-3.69-.94,1.22-1.86,2.45-2.78,3.69Z"/>
      <path class="cls-2" d="M611.73,324.64c1.36,1.44,2.73,2.89,4.05,4.4-1.32-1.48-2.68-2.94-4.05-4.4Z"/>
      <path class="cls-2" d="M257.03,438.12c.26-1.84.52-3.67.82-5.51-.31,1.84-.56,3.67-.82,5.51Z"/>
      <path class="cls-2" d="M300.54,337.18c.96-1.2,1.93-2.38,2.92-3.55-.99,1.18-1.98,2.35-2.92,3.55Z"/>
      <path class="cls-2" d="M289.1,352.9c.85-1.29,1.74-2.56,2.61-3.86-.87,1.27-1.76,2.54-2.61,3.86Z"/>
      <path class="cls-2" d="M258.82,505.99c-.4-2-.73-4-1.06-6.02.33,2,.66,4.02,1.06,6.02Z"/>
      <path class="cls-2" d="M597.77,311.2c1.44,1.27,2.87,2.54,4.28,3.86-1.41-1.32-2.85-2.59-4.28-3.86Z"/>
      <path class="cls-2" d="M283.95,361.11c.8-1.34,1.62-2.66,2.47-4-.82,1.32-1.67,2.64-2.47,4Z"/>
      <path class="cls-2" d="M262.96,410.03c.52-1.79,1.01-3.6,1.55-5.36-.56,1.79-1.06,3.58-1.55,5.36Z"/>
      <path class="cls-2" d="M558.22,283.95c1.65.87,3.25,1.79,4.87,2.68-1.62-.92-3.22-1.84-4.87-2.68Z"/>
      <path class="cls-2" d="M480.81,260.87c1.55.14,3.11.28,4.64.47-1.55-.19-3.08-.33-4.64-.47Z"/>
      <path class="cls-2" d="M490.38,262c1.55.21,3.11.42,4.66.68-1.55-.26-3.11-.47-4.66-.68Z"/>
      <path class="cls-2" d="M383.77,275.18c1.04-.42,2.09-.8,3.15-1.2-1.06.4-2.12.78-3.15,1.2Z"/>
      <path class="cls-2" d="M624.39,339.39c1.29,1.67,2.59,3.32,3.84,5.04-1.25-1.72-2.54-3.36-3.84-5.04Z"/>
      <path class="cls-2" d="M263.57,525.35c-.64-2.14-1.2-4.31-1.76-6.45.56,2.14,1.13,4.31,1.76,6.45Z"/>
      <path class="cls-2" d="M499.87,263.58c1.55.31,3.13.56,4.66.89-1.55-.33-3.11-.61-4.66-.89Z"/>
      <path class="cls-2" d="M260.96,515.68c-.49-2.05-.94-4.12-1.39-6.16.45,2.05.87,4.12,1.39,6.16Z"/>
      <path class="cls-2" d="M630.13,347.13c1.29,1.81,2.59,3.65,3.81,5.51-1.22-1.88-2.52-3.69-3.81-5.51Z"/>
      <path class="cls-2" d="M540.9,275.79c1.74.73,3.44,1.51,5.15,2.28-1.72-.78-3.41-1.55-5.15-2.28Z"/>
      <path class="cls-2" d="M461.44,259.95c1.53,0,3.08,0,4.61.05-1.53,0-3.08-.05-4.61-.05Z"/>
      <path class="cls-2" d="M549.65,279.67c1.67.8,3.34,1.65,4.99,2.47-1.67-.85-3.32-1.69-4.99-2.47Z"/>
      <path class="cls-2" d="M518.34,267.95c1.62.47,3.25.89,4.85,1.39-1.6-.49-3.22-.94-4.85-1.39Z"/>
      <path class="cls-2" d="M509.21,265.55c1.58.38,3.15.73,4.71,1.13-1.55-.4-3.13-.75-4.71-1.13Z"/>
      <path class="cls-2" d="M255.29,476.76c-.09-1.93-.16-3.84-.19-5.74.05,1.91.09,3.84.19,5.74Z"/>
      <path class="cls-2" d="M471.16,260.19c1.55.07,3.08.14,4.64.26-1.55-.12-3.08-.19-4.64-.26Z"/>
      <path class="cls-2" d="M412.66,265.81c1.44-.35,2.87-.66,4.31-.96-1.44.33-2.87.64-4.31.96Z"/>
      <path class="cls-2" d="M422.38,263.7c1.48-.28,2.94-.54,4.42-.78-1.48.26-2.94.49-4.42.78Z"/>
      <path class="cls-2" d="M270.28,388.76c-1.65,4.07-3.15,8.19-4.54,12.35,1.39-4.16,2.89-8.28,4.54-12.35Z"/>
      <path class="cls-2" d="M255.24,457.35c.09-1.88.19-3.74.33-5.62-.14,1.88-.24,3.74-.33,5.62Z"/>
      <path class="cls-2" d="M574.76,293.72c1.55,1.01,3.11,2.07,4.64,3.13-1.53-1.06-3.08-2.12-4.64-3.13Z"/>
      <path class="cls-2" d="M402.97,268.45c1.36-.4,2.75-.78,4.12-1.15-1.39.38-2.75.73-4.12,1.15Z"/>
      <path class="cls-2" d="M393.32,271.55c1.27-.45,2.54-.85,3.84-1.25-1.27.42-2.56.8-3.84,1.25Z"/>
      <path class="cls-2" d="M566.62,288.64c1.6.94,3.18,1.93,4.75,2.92-1.58-.99-3.15-1.98-4.75-2.92Z"/>
      <path class="cls-2" d="M441.93,260.87c1.53-.14,3.04-.26,4.56-.38-1.53.12-3.04.24-4.56.38Z"/>
      <path class="cls-2" d="M255.03,467.02c0-1.91,0-3.79.07-5.69-.05,1.88-.07,3.79-.07,5.69Z"/>
      <path class="cls-2" d="M451.7,260.19c1.53-.07,3.06-.14,4.59-.16-1.53.05-3.06.09-4.59.16Z"/>
      <path class="cls-2" d="M432.15,262.05c1.51-.21,3.01-.4,4.49-.59-1.51.19-3.01.38-4.49.59Z"/>
      <path class="cls-2" d="M639.31,361.2h0c-1.27-2.14-2.61-4.24-3.95-6.33,1.34,2.09,2.68,4.19,3.95,6.33h0Z"/>
      <path class="cls-2" d="M537.47,274.45c-4.26-1.69-8.57-3.25-12.94-4.64,4.38,1.39,8.68,2.96,12.94,4.64Z"/>
      <path d="M352.99,642.2c-1.44-.87-2.85-1.76-4.26-2.68,1.41.92,2.82,1.81,4.26,2.68Z"/>
      <path d="M477.65,672.49c-2.31.19-4.59.33-6.89.42,2.31-.09,4.59-.24,6.89-.42Z"/>
      <path d="M621.09,597.85c-1.79,2.19-3.65,4.33-5.55,6.45,1.91-2.12,3.74-4.26,5.55-6.45Z"/>
      <path d="M613.8,606.2c-1.55,1.69-3.13,3.36-4.75,5.01,1.62-1.65,3.2-3.32,4.75-5.01Z"/>
      <path d="M626.6,590.81c-1.34,1.79-2.73,3.58-4.14,5.32,1.41-1.76,2.8-3.53,4.14-5.32Z"/>
      <path d="M633.12,581.68c-1.55,2.31-3.15,4.56-4.8,6.82,1.65-2.24,3.25-4.52,4.8-6.82Z"/>
      <path d="M592.27,626.55c-2.31,1.88-4.64,3.72-7.04,5.51,2.4-1.79,4.73-3.62,7.04-5.51Z"/>
      <path d="M583.8,633.07c-2.05,1.51-4.14,2.96-6.24,4.4,2.12-1.44,4.19-2.89,6.24-4.4Z"/>
      <path d="M607.47,612.84c-2.05,2.05-4.14,4.05-6.31,6.02,2.14-1.98,4.26-3.98,6.31-6.02Z"/>
      <path d="M637.8,574.32c-1.18,1.91-2.38,3.81-3.6,5.69,1.22-1.88,2.42-3.76,3.6-5.69Z"/>
      <path d="M599.52,620.34c-1.79,1.6-3.6,3.15-5.44,4.71,1.84-1.53,3.65-3.11,5.44-4.71Z"/>
      <path d="M647.35,556.83c-1.01,2.09-2.07,4.16-3.15,6.24,1.08-2.07,2.14-4.14,3.15-6.24Z"/>
      <path d="M642.79,565.71c-1.08,2-2.21,3.95-3.36,5.91,1.15-1.95,2.28-3.93,3.36-5.91Z"/>
      <path d="M665.45,499.87c-.42,2.52-.87,5.01-1.39,7.51.49-2.49.96-4.99,1.39-7.51Z"/>
      <path d="M663.31,510.97c-.38,1.67-.75,3.32-1.15,4.96.4-1.65.8-3.29,1.15-4.96Z"/>
      <path d="M666.67,491.26c-.21,1.67-.42,3.34-.68,4.99.24-1.67.47-3.32.68-4.99Z"/>
      <path d="M661.24,519.47c-.66,2.47-1.36,4.94-2.12,7.39.75-2.45,1.46-4.92,2.12-7.39Z"/>
      <path d="M575.56,638.81c-2.54,1.67-5.13,3.32-7.76,4.89,2.64-1.58,5.22-3.22,7.76-4.89Z"/>
      <path d="M651.21,548.39c-.78,1.81-1.58,3.6-2.4,5.39.82-1.79,1.62-3.58,2.4-5.39Z"/>
      <path d="M655.19,538.5c-.92,2.45-1.86,4.89-2.85,7.29,1.01-2.42,1.95-4.85,2.85-7.29Z"/>
      <path d="M658.11,530.08c-.54,1.69-1.13,3.39-1.72,5.08.59-1.69,1.15-3.39,1.72-5.08Z"/>
      <path d="M537.94,658.44c-2.59,1.04-5.2,2.02-7.81,2.94,2.61-.92,5.22-1.91,7.81-2.94Z"/>
      <path d="M408.12,666.02c-1.91-.52-3.79-1.06-5.69-1.62,1.88.56,3.79,1.11,5.69,1.62Z"/>
      <path d="M418.22,668.46c-2.28-.49-4.54-1.04-6.82-1.6,2.26.56,4.54,1.11,6.82,1.6Z"/>
      <path d="M437.6,671.69c-2.24-.26-4.47-.56-6.68-.89,2.21.33,4.45.64,6.68.89Z"/>
      <path d="M566.83,644.27c-2.38,1.41-4.82,2.78-7.27,4.09,2.47-1.32,4.89-2.68,7.27-4.09Z"/>
      <path d="M370.54,651.9c-1.53-.75-3.04-1.53-4.56-2.31,1.51.78,3.04,1.55,4.56,2.31Z"/>
      <path d="M380.87,656.63c-2.35-1.01-4.71-2.05-7.01-3.13,2.33,1.08,4.66,2.14,7.01,3.13Z"/>
      <path d="M399.74,663.59c-2.49-.78-4.96-1.62-7.44-2.49,2.47.87,4.94,1.72,7.44,2.49Z"/>
      <path d="M457.51,673.05c-2.26-.05-4.49-.14-6.75-.26,2.24.12,4.49.21,6.75.26Z"/>
      <path d="M388.99,659.85c-1.67-.64-3.34-1.29-5.01-1.95,1.67.68,3.32,1.32,5.01,1.95Z"/>
      <path d="M447.89,672.65c-2.78-.19-5.55-.42-8.31-.71,2.75.31,5.53.52,8.31.71Z"/>
      <path d="M362.75,647.87c-2.24-1.22-4.45-2.47-6.64-3.76,2.19,1.29,4.4,2.54,6.64,3.76Z"/>
      <path d="M468.19,673c-2.85.09-5.69.12-8.52.09,2.82.02,5.67,0,8.52-.09Z"/>
      <path d="M548.9,653.73h0c-2.87,1.34-5.76,2.59-8.68,3.79,2.89-1.2,5.79-2.45,8.68-3.79Z"/>
      <path d="M557.37,649.52c-2.78,1.46-5.6,2.87-8.47,4.21,2.87-1.34,5.69-2.75,8.47-4.21Z"/>
      <path d="M529.09,661.76c-2.89,1.01-5.81,1.93-8.75,2.8,2.92-.87,5.84-1.79,8.75-2.8Z"/>
      <path d="M497.89,669.9c-2.35.42-4.73.8-7.08,1.15,2.38-.33,4.73-.73,7.08-1.15Z"/>
      <path d="M518.03,665.24c-2.45.71-4.92,1.36-7.39,1.95,2.47-.61,4.92-1.27,7.39-1.95Z"/>
      <path d="M488.59,671.36c-2.89.38-5.76.71-8.66.96,2.89-.26,5.76-.56,8.66-.96Z"/>
      <path d="M508.95,667.62c-2.92.68-5.84,1.29-8.75,1.86,2.92-.56,5.84-1.18,8.75-1.86Z"/>
      <path d="M427.82,670.3c-2.24-.38-4.47-.78-6.71-1.22,2.24.45,4.47.85,6.71,1.22Z"/>
      <path d="M667.12,487.47c.26-2.54.49-5.06.66-7.6h0c-.16,2.54-.4,5.08-.66,7.6Z"/>
      <path d="M339.29,633c2.05,1.51,4.14,2.96,6.26,4.4-2.12-1.44-4.19-2.89-6.26-4.4h0Z"/>
      <path d="M640.69,495.68c-.33.19-.66.38-.96.56-2.66,1.51-5.32,3.01-8,4.54-.59.33-1.2.66-1.79,1.01-2.45,1.39-4.92,2.75-7.39,4.14-.68.38-1.39.75-2.07,1.15-2.45,1.34-4.89,2.71-7.36,4.05-.68.38-1.36.75-2.07,1.13-2.56,1.41-5.15,2.8-7.74,4.19-.56.31-1.13.61-1.69.92-3.11,1.67-6.26,3.34-9.41,5.01-.02,0-.05.02-.07.05-6.47,3.41-12.99,6.82-19.6,10.21-.82.42-1.65.85-2.47,1.27-2.38,1.22-4.78,2.45-7.18,3.65-1.08.54-2.16,1.08-3.25,1.65-2.16,1.11-4.35,2.19-6.54,3.27-1.2.59-2.38,1.18-3.58,1.79-2.09,1.04-4.19,2.07-6.31,3.11-1.25.61-2.47,1.22-3.72,1.81-2.14,1.04-4.28,2.09-6.42,3.13-1.2.56-2.38,1.15-3.58,1.72-2.33,1.13-4.66,2.24-7.01,3.34-1.01.47-2.02.96-3.04,1.44-3.34,1.58-6.71,3.18-10.07,4.73-.68.33-1.39.66-2.07.96-.68.33-1.39.64-2.07.96-3.36,1.58-6.75,3.13-10.12,4.68-1.01.47-2.05.92-3.06,1.39-2.35,1.08-4.71,2.14-7.06,3.2-1.2.54-2.42,1.08-3.62,1.62-2.16.99-4.35,1.95-6.52,2.92-1.27.56-2.52,1.13-3.79,1.67-2.14.94-4.28,1.88-6.42,2.82-1.22.54-2.45,1.06-3.67,1.6-2.24.96-4.47,1.93-6.71,2.89-1.13.47-2.24.96-3.36,1.44-2.47,1.06-4.94,2.09-7.41,3.15-.85.35-1.72.73-2.56,1.08-6.82,2.87-13.65,5.69-20.4,8.45-.02,0-.07.02-.09.05-3.29,1.34-6.59,2.66-9.86,3.98-.61.24-1.2.47-1.79.71-2.73,1.08-5.46,2.16-8.19,3.25l-2.19.85c-2.61,1.01-5.22,2.02-7.81,3.04-.73.28-1.48.56-2.21.85-2.64,1.01-5.27,2.02-7.91,3.01-.64.24-1.27.49-1.93.73-2.87,1.08-5.74,2.14-8.61,3.2-.35.14-.71.26-1.06.4-9.98,3.69-19.84,7.2-29.53,10.57,2.05,1.51,4.14,2.96,6.26,4.4,1.06.71,2.12,1.41,3.2,2.12,1.41.92,2.82,1.81,4.26,2.68,1.04.64,2.07,1.29,3.13,1.91,2.19,1.29,4.4,2.54,6.64,3.76,1.08.59,2.16,1.15,3.25,1.72,1.51.78,3.04,1.55,4.56,2.31,1.08.54,2.19,1.08,3.29,1.6,2.33,1.08,4.66,2.14,7.01,3.13,1.04.45,2.07.85,3.11,1.27,1.67.68,3.32,1.32,5.01,1.95,1.11.42,2.21.82,3.34,1.22,2.47.87,4.94,1.72,7.44,2.49.89.28,1.79.54,2.71.8,1.88.56,3.79,1.11,5.69,1.62,1.08.28,2.16.59,3.27.85,2.26.56,4.54,1.11,6.82,1.6.96.21,1.93.4,2.89.61,2.24.45,4.47.85,6.71,1.22,1.04.16,2.07.33,3.11.49,2.21.33,4.45.64,6.68.89.66.07,1.32.16,1.98.24,2.75.31,5.53.52,8.31.71.96.07,1.93.12,2.89.16,2.24.12,4.49.21,6.75.26.73,0,1.44.05,2.16.05,2.82.02,5.67,0,8.52-.09.87-.02,1.72-.07,2.59-.12,2.31-.09,4.59-.24,6.89-.42.75-.05,1.51-.09,2.26-.16,2.89-.26,5.76-.56,8.66-.96.73-.09,1.46-.21,2.21-.33,2.38-.33,4.73-.73,7.08-1.15.78-.14,1.53-.26,2.31-.42,2.92-.56,5.84-1.18,8.75-1.86.56-.14,1.13-.28,1.69-.42,2.47-.61,4.92-1.27,7.39-1.95.78-.21,1.55-.45,2.31-.66,2.92-.87,5.84-1.79,8.75-2.8.35-.12.68-.26,1.04-.38,2.61-.92,5.22-1.91,7.81-2.94.78-.31,1.53-.61,2.31-.92,2.89-1.2,5.79-2.45,8.68-3.79h0c2.87-1.34,5.69-2.75,8.47-4.21.73-.38,1.46-.78,2.19-1.15,2.45-1.32,4.89-2.68,7.27-4.09.31-.19.64-.35.96-.54,2.64-1.58,5.22-3.22,7.76-4.89.68-.45,1.34-.89,2-1.34,2.12-1.44,4.19-2.89,6.24-4.4.47-.35.96-.68,1.44-1.04,2.4-1.79,4.73-3.62,7.04-5.51.61-.49,1.2-1.01,1.81-1.51,1.84-1.53,3.65-3.11,5.44-4.71.56-.49,1.11-.99,1.67-1.48,2.14-1.98,4.26-3.98,6.31-6.02.54-.54,1.06-1.08,1.6-1.62,1.62-1.65,3.2-3.32,4.75-5.01.59-.64,1.18-1.27,1.74-1.91,1.91-2.12,3.74-4.26,5.55-6.45.47-.56.89-1.13,1.34-1.69,1.41-1.76,2.8-3.53,4.14-5.32.59-.78,1.15-1.55,1.72-2.33,1.65-2.24,3.25-4.52,4.8-6.82.38-.54.71-1.11,1.08-1.67,1.22-1.88,2.42-3.79,3.6-5.69.54-.89,1.08-1.81,1.62-2.71,1.15-1.95,2.28-3.93,3.36-5.91.47-.87.94-1.74,1.41-2.64,1.08-2.07,2.14-4.14,3.15-6.24.49-1.01.96-2.05,1.46-3.06.82-1.79,1.62-3.58,2.4-5.39.38-.87.75-1.72,1.13-2.59,1.01-2.42,1.95-4.85,2.85-7.29.42-1.11.8-2.24,1.2-3.34.59-1.69,1.15-3.39,1.72-5.08.35-1.06.71-2.12,1.04-3.2.75-2.45,1.46-4.92,2.12-7.39.31-1.18.61-2.38.89-3.55.4-1.65.8-3.29,1.15-4.96.26-1.2.54-2.4.78-3.6.49-2.49.96-4.99,1.39-7.51.19-1.2.35-2.4.54-3.62.24-1.67.47-3.32.68-4.99.16-1.27.31-2.54.45-3.81.26-2.54.49-5.06.66-7.6-8.8,5.27-17.84,10.54-27.06,15.84l-.24.05h0Z"/>
      <path d="M553.09,542.43c2.19-1.08,4.35-2.19,6.54-3.27-2.16,1.11-4.35,2.19-6.54,3.27Z"/>
      <path d="M592.2,522.34c3.15-1.67,6.28-3.34,9.41-5.01-3.11,1.67-6.26,3.34-9.41,5.01Z"/>
      <path d="M562.88,537.52c2.4-1.22,4.8-2.45,7.18-3.65-2.38,1.22-4.78,2.45-7.18,3.65Z"/>
      <path d="M410.54,606.41c3.27-1.32,6.56-2.64,9.86-3.98-3.29,1.34-6.59,2.66-9.86,3.98Z"/>
      <path d="M543.21,547.33c2.12-1.04,4.21-2.07,6.31-3.11-2.09,1.04-4.19,2.07-6.31,3.11Z"/>
      <path d="M420.5,602.41c6.78-2.75,13.58-5.58,20.4-8.45-6.82,2.87-13.65,5.69-20.4,8.45Z"/>
      <path d="M572.53,532.6c6.59-3.39,13.13-6.8,19.6-10.21-6.47,3.41-12.99,6.82-19.6,10.21Z"/>
      <path d="M400.54,610.37c2.73-1.06,5.46-2.14,8.19-3.25-2.73,1.08-5.46,2.16-8.19,3.25Z"/>
      <path d="M474.85,579.31c2.16-.96,4.35-1.93,6.52-2.92-2.16.99-4.35,1.95-6.52,2.92Z"/>
      <path d="M380.4,618.13c2.64-.99,5.27-2,7.91-3.01-2.64,1.01-5.27,2.02-7.91,3.01Z"/>
      <path d="M484.99,574.76c2.35-1.06,4.71-2.14,7.06-3.2-2.35,1.08-4.71,2.14-7.06,3.2Z"/>
      <path d="M464.62,583.8c2.14-.94,4.28-1.88,6.42-2.82-2.14.94-4.28,1.88-6.42,2.82Z"/>
      <path d="M533.07,552.27c2.14-1.04,4.28-2.07,6.42-3.13-2.14,1.04-4.28,2.09-6.42,3.13Z"/>
      <path d="M369.88,622.06c2.85-1.06,5.72-2.12,8.61-3.2-2.87,1.08-5.74,2.14-8.61,3.2Z"/>
      <path d="M522.48,557.35c2.33-1.11,4.68-2.24,7.01-3.34-2.33,1.13-4.66,2.24-7.01,3.34Z"/>
      <path d="M390.52,614.27c2.61-1.01,5.2-2.02,7.81-3.04-2.61,1.01-5.22,2.02-7.81,3.04Z"/>
      <path d="M631.73,500.76c2.68-1.51,5.34-3.01,8-4.54-2.66,1.51-5.32,3.01-8,4.54Z"/>
      <path d="M507.3,564.51c.68-.33,1.36-.66,2.07-.96,3.36-1.58,6.73-3.15,10.07-4.73-3.34,1.58-6.71,3.18-10.09,4.73-.68.33-1.39.66-2.07.96-.68.33-1.39.64-2.07.96-3.36,1.58-6.75,3.13-10.12,4.68,3.36-1.55,6.75-3.11,10.12-4.68.68-.33,1.39-.64,2.07-.96h.02Z"/>
      <path d="M443.49,592.88c2.47-1.04,4.94-2.09,7.41-3.15-2.47,1.06-4.94,2.09-7.41,3.15Z"/>
      <path d="M667.75,479.84h0c-8.8,5.27-17.84,10.54-27.06,15.84,9.25-5.27,18.28-10.57,27.06-15.84Z"/>
      <path d="M368.83,622.46c-9.98,3.69-19.84,7.2-29.53,10.57h0c9.69-3.34,19.53-6.87,29.53-10.57Z"/>
      <path d="M454.24,588.29c2.24-.96,4.47-1.93,6.71-2.89-2.24.96-4.47,1.93-6.71,2.89Z"/>
      <path d="M613.12,511.09c2.47-1.34,4.92-2.71,7.36-4.05-2.45,1.34-4.89,2.71-7.36,4.05Z"/>
      <path d="M603.3,516.41c2.59-1.39,5.18-2.8,7.74-4.19-2.56,1.41-5.15,2.8-7.74,4.19Z"/>
      <path d="M622.53,505.89c2.47-1.36,4.94-2.75,7.39-4.14-2.45,1.39-4.92,2.75-7.39,4.14Z"/>
      <path d="M274.4,553.82c-1.46-3.11-2.82-6.26-4.09-9.41,1.27,3.15,2.64,6.28,4.09,9.41Z"/>
      <path d="M644.25,370.03c1.25,2.38,2.45,4.8,3.6,7.25-1.18-2.45-2.35-4.87-3.6-7.25Z"/>
      <path d="M658.15,403.14c.16.49.31.96.47,1.46-.14-.49-.31-.96-.47-1.46Z"/>
      <path d="M278.66,562.41c-1.48-2.82-2.92-5.67-4.28-8.59,1.36,2.92,2.8,5.76,4.28,8.59Z"/>
      <path d="M654.58,392.97c.45,1.18.89,2.33,1.32,3.51-.42-1.18-.87-2.35-1.32-3.51Z"/>
      <path d="M648.83,379.28c1.34,2.89,2.61,5.84,3.81,8.75-1.2-2.94-2.47-5.86-3.81-8.75Z"/>
      <path d="M283.06,570.34c-.64-1.08-1.25-2.19-1.86-3.29.61,1.11,1.22,2.21,1.86,3.29Z"/>
      <path d="M287.53,577.66c-.28-.42-.54-.87-.82-1.32.28.45.54.87.82,1.32Z"/>
      <path d="M513.91,266.68c1.48.4,2.94.85,4.42,1.27-1.48-.42-2.94-.87-4.42-1.27Z"/>
      <path d="M537.47,274.45c1.15.45,2.31.87,3.44,1.34-1.13-.47-2.28-.89-3.44-1.34Z"/>
      <path d="M563.09,286.66c1.18.66,2.35,1.32,3.51,2-1.15-.68-2.33-1.34-3.51-2Z"/>
      <path d="M546.05,278.05c1.2.54,2.42,1.06,3.6,1.62-1.2-.56-2.4-1.08-3.6-1.62Z"/>
      <path d="M554.64,282.14c1.2.61,2.4,1.18,3.58,1.81-1.18-.64-2.38-1.2-3.58-1.81Z"/>
      <path d="M523.18,269.34c.45.14.89.31,1.34.45-.45-.14-.89-.31-1.34-.45Z"/>
      <path d="M571.35,291.56c1.13.71,2.28,1.41,3.41,2.16-1.13-.73-2.28-1.44-3.41-2.16Z"/>
      <path d="M504.52,264.47c1.58.33,3.13.73,4.68,1.11-1.55-.38-3.11-.75-4.68-1.11Z"/>
      <path d="M475.79,260.42c1.67.12,3.34.28,5.01.42-1.67-.16-3.34-.31-5.01-.42Z"/>
      <path d="M485.44,261.34c1.65.19,3.29.42,4.94.66-1.65-.24-3.29-.47-4.94-.66Z"/>
      <path d="M495.04,262.68c1.62.26,3.22.59,4.82.89-1.6-.31-3.2-.61-4.82-.89Z"/>
      <path d="M633.94,352.64c.47.73.94,1.48,1.41,2.21-.47-.73-.92-1.48-1.41-2.21Z"/>
      <path d="M622.18,336.54c.75.94,1.48,1.88,2.21,2.85-.73-.94-1.46-1.91-2.21-2.85Z"/>
      <path d="M628.22,344.43c.66.89,1.27,1.81,1.91,2.71-.64-.89-1.25-1.81-1.91-2.71Z"/>
      <path d="M579.4,296.85c1.11.75,2.21,1.53,3.29,2.31-1.08-.78-2.19-1.55-3.29-2.31Z"/>
      <path d="M466.05,260c1.69.05,3.39.12,5.11.19-1.69-.07-3.39-.14-5.11-.19Z"/>
      <path d="M383.77,275.18c-3.18,1.29-6.33,2.66-9.46,4.12s-6.21,3.01-9.25,4.61c3.04-1.6,6.12-3.13,9.25-4.61s6.31-2.82,9.46-4.12Z"/>
      <path d="M587.21,302.54c1.06.8,2.12,1.62,3.15,2.45-1.04-.82-2.09-1.65-3.15-2.45Z"/>
      <path d="M594.79,308.61c1.01.85,2,1.72,3.01,2.59-.99-.87-2-1.74-3.01-2.59Z"/>
      <path d="M602.06,315.06c.96.89,1.91,1.79,2.85,2.68-.94-.89-1.88-1.81-2.85-2.68Z"/>
      <path d="M609.07,321.86c.89.92,1.76,1.84,2.66,2.78-.87-.94-1.76-1.86-2.66-2.78Z"/>
      <path d="M615.77,329.02c.82.94,1.65,1.88,2.45,2.82-.82-.94-1.62-1.91-2.45-2.82Z"/>
      <path d="M264.4,527.87c-.26-.85-.56-1.69-.8-2.54.26.85.54,1.69.8,2.54Z"/>
      <path d="M259.64,423.21c.28-1.32.61-2.61.92-3.93-.31,1.32-.64,2.61-.92,3.93Z"/>
      <path d="M261.88,413.87c.33-1.29.73-2.56,1.08-3.84-.35,1.27-.75,2.54-1.08,3.84Z"/>
      <path d="M264.52,404.66c.38-1.2.8-2.38,1.2-3.55-.4,1.18-.82,2.35-1.2,3.55Z"/>
      <path d="M257.86,432.62c.21-1.34.49-2.66.73-3.98-.26,1.32-.52,2.66-.73,3.98Z"/>
      <path d="M272.99,382.41c.64-1.41,1.25-2.85,1.91-4.26-.66,1.41-1.27,2.85-1.91,4.26Z"/>
      <path d="M277.03,373.84c.73-1.44,1.44-2.89,2.19-4.33-.75,1.44-1.46,2.87-2.19,4.33Z"/>
      <path d="M281.53,365.39c.8-1.44,1.6-2.87,2.42-4.28-.85,1.41-1.62,2.85-2.42,4.28Z"/>
      <path d="M256.49,442.15c.16-1.34.35-2.68.54-4.02-.19,1.34-.38,2.68-.54,4.02Z"/>
      <path d="M270.28,388.76c.24-.61.47-1.22.71-1.81-.26.61-.47,1.22-.71,1.81Z"/>
      <path d="M255.57,451.73c.09-1.34.21-2.68.35-4.02-.12,1.34-.24,2.68-.35,4.02Z"/>
      <path d="M257.76,499.96c-.21-1.25-.42-2.47-.59-3.72.19,1.25.4,2.47.59,3.72Z"/>
      <path d="M286.42,357.11c.87-1.41,1.76-2.82,2.68-4.21-.92,1.39-1.79,2.8-2.68,4.21Z"/>
      <path d="M259.57,509.52c-.26-1.18-.52-2.35-.75-3.53.24,1.18.49,2.35.75,3.53Z"/>
      <path d="M261.81,518.9c-.28-1.08-.59-2.14-.85-3.22.26,1.08.56,2.14.85,3.22Z"/>
      <path d="M256.42,490.34c-.14-1.27-.31-2.56-.42-3.84.12,1.27.28,2.56.42,3.84Z"/>
      <path d="M255.1,461.35c.02-1.34.09-2.68.14-4-.07,1.34-.12,2.66-.14,4Z"/>
      <path d="M255.53,480.67c-.09-1.32-.16-2.61-.24-3.93.07,1.32.14,2.61.24,3.93Z"/>
      <path d="M255.08,471c-.02-1.32-.05-2.66-.05-3.98,0,1.32,0,2.64.05,3.98Z"/>
      <path d="M416.97,264.85c1.81-.4,3.62-.8,5.44-1.15-1.81.35-3.62.75-5.44,1.15Z"/>
      <path d="M456.29,260c1.72-.05,3.44-.07,5.15-.07-1.72,0-3.44,0-5.15.07Z"/>
      <path d="M397.16,270.31c1.93-.64,3.86-1.27,5.81-1.86-1.95.59-3.88,1.22-5.81,1.86Z"/>
      <path d="M407.09,267.3c1.86-.52,3.72-1.01,5.55-1.48-1.86.45-3.72.96-5.55,1.48Z"/>
      <path d="M386.92,273.98c2.14-.82,4.26-1.67,6.4-2.42-2.14.75-4.28,1.58-6.4,2.42Z"/>
      <path d="M446.47,260.5c1.74-.12,3.48-.24,5.22-.31-1.74.09-3.48.19-5.22.31Z"/>
      <path d="M426.8,262.9c1.79-.31,3.55-.61,5.34-.87-1.79.26-3.55.56-5.34.87Z"/>
      <path d="M356.14,288.9c1.95-1.15,3.98-2.26,5.98-3.36-2,1.11-4.02,2.19-5.98,3.36Z"/>
      <path d="M436.66,261.46c1.76-.21,3.51-.42,5.27-.59-1.76.16-3.51.38-5.27.59Z"/>
      <path d="M323.88,312.52c1.34-1.2,2.71-2.38,4.09-3.53-1.39,1.18-2.75,2.33-4.09,3.53Z"/>
      <path d="M309.91,326.31c1.18-1.27,2.38-2.54,3.6-3.79-1.22,1.25-2.42,2.52-3.6,3.79Z"/>
      <path d="M316.71,319.27c1.27-1.25,2.54-2.47,3.84-3.67-1.29,1.2-2.59,2.42-3.84,3.67Z"/>
      <path d="M303.46,333.63c1.11-1.32,2.24-2.64,3.36-3.93-1.15,1.29-2.26,2.61-3.36,3.93Z"/>
      <path d="M297.39,341.2c1.04-1.36,2.07-2.71,3.13-4.02-1.06,1.34-2.09,2.68-3.13,4.02Z"/>
      <path d="M331.44,306.1c1.44-1.15,2.89-2.28,4.38-3.41-1.48,1.13-2.94,2.26-4.38,3.41Z"/>
      <path d="M291.72,349.04c.96-1.39,1.91-2.78,2.89-4.14-.99,1.36-1.95,2.75-2.89,4.14Z"/>
      <path d="M339.32,300.03c1.55-1.13,3.13-2.21,4.71-3.32-1.58,1.08-3.18,2.19-4.71,3.32Z"/>
      <path d="M347.55,294.28c1.69-1.11,3.44-2.19,5.15-3.25-1.74,1.08-3.48,2.14-5.15,3.25Z"/>
      <path d="M332.21,571.99s-.14.05-.24.07c.07-.02.14-.05.24-.07Z"/>
      <path d="M442.33,529c-.42.19-.85.38-1.27.56.42-.19.85-.38,1.27-.56Z"/>
      <path d="M429.2,534.65c-.4.16-.82.35-1.22.52.4-.16.82-.35,1.22-.52Z"/>
      <path d="M416.14,540.15c-.33.14-.64.26-.96.4.33-.14.64-.26.96-.4Z"/>
      <path d="M468.88,517.14c-.24.09-.47.21-.68.31.24-.09.47-.21.68-.31Z"/>
      <path d="M647.85,377.28c-1.18-2.45-2.35-4.87-3.6-7.25-1.58-3.01-3.25-5.95-4.94-8.85-1.27-2.14-2.61-4.24-3.95-6.33-.47-.73-.92-1.48-1.41-2.21-1.22-1.88-2.52-3.69-3.81-5.51-.64-.89-1.25-1.81-1.91-2.71-1.25-1.72-2.54-3.36-3.84-5.04-.73-.94-1.46-1.91-2.21-2.85-1.29-1.6-2.61-3.15-3.93-4.68-.82-.94-1.62-1.91-2.45-2.82-1.32-1.48-2.68-2.94-4.05-4.4-.87-.94-1.76-1.86-2.66-2.78-1.36-1.39-2.78-2.75-4.16-4.12-.94-.89-1.88-1.81-2.85-2.68-1.41-1.32-2.85-2.59-4.28-3.86-.99-.87-2-1.74-3.01-2.59-1.46-1.22-2.92-2.42-4.4-3.62-1.04-.82-2.09-1.65-3.15-2.45-1.51-1.15-2.99-2.28-4.52-3.36-1.08-.78-2.19-1.55-3.29-2.31-1.53-1.06-3.08-2.12-4.64-3.13-1.13-.73-2.28-1.44-3.41-2.16-1.58-.99-3.15-1.98-4.75-2.92-1.15-.68-2.33-1.34-3.51-2-1.62-.92-3.22-1.84-4.87-2.68-1.18-.64-2.38-1.2-3.58-1.81-1.67-.85-3.32-1.69-4.99-2.47-1.2-.56-2.4-1.08-3.6-1.62-1.72-.78-3.41-1.55-5.15-2.28-1.13-.47-2.28-.89-3.44-1.34-4.26-1.69-8.57-3.25-12.94-4.64-.45-.14-.89-.31-1.34-.45-1.6-.49-3.22-.94-4.85-1.39-1.48-.42-2.94-.87-4.42-1.27-1.55-.4-3.13-.75-4.71-1.13-1.55-.38-3.11-.75-4.68-1.11-1.55-.33-3.11-.61-4.66-.89-1.6-.31-3.2-.61-4.82-.89-1.55-.26-3.11-.47-4.66-.68-1.65-.24-3.29-.47-4.94-.66-1.55-.19-3.08-.33-4.64-.47-1.67-.16-3.34-.31-5.01-.42-1.55-.12-3.08-.19-4.64-.26-1.69-.07-3.39-.14-5.11-.19-1.53,0-3.08-.05-4.61-.05-1.72,0-3.44,0-5.15.07-1.53.05-3.06.09-4.59.16-1.74.09-3.48.19-5.22.31-1.53.12-3.04.24-4.56.38-1.76.16-3.51.38-5.27.59-1.51.19-3.01.38-4.49.59-1.79.26-3.55.56-5.34.87-1.48.26-2.96.49-4.42.78-1.81.35-3.62.75-5.44,1.15-1.44.33-2.87.64-4.31.96-1.86.45-3.72.96-5.55,1.48-1.39.38-2.75.73-4.12,1.15-1.95.59-3.88,1.22-5.81,1.86-1.27.42-2.56.8-3.84,1.25-2.14.75-4.28,1.58-6.4,2.42-1.06.4-2.12.78-3.15,1.2-3.18,1.29-6.33,2.66-9.46,4.12s-6.21,3.01-9.25,4.61c-.99.52-1.95,1.11-2.94,1.65-2,1.11-4.02,2.19-5.98,3.36-1.15.68-2.28,1.41-3.41,2.12-1.74,1.08-3.48,2.14-5.15,3.25-1.2.78-2.35,1.62-3.53,2.42-1.58,1.08-3.18,2.19-4.71,3.32-1.2.87-2.35,1.76-3.51,2.66-1.48,1.13-2.94,2.26-4.38,3.41-1.18.94-2.31,1.91-3.44,2.87-1.39,1.18-2.75,2.33-4.09,3.53-1.13,1.01-2.24,2.05-3.34,3.06-1.29,1.2-2.59,2.42-3.84,3.67-1.08,1.06-2.14,2.14-3.2,3.25-1.22,1.25-2.42,2.52-3.6,3.79-1.04,1.13-2.07,2.26-3.08,3.41-1.15,1.29-2.26,2.61-3.36,3.93-.99,1.18-1.98,2.35-2.92,3.55-1.06,1.34-2.09,2.68-3.13,4.02-.94,1.22-1.86,2.45-2.78,3.69-.99,1.36-1.95,2.75-2.89,4.14-.87,1.27-1.76,2.56-2.61,3.86-.92,1.39-1.79,2.8-2.68,4.21-.82,1.32-1.67,2.66-2.47,4-.85,1.41-1.62,2.85-2.42,4.28-.78,1.36-1.55,2.75-2.31,4.14-.75,1.44-1.46,2.87-2.19,4.33-.71,1.44-1.46,2.85-2.14,4.31-.66,1.41-1.27,2.85-1.91,4.26-.68,1.51-1.39,3.01-2.02,4.54-.26.61-.47,1.22-.71,1.81-1.65,4.07-3.15,8.19-4.54,12.35-.4,1.18-.82,2.35-1.2,3.55-.56,1.79-1.06,3.58-1.55,5.36-.35,1.27-.75,2.54-1.08,3.84-.47,1.79-.89,3.6-1.32,5.39-.31,1.32-.64,2.61-.92,3.93-.4,1.81-.73,3.62-1.06,5.44-.26,1.32-.52,2.66-.73,3.98-.31,1.84-.56,3.67-.82,5.51-.19,1.34-.38,2.68-.54,4.02-.21,1.86-.4,3.69-.56,5.55-.12,1.34-.24,2.68-.35,4.02-.14,1.88-.24,3.74-.33,5.62-.07,1.34-.12,2.66-.14,4-.05,1.88-.07,3.79-.07,5.69,0,1.32,0,2.64.05,3.98.05,1.91.09,3.84.19,5.74.07,1.32.14,2.61.24,3.93.14,1.93.28,3.88.47,5.81.12,1.27.28,2.56.42,3.84.24,1.98.47,3.95.75,5.91.19,1.25.4,2.47.59,3.72.33,2,.66,4.02,1.06,6.02.24,1.18.49,2.35.75,3.53.45,2.05.87,4.12,1.39,6.16.26,1.08.56,2.14.85,3.22.56,2.14,1.13,4.31,1.76,6.45.26.85.54,1.69.8,2.54.73,2.35,1.48,4.73,2.31,7.06h0v.05c1.11,3.15,2.31,6.31,3.58,9.41,1.29,3.15,2.64,6.28,4.09,9.41,1.36,2.92,2.8,5.76,4.28,8.59.82,1.58,1.69,3.11,2.54,4.64.61,1.11,1.22,2.21,1.86,3.29,1.18,2.02,2.4,4.02,3.65,6.02.28.45.54.87.82,1.32,1.46,2.26,2.92,4.49,4.45,6.71h0c12.21-3.34,25.62-7.46,40-12.31.07-.02.14-.05.24-.07,3.48-1.18,7.04-2.4,10.64-3.65.16-.05.31-.12.47-.16,3.55-1.25,7.15-2.52,10.8-3.84.19-.07.38-.14.56-.21,3.67-1.32,7.39-2.68,11.15-4.09.14-.05.28-.12.42-.16,3.86-1.44,7.76-2.92,11.72-4.42.05,0,.07-.02.12-.05,8.02-3.08,16.24-6.33,24.59-9.72.14-.05.28-.12.42-.16,4-1.62,8.02-3.27,12.09-4.96.33-.14.64-.26.96-.4,3.91-1.62,7.86-3.29,11.84-4.99.4-.16.82-.35,1.22-.52,3.93-1.67,7.88-3.36,11.84-5.11.42-.19.85-.38,1.27-.56,4-1.74,8.02-3.53,12.07-5.34.38-.16.78-.33,1.15-.52,4.19-1.86,8.38-3.76,12.61-5.69.24-.09.47-.21.68-.31,4.47-2.05,8.94-4.09,13.44-6.21s8.97-4.21,13.39-6.31c.24-.12.45-.21.68-.33,4.19-2,8.35-4,12.47-6,.38-.19.75-.38,1.13-.54,3.98-1.95,7.93-3.88,11.86-5.84.42-.21.82-.42,1.25-.61,3.88-1.93,7.72-3.86,11.53-5.79.4-.21.8-.4,1.2-.61,3.86-1.95,7.67-3.91,11.44-5.86.31-.16.61-.33.92-.47,3.91-2.02,7.76-4.05,11.58-6.07.14-.07.26-.14.4-.21,7.98-4.24,15.74-8.42,23.25-12.59.05,0,.07-.05.12-.07,3.69-2.05,7.34-4.09,10.94-6.12.14-.07.26-.14.4-.21,3.51-1.98,6.94-3.95,10.31-5.91.16-.09.33-.19.49-.28,3.36-1.95,6.66-3.88,9.88-5.81.14-.07.28-.16.42-.24,3.27-1.95,6.49-3.88,9.65-5.81.07-.05.14-.07.19-.12,12.94-7.91,24.73-15.53,35.13-22.73-.71-2.59-1.48-5.15-2.28-7.72-.16-.49-.31-.96-.47-1.46-.71-2.24-1.48-4.45-2.26-6.66-.42-1.18-.87-2.35-1.32-3.51-.64-1.65-1.25-3.29-1.93-4.94-1.2-2.94-2.47-5.86-3.81-8.75v-.05c-.31-.66-.66-1.29-.96-1.93l-.07-.09h0Z"/>
      <path d="M343.32,568.18c-.16.05-.31.12-.47.16.16-.05.31-.12.47-.16Z"/>
      <path d="M496.38,504.29c-.24.12-.45.21-.68.33.24-.12.45-.21.68-.33Z"/>
      <path d="M366.24,559.89c-.14.05-.28.12-.42.16.14-.05.28-.12.42-.16Z"/>
      <path d="M354.66,564.15c-.19.07-.38.14-.56.21.19-.07.38-.14.56-.21Z"/>
      <path d="M378.07,555.42s-.07.02-.12.05c.05,0,.07-.02.12-.05Z"/>
      <path d="M403.09,545.54c-.14.05-.28.12-.42.16.14-.05.28-.12.42-.16Z"/>
      <path d="M455.56,523.14c-.38.16-.78.35-1.15.52.38-.16.78-.33,1.15-.52Z"/>
      <path d="M594.83,453.25c-.14.07-.26.14-.4.21.14-.07.26-.14.4-.21Z"/>
      <path d="M583.49,459.61s-.07.05-.12.07c.05,0,.07-.05.12-.07Z"/>
      <path d="M605.63,447.07c-.16.09-.33.19-.49.28.16-.09.33-.19.49-.28Z"/>
      <path d="M509.98,497.75c-.38.19-.75.38-1.13.54.38-.19.75-.38,1.13-.54Z"/>
      <path d="M625.78,435.07s-.14.07-.19.12c.07-.05.14-.07.19-.12Z"/>
      <path d="M615.94,441c-.14.07-.28.16-.42.24.14-.07.28-.16.42-.24Z"/>
      <path d="M535.82,484.9c-.4.21-.8.4-1.2.61.4-.21.8-.4,1.2-.61Z"/>
      <path d="M523.09,491.3c-.42.21-.82.42-1.25.61.42-.21.82-.42,1.25-.61Z"/>
      <path d="M548.17,478.55c-.31.16-.61.33-.92.47.31-.16.61-.33.92-.47Z"/>
      <path d="M560.15,472.27c-.14.07-.26.14-.4.21.14-.07.26-.14.4-.21Z"/>
    </g>
  </g>
</svg>