<?xml version="1.0" encoding="UTF-8"?>
<svg id="Vrstva_2" data-name="Vrstva 2" xmlns="http://www.w3.org/2000/svg" viewBox="0 0 915.28 915.28">
  <defs>
    <style>
      .cls-1 {
        fill: #fff;
      }

      .cls-2 {
        fill: #f08120;
      }

      .cls-3 {
        fill: #1d1d1b;
      }

      .cls-4 {
        fill: #feeb1a;
      }
    </style>
  </defs>
  <g id="Vrstva_1-2" data-name="Vrstva 1">
    <circle class="cls-3" cx="457.64" cy="457.64" r="457.64"/>
    <g id="Vrstva_3" data-name="Vrstva 3">
      <path class="cls-1" d="M230.19,310.62c0,16.38-8.72,25.94-23.19,33.39,15.96,6.81,25.95,16.59,25.95,37.64,0,25.1-24.25,39.57-52.96,39.57h-74.23v-148.9h74.01c27.44,0,50.42,13.19,50.42,38.29h0ZM147.02,306.78v24.04h27.65c7.87,0,12.34-2.98,12.34-11.7,0-9.57-4.68-12.34-12.34-12.34h-27.65ZM177.43,360.6h-30.41v26.16h30.41c8.51,0,12.34-3.83,12.34-12.76s-4.04-13.4-12.34-13.4Z"/>
      <path class="cls-1" d="M353.43,383.56v37.65h-100.18v-148.89h42.54v111.24h57.65,0Z"/>
      <path class="cls-1" d="M519.4,421.22h-46.37l-8.08-24.89h-48.71l-8.08,24.89h-45.73l55.72-149.96h45.31l55.94,149.96ZM440.7,314.23l-15.74,50.2h31.49l-15.74-50.2s-.01,0-.01,0Z"/>
      <path class="cls-1" d="M566.27,346.77c0,24.46,17.02,38.93,38.93,38.93,17.66,0,28.72-2.98,43.39-9.14v39.35c-13.4,5.74-30.63,8.08-43.39,8.08-47,0-84.65-33.39-84.65-77.21s34.88-77.22,83.16-77.22c14.89,0,31.27,2.76,44.88,9.14v39.35c-13.19-5.96-27.87-9.99-44.88-10.21-23.18,0-37.44,14.68-37.44,38.93h0Z"/>
      <path class="cls-1" d="M754.39,421.22l-40.84-45.09v45.09h-42.54v-148.9h42.54v41.06l39.77-41.06h52.54l-70.83,70.84,74.66,78.06h-55.31.01Z"/>
      <path class="cls-2" d="M717.43,456.77v54.45h48.93v-54.45h42.54v148.89h-42.54v-57.43h-48.93v57.43h-42.54v-148.89h42.54Z"/>
      <path class="cls-2" d="M310.24,568.01v-111.24h42.54v148.89h-100.18v-37.65h57.65,0Z"/>
      <path class="cls-2" d="M126.83,492.54l-20.66-35.77h124.81v148.89h-125.38l18.39-36.16h64.45v-22.12h-61.9v-35.31h61.9v-19.15l-61.62-.39h0Z"/>
      <path class="cls-4" d="M563.54,612.22c-.23.23-.45.46-.68.69.23-.23.45-.46.68-.69Z"/>
      <path class="cls-4" d="M560.18,615.47c-.23.21-.47.42-.71.63.24-.21.47-.42.71-.63Z"/>
      <path class="cls-4" d="M542.5,628c-.31.17-.62.33-.93.49.31-.16.62-.33.93-.49Z"/>
      <path class="cls-4" d="M546,626.03c-.13.08-.27.16-.41.23.13-.08.27-.15.41-.23Z"/>
      <path class="cls-4" d="M553.41,621.07c-.2.15-.41.29-.61.44.2-.15.41-.29.61-.44Z"/>
      <path class="cls-4" d="M550.15,623.38c-.28.19-.57.38-.85.57.29-.19.57-.38.85-.57Z"/>
      <path class="cls-4" d="M557.17,618.1c-.26.21-.51.43-.77.64.26-.21.51-.43.77-.64Z"/>
      <path class="cls-4" d="M569.23,605.82c-.19.24-.38.48-.57.72.2-.24.38-.48.57-.72Z"/>
      <path class="cls-4" d="M469.72,613.88c.31-.12.63-.24.94-.36-.31.12-.63.24-.94.36Z"/>
      <path class="cls-4" d="M473.99,612.23l.93-.36-.93.36Z"/>
      <path class="cls-4" d="M566.29,609.28c-.24.27-.49.54-.74.81.25-.27.5-.54.74-.81Z"/>
      <path class="cls-4" d="M465.55,615.47c.27-.1.54-.21.82-.31-.27.1-.54.21-.82.31Z"/>
      <path class="cls-4" d="M461.44,617c.15-.06.3-.11.45-.17-.15.06-.3.11-.45.17Z"/>
      <path class="cls-4" d="M478.4,610.49c.25-.1.51-.2.76-.3-.26.1-.51.2-.76.3Z"/>
      <path class="cls-4" d="M475.72,634.82c-.38-.11-.77-.22-1.15-.34.38.12.76.23,1.15.34Z"/>
      <path class="cls-4" d="M479.53,635.87c-.46-.12-.93-.24-1.39-.36.46.12.92.25,1.39.36Z"/>
      <path class="cls-4" d="M471.42,633.42c-.47-.17-.94-.35-1.42-.52.47.18.94.35,1.42.52Z"/>
      <path class="cls-4" d="M483.66,636.8c-.41-.08-.82-.17-1.23-.26.41.09.82.17,1.23.26Z"/>
      <path class="cls-4" d="M487.83,637.54c-.44-.07-.88-.14-1.32-.21.44.07.88.14,1.32.21Z"/>
      <path class="cls-4" d="M483.36,608.5s.03-.01.04-.02c-.01,0-.03.01-.04.02Z"/>
      <path class="cls-4" d="M463.57,630.19c-.47-.22-.93-.45-1.4-.68.46.23.93.46,1.4.68Z"/>
      <path class="cls-4" d="M452.91,624.25c-.45-.3-.91-.59-1.36-.9.45.3.9.6,1.36.9Z"/>
      <path class="cls-4" d="M534.28,631.9c-.32.13-.65.27-.98.39.33-.13.65-.26.98-.39Z"/>
      <path class="cls-4" d="M467.88,632.06c-.44-.18-.88-.35-1.32-.54.44.19.88.36,1.32.54Z"/>
      <path class="cls-4" d="M460.24,628.53c-.46-.24-.92-.48-1.38-.73.46.25.92.49,1.38.73Z"/>
      <path class="cls-4" d="M513.27,637.64c-.31.04-.62.09-.94.14.31-.04.62-.09.94-.14Z"/>
      <path class="cls-4" d="M521.71,636.01c-.24.06-.48.12-.72.18.24-.06.48-.12.72-.18Z"/>
      <path class="cls-4" d="M517.27,636.98c-.33.06-.65.12-.98.18.33-.06.65-.11.98-.18Z"/>
      <path class="cls-4" d="M529.99,633.54c-.15.05-.29.11-.44.16.15-.05.29-.11.44-.16Z"/>
      <path class="cls-4" d="M525.83,634.89c-.33.1-.66.19-.98.28.33-.09.66-.19.98-.28Z"/>
      <path class="cls-4" d="M456.04,626.21c-.45-.26-.89-.54-1.33-.81.44.27.88.55,1.33.81Z"/>
      <path class="cls-4" d="M491.51,638.02c-.28-.03-.56-.07-.84-.1.28.03.56.07.84.1Z"/>
      <path class="cls-4" d="M500.05,638.53c-.31,0-.61-.02-.92-.02.31,0,.61.02.92.02Z"/>
      <path class="cls-4" d="M496.26,638.4c-.41-.02-.82-.04-1.23-.07.41.03.82.05,1.23.07Z"/>
      <path class="cls-4" d="M504.76,638.44c-.37.02-.73.03-1.1.05.37-.01.73-.03,1.1-.05Z"/>
      <path class="cls-4" d="M508.66,638.19c-.32.03-.64.05-.96.07.32-.02.64-.04.96-.07Z"/>
      <path class="cls-4" d="M533.97,585.85c.53-.26,1.05-.52,1.58-.77-.53.26-1.05.52-1.58.77Z"/>
      <path class="cls-4" d="M568.39,567.95c.29-.16.59-.32.88-.49-.29.16-.59.32-.88.49Z"/>
      <path class="cls-4" d="M584.82,576.38c-.14.46-.29.91-.44,1.36.15-.45.3-.9.44-1.36Z"/>
      <path class="cls-4" d="M571.72,602.57c-.24.33-.49.66-.73.99.25-.33.49-.66.73-.99Z"/>
      <path class="cls-4" d="M581.93,584.42c-.15.37-.32.73-.48,1.1.16-.37.32-.73.48-1.1Z"/>
      <path class="cls-4" d="M564.38,570.15c.29-.16.58-.32.88-.48-.29.16-.58.32-.88.48Z"/>
      <path class="cls-4" d="M586.09,571.72c-.12.5-.25,1.01-.38,1.51.13-.5.26-1.01.38-1.51Z"/>
      <path class="cls-4" d="M572.41,565.71c.25-.14.51-.28.76-.43-.25.14-.51.28-.76.43Z"/>
      <path class="cls-4" d="M576.56,563.35c.14-.08.28-.16.41-.24-.14.08-.28.16-.41.24Z"/>
      <path class="cls-4" d="M580.43,587.81c-.2.43-.41.87-.62,1.3.21-.43.41-.87.62-1.3Z"/>
      <path class="cls-4" d="M542.53,581.6c.46-.23.92-.46,1.38-.7-.46.23-.92.46-1.38.7Z"/>
      <path class="cls-4" d="M556.34,574.47s.02-.01.03-.02c-.01,0-.02.01-.03.02Z"/>
      <path class="cls-4" d="M546.96,579.35c.35-.18.7-.36,1.05-.54-.35.18-.7.36-1.05.54Z"/>
      <path class="cls-4" d="M583.65,579.9c-.17.48-.34.95-.51,1.42.18-.47.34-.95.51-1.42Z"/>
      <path class="cls-4" d="M560.37,572.32c.24-.13.48-.26.72-.39-.24.13-.48.26-.72.39Z"/>
      <path class="cls-4" d="M538.23,583.75c.51-.25,1.01-.5,1.52-.76-.51.25-1.01.5-1.52.76Z"/>
      <path class="cls-4" d="M529.72,587.91c.51-.24,1.01-.49,1.52-.73-.51.24-1.01.49-1.52.73Z"/>
      <path class="cls-4" d="M500.59,601.25c.52-.23,1.04-.45,1.56-.68-.52.23-1.04.45-1.56.68Z"/>
      <path class="cls-4" d="M492.08,604.89c.36-.15.73-.31,1.09-.46-.36.15-.73.31-1.09.46Z"/>
      <path class="cls-4" d="M504.89,599.37c.54-.24,1.07-.47,1.61-.71-.54.24-1.07.48-1.61.71Z"/>
      <path class="cls-4" d="M587.73,563.37c-.08.51-.15,1.03-.23,1.54.08-.51.15-1.02.23-1.54Z"/>
      <path class="cls-4" d="M588.21,559.63c-.06.54-.12,1.08-.19,1.62.07-.54.13-1.08.19-1.62Z"/>
      <path class="cls-4" d="M574.22,598.96c-.15.24-.3.48-.46.71.16-.23.3-.47.46-.71Z"/>
      <path class="cls-4" d="M496.32,603.09c.47-.2.95-.41,1.43-.61-.48.2-.95.41-1.43.61Z"/>
      <path class="cls-4" d="M576.44,595.39c-.23.39-.46.77-.69,1.15.23-.38.46-.77.69-1.15Z"/>
      <path class="cls-4" d="M525.45,589.94c.43-.2.86-.41,1.29-.61-.43.2-.86.41-1.29.61Z"/>
      <path class="cls-4" d="M513.81,595.36c.43-.2.87-.39,1.3-.59-.43.2-.87.39-1.3.59Z"/>
      <path class="cls-4" d="M578.47,591.76c-.2.37-.4.75-.6,1.12.2-.37.4-.74.6-1.12Z"/>
      <path class="cls-4" d="M509.27,597.42c.51-.23,1.03-.46,1.54-.69-.51.23-1.03.46-1.54.69Z"/>
      <path class="cls-4" d="M586.92,568.09c-.1.51-.22,1.02-.33,1.53.11-.51.23-1.02.33-1.53Z"/>
      <path class="cls-4" d="M537.26,556.04c-1.6.83-3.22,1.66-4.86,2.49,1.64-.83,3.26-1.66,4.86-2.49Z"/>
      <path class="cls-4" d="M455.18,592.3c-1.55.56-3.08,1.1-4.59,1.63,1.51-.53,3.04-1.07,4.59-1.63Z"/>
      <path class="cls-4" d="M481.14,582.19c-1.73.72-3.44,1.42-5.14,2.11,1.7-.69,3.41-1.39,5.14-2.11Z"/>
      <path class="cls-4" d="M450.4,594c-1.53.53-3.04,1.05-4.52,1.55,1.48-.5,2.99-1.02,4.52-1.55Z"/>
      <path class="cls-4" d="M542.58,553.26c-1.62.86-3.26,1.72-4.92,2.58,1.66-.86,3.3-1.72,4.92-2.58Z"/>
      <path class="cls-4" d="M552.63,547.82c-3.19,1.77-6.49,3.56-9.88,5.35,3.39-1.8,6.69-3.58,9.88-5.35Z"/>
      <path class="cls-4" d="M561.87,542.58c-1.43.83-2.89,1.67-4.38,2.51,1.49-.84,2.95-1.68,4.38-2.51Z"/>
      <path class="cls-4" d="M566.28,539.99c-1.37.82-2.77,1.64-4.2,2.47,1.43-.83,2.83-1.65,4.2-2.47Z"/>
      <path class="cls-4" d="M570.55,537.41c-1.34.82-2.7,1.64-4.1,2.47,1.39-.83,2.76-1.65,4.1-2.47Z"/>
      <path class="cls-4" d="M428.78,600.81c5.19-1.42,10.89-3.17,17-5.23-6.11,2.05-11.81,3.8-17,5.23h0Z"/>
      <path class="cls-4" d="M557.32,545.19c-1.52.86-3.07,1.73-4.65,2.6,1.57-.87,3.12-1.74,4.65-2.6Z"/>
      <path class="cls-4" d="M460.16,590.48c-1.6.6-3.18,1.18-4.74,1.74,1.56-.56,3.14-1.14,4.74-1.74Z"/>
      <path class="cls-4" d="M465.32,588.52c-1.68.65-3.34,1.27-4.98,1.88,1.64-.61,3.3-1.24,4.98-1.88Z"/>
      <path class="cls-4" d="M475.82,584.38c-3.56,1.44-7.04,2.82-10.45,4.13,3.41-1.31,6.9-2.69,10.45-4.13Z"/>
      <path class="cls-4" d="M526.47,561.52c-1.66.83-3.34,1.65-5.04,2.48,1.69-.83,3.37-1.65,5.04-2.48Z"/>
      <path class="cls-4" d="M520.95,564.23c-1.75.85-3.52,1.7-5.3,2.55,1.78-.85,3.55-1.7,5.3-2.55Z"/>
      <path class="cls-4" d="M486.58,579.91c-1.69.72-3.36,1.42-5.03,2.12,1.66-.69,3.34-1.4,5.03-2.12Z"/>
      <path class="cls-4" d="M582.06,517.37c.29.7.55,1.4.82,2.1-.27-.7-.53-1.4-.82-2.1Z"/>
      <path class="cls-4" d="M585.57,527.7c-4.43,3.06-9.43,6.3-14.93,9.66,5.5-3.36,10.51-6.6,14.93-9.66-.3-1.1-.62-2.19-.97-3.28.34,1.09.67,2.19.97,3.28Z"/>
      <path class="cls-4" d="M583.44,520.96c.34.94.66,1.89.96,2.83-.31-.95-.62-1.89-.96-2.83Z"/>
      <path class="cls-4" d="M580.44,513.65v-.02c-.13-.28-.28-.55-.41-.82.13.28.28.54.41.82v.02Z"/>
      <path class="cls-4" d="M578.49,509.72c-.67-1.28-1.38-2.53-2.1-3.76h0c.73,1.23,1.43,2.48,2.1,3.76Z"/>
      <path class="cls-4" d="M503.66,572.37c-1.8.82-3.58,1.62-5.36,2.42,1.78-.79,3.56-1.6,5.36-2.42Z"/>
      <path class="cls-4" d="M424.21,593.45c-.37-.65-.73-1.31-1.08-1.97.35.67.72,1.32,1.08,1.97Z"/>
      <path class="cls-4" d="M497.82,575.01c-1.72.77-3.43,1.52-5.13,2.27,1.7-.74,3.41-1.5,5.13-2.27Z"/>
      <path class="cls-4" d="M419.56,583.83c-.54-1.33-1.05-2.66-1.52-4,.47,1.34.98,2.68,1.52,4Z"/>
      <path class="cls-4" d="M426.54,597.4c-.53-.84-1.05-1.69-1.55-2.56.5.86,1.02,1.71,1.55,2.56Z"/>
      <path class="cls-4" d="M492.14,577.51c-1.69.74-3.37,1.46-5.03,2.17,1.67-.71,3.35-1.43,5.03-2.17Z"/>
      <path class="cls-4" d="M503.96,572.24c1.9-.87,3.8-1.74,5.71-2.64s3.81-1.79,5.69-2.68c-1.88.9-3.78,1.79-5.69,2.68-1.91.89-3.82,1.77-5.71,2.64Z"/>
      <path class="cls-4" d="M428.78,600.81c-.65-.93-1.27-1.88-1.89-2.85.61.96,1.24,1.91,1.89,2.85Z"/>
      <path class="cls-4" d="M531.9,558.79c-1.62.82-3.25,1.64-4.9,2.46,1.65-.82,3.28-1.64,4.9-2.46Z"/>
      <path class="cls-4" d="M435.09,492.58c.43-.49.86-.97,1.31-1.45-.44.48-.88.96-1.31,1.45Z"/>
      <path class="cls-4" d="M444.08,483.78c.48-.41.97-.82,1.46-1.22-.5.4-.98.81-1.46,1.22Z"/>
      <path class="cls-4" d="M413.45,542.73c.07-.79.15-1.58.24-2.36-.09.79-.17,1.57-.24,2.36Z"/>
      <path class="cls-4" d="M437.93,489.52c.45-.46.9-.92,1.36-1.38-.46.45-.91.91-1.36,1.38Z"/>
      <path class="cls-4" d="M555.59,482.08c.63.5,1.25,1.01,1.87,1.54-.62-.52-1.24-1.03-1.87-1.54Z"/>
      <path class="cls-4" d="M567.43,493.5c.56.66,1.13,1.32,1.67,1.99-.55-.68-1.11-1.33-1.67-1.99Z"/>
      <path class="cls-4" d="M440.93,486.59c.47-.44.94-.87,1.42-1.3-.48.43-.95.87-1.42,1.3Z"/>
      <path class="cls-4" d="M552.33,479.61c.65.47,1.29.95,1.92,1.43-.64-.49-1.27-.97-1.92-1.43Z"/>
      <path class="cls-4" d="M561.77,487.5c.6.58,1.19,1.16,1.77,1.75-.58-.59-1.17-1.17-1.77-1.75Z"/>
      <path class="cls-4" d="M454.6,476.14c.48-.3.96-.61,1.45-.9-.49.29-.97.6-1.45.9Z"/>
      <path class="cls-4" d="M447.41,481.1c.5-.38.99-.76,1.49-1.13-.51.37-1,.75-1.49,1.13Z"/>
      <path class="cls-4" d="M418.04,579.8c-.35-1-.67-2-.98-3,.31,1,.63,2.01.98,3Z"/>
      <path class="cls-4" d="M450.9,478.56c.5-.34.99-.7,1.5-1.03-.51.33-1,.69-1.5,1.03Z"/>
      <path class="cls-4" d="M413.99,563.36c-.12-.84-.22-1.67-.32-2.51.1.84.2,1.67.32,2.51Z"/>
      <path class="cls-4" d="M421.52,513.17c.29-.61.61-1.22.91-1.83-.3.61-.62,1.21-.91,1.83Z"/>
      <path class="cls-4" d="M458.59,473.82c.42-.23.83-.47,1.25-.7-.42.22-.83.47-1.25.7Z"/>
      <path class="cls-4" d="M419.86,516.91c.27-.65.57-1.29.86-1.93-.29.64-.59,1.28-.86,1.93Z"/>
      <path class="cls-4" d="M423.36,509.51c.31-.59.65-1.17.98-1.76-.33.58-.66,1.17-.98,1.76Z"/>
      <path class="cls-4" d="M413.49,559.22c-.08-.82-.14-1.65-.2-2.47.06.82.12,1.65.2,2.47Z"/>
      <g>
        <path class="cls-2" d="M576.56,563.35c-1.13.64-2.26,1.28-3.4,1.93-.25.14-.51.28-.76.43-1.04.59-2.09,1.17-3.14,1.76-.29.16-.59.32-.88.49-1.04.57-2.08,1.15-3.13,1.72-.29.16-.58.32-.88.48-1.09.6-2.19,1.19-3.29,1.78-.24.13-.48.26-.72.39-1.32.71-2.66,1.42-4,2.13-.01,0-.02.01-.03.02-2.75,1.45-5.52,2.9-8.33,4.34-.35.18-.7.36-1.05.54-1.01.52-2.03,1.04-3.05,1.55-.46.23-.92.46-1.38.7-.92.47-1.85.93-2.78,1.39-.51.25-1.01.5-1.52.76-.89.44-1.78.88-2.68,1.32-.53.26-1.05.52-1.58.77-.91.44-1.82.89-2.73,1.33-.51.24-1.01.49-1.52.73-.99.48-1.98.95-2.98,1.42-.43.2-.86.41-1.29.61-1.42.67-2.85,1.35-4.29,2.01-.29.14-.59.28-.88.41-.29.14-.59.27-.88.41-1.43.67-2.87,1.33-4.3,1.99-.43.2-.87.39-1.3.59-1,.46-2,.91-3,1.36-.51.23-1.03.46-1.54.69-.92.42-1.85.83-2.77,1.24-.54.24-1.07.48-1.61.71-.91.4-1.82.8-2.73,1.2-.52.23-1.04.45-1.56.68-.95.41-1.9.82-2.85,1.23-.48.2-.95.41-1.43.61-1.05.45-2.1.89-3.15,1.34-.36.15-.73.31-1.09.46-2.9,1.22-5.8,2.42-8.67,3.59-.01,0-.03.01-.04.02-1.4.57-2.8,1.13-4.19,1.69-.26.1-.51.2-.76.3-1.16.46-2.32.92-3.48,1.38l-.93.36c-1.11.43-2.22.86-3.32,1.29-.31.12-.63.24-.94.36-1.12.43-2.24.86-3.36,1.28-.27.1-.54.21-.82.31-1.22.46-2.44.91-3.66,1.36-.15.06-.3.11-.45.17-4.24,1.57-8.43,3.06-12.55,4.49.87.64,1.76,1.26,2.66,1.87.45.3.9.6,1.36.9.6.39,1.2.77,1.81,1.14.44.27.88.55,1.33.81.93.55,1.87,1.08,2.82,1.6.46.25.92.49,1.38.73.64.33,1.29.66,1.94.98.46.23.93.46,1.4.68.99.46,1.98.91,2.98,1.33.44.19.88.36,1.32.54.71.29,1.41.56,2.13.83.47.18.94.35,1.42.52,1.05.37,2.1.73,3.16,1.06.38.12.76.23,1.15.34.8.24,1.61.47,2.42.69.46.12.92.25,1.39.36.96.24,1.93.47,2.9.68.41.09.82.17,1.23.26.95.19,1.9.36,2.85.52.44.07.88.14,1.32.21.94.14,1.89.27,2.84.38.28.03.56.07.84.1,1.17.13,2.35.22,3.53.3.41.03.82.05,1.23.07.95.05,1.91.09,2.87.11.31,0,.61.02.92.02,1.2.01,2.41,0,3.62-.04.37-.01.73-.03,1.1-.05.98-.04,1.95-.1,2.93-.18.32-.02.64-.04.96-.07,1.23-.11,2.45-.24,3.68-.41.31-.04.62-.09.94-.14,1.01-.14,2.01-.31,3.01-.49.33-.06.65-.11.98-.18,1.24-.24,2.48-.5,3.72-.79.24-.06.48-.12.72-.18,1.05-.26,2.09-.54,3.14-.83.33-.09.66-.19.98-.28,1.24-.37,2.48-.76,3.72-1.19.15-.05.29-.11.44-.16,1.11-.39,2.22-.81,3.32-1.25.33-.13.65-.26.98-.39,1.23-.51,2.46-1.04,3.69-1.61h0c1.22-.57,2.42-1.17,3.6-1.79.31-.16.62-.33.93-.49,1.05-.56,2.08-1.14,3.09-1.74.13-.08.27-.15.41-.23,1.12-.67,2.22-1.37,3.3-2.08.29-.19.57-.38.85-.57.9-.61,1.78-1.23,2.65-1.87.2-.15.41-.29.61-.44,1.02-.76,2.01-1.54,2.99-2.34.26-.21.51-.43.77-.64.78-.65,1.55-1.32,2.31-2,.24-.21.47-.42.71-.63.91-.84,1.81-1.69,2.68-2.56.23-.23.45-.46.68-.69.69-.7,1.36-1.41,2.02-2.13.25-.27.5-.54.74-.81.81-.9,1.59-1.81,2.36-2.74.2-.24.38-.48.57-.72.6-.75,1.19-1.5,1.76-2.26.25-.33.49-.66.73-.99.7-.95,1.38-1.92,2.04-2.9.16-.23.3-.47.46-.71.52-.8,1.03-1.6,1.53-2.42.23-.38.46-.77.69-1.15.49-.83.97-1.67,1.43-2.51.2-.37.4-.74.6-1.12.46-.88.91-1.76,1.34-2.65.21-.43.41-.87.62-1.3.35-.76.69-1.52,1.02-2.29.16-.37.32-.73.48-1.1.43-1.03.83-2.06,1.21-3.1.18-.47.34-.95.51-1.42.25-.72.49-1.44.73-2.16.15-.45.3-.9.44-1.36.32-1.04.62-2.09.9-3.14.13-.5.26-1.01.38-1.51.17-.7.34-1.4.49-2.11.11-.51.23-1.02.33-1.53.21-1.06.41-2.12.59-3.19.08-.51.15-1.02.23-1.54.1-.71.2-1.41.29-2.12.07-.54.13-1.08.19-1.62.11-1.08.21-2.15.28-3.23-3.74,2.24-7.58,4.48-11.5,6.73-.14.08-.28.16-.41.24l-.09.02h0Z"/>
        <path class="cls-2" d="M578.49,509.72c-.67-1.28-1.38-2.53-2.1-3.76-.54-.91-1.11-1.8-1.68-2.69-.2-.31-.39-.63-.6-.94-.52-.8-1.07-1.57-1.62-2.34-.27-.38-.53-.77-.81-1.15-.53-.73-1.08-1.43-1.63-2.14-.31-.4-.62-.81-.94-1.21-.55-.68-1.11-1.33-1.67-1.99-.35-.4-.69-.81-1.04-1.2-.56-.63-1.14-1.25-1.72-1.87-.37-.4-.75-.79-1.13-1.18-.58-.59-1.17-1.17-1.77-1.75-.4-.38-.8-.77-1.21-1.14-.6-.56-1.21-1.1-1.82-1.64-.42-.37-.85-.74-1.28-1.1-.62-.52-1.24-1.03-1.87-1.54-.44-.35-.89-.7-1.34-1.04-.64-.49-1.27-.97-1.92-1.43-.46-.33-.93-.66-1.4-.98-.65-.45-1.31-.9-1.97-1.33-.48-.31-.97-.61-1.45-.92-.67-.42-1.34-.84-2.02-1.24-.49-.29-.99-.57-1.49-.85-.69-.39-1.37-.78-2.07-1.14-.5-.27-1.01-.51-1.52-.77-.71-.36-1.41-.72-2.12-1.05-.51-.24-1.02-.46-1.53-.69-.73-.33-1.45-.66-2.19-.97-.48-.2-.97-.38-1.46-.57-1.81-.72-3.64-1.38-5.5-1.97-.19-.06-.38-.13-.57-.19-.68-.21-1.37-.4-2.06-.59-.63-.18-1.25-.37-1.88-.54-.66-.17-1.33-.32-2-.48-.66-.16-1.32-.32-1.99-.47-.66-.14-1.32-.26-1.98-.38-.68-.13-1.36-.26-2.05-.38-.66-.11-1.32-.2-1.98-.29-.7-.1-1.4-.2-2.1-.28-.66-.08-1.31-.14-1.97-.2-.71-.07-1.42-.13-2.13-.18-.66-.05-1.31-.08-1.97-.11-.72-.03-1.44-.06-2.17-.08-.65,0-1.31-.02-1.96-.02-.73,0-1.46,0-2.19.03-.65.02-1.3.04-1.95.07-.74.04-1.48.08-2.22.13-.65.05-1.29.1-1.94.16-.75.07-1.49.16-2.24.25-.64.08-1.28.16-1.91.25-.76.11-1.51.24-2.27.37-.63.11-1.25.21-1.88.33-.77.15-1.54.32-2.31.49-.61.14-1.22.27-1.83.41-.79.19-1.58.41-2.36.63-.59.16-1.17.31-1.75.49-.83.25-1.65.52-2.47.79-.54.18-1.09.34-1.63.53-.91.32-1.82.67-2.72,1.03-.45.17-.9.33-1.34.51-1.35.55-2.69,1.13-4.02,1.75s-2.64,1.28-3.93,1.96c-.42.22-.83.47-1.25.7-.85.47-1.71.93-2.54,1.43-.49.29-.97.6-1.45.9-.74.46-1.48.91-2.19,1.38-.51.33-1,.69-1.5,1.03-.67.46-1.35.93-2,1.41-.51.37-1,.75-1.49,1.13-.63.48-1.25.96-1.86,1.45-.5.4-.98.81-1.46,1.22-.59.5-1.17.99-1.74,1.5-.48.43-.95.87-1.42,1.3-.55.51-1.1,1.03-1.63,1.56-.46.45-.91.91-1.36,1.38-.52.53-1.03,1.07-1.53,1.61-.44.48-.88.96-1.31,1.45-.49.55-.96,1.11-1.43,1.67-.42.5-.84,1-1.24,1.51-.45.57-.89,1.14-1.33,1.71-.4.52-.79,1.04-1.18,1.57-.42.58-.83,1.17-1.23,1.76-.37.54-.75,1.08-1.11,1.64-.39.59-.76,1.19-1.14,1.79-.35.56-.71,1.12-1.05,1.7-.36.6-.69,1.21-1.03,1.82-.33.58-.66,1.17-.98,1.76-.32.61-.62,1.22-.93,1.84-.3.61-.62,1.21-.91,1.83-.28.6-.54,1.21-.81,1.81-.29.64-.59,1.28-.86,1.93-.11.26-.2.52-.3.77-.7,1.73-1.34,3.48-1.93,5.25-.17.5-.35,1-.51,1.51-.24.76-.45,1.52-.66,2.28-.15.54-.32,1.08-.46,1.63-.2.76-.38,1.53-.56,2.29-.13.56-.27,1.11-.39,1.67-.17.77-.31,1.54-.45,2.31-.11.56-.22,1.13-.31,1.69-.13.78-.24,1.56-.35,2.34-.08.57-.16,1.14-.23,1.71-.09.79-.17,1.57-.24,2.36-.05.57-.1,1.14-.15,1.71-.06.8-.1,1.59-.14,2.39-.03.57-.05,1.13-.06,1.7-.02.8-.03,1.61-.03,2.42,0,.56,0,1.12.02,1.69.02.81.04,1.63.08,2.44.03.56.06,1.11.1,1.67.06.82.12,1.65.2,2.47.05.54.12,1.09.18,1.63.1.84.2,1.67.32,2.51.08.53.17,1.05.25,1.58.14.85.28,1.71.45,2.56.1.5.21,1,.32,1.5.19.87.37,1.75.59,2.62.11.46.24.91.36,1.37.24.91.48,1.83.75,2.74.11.36.23.72.34,1.08.31,1,.63,2.01.98,3h0v.02c.47,1.34.98,2.68,1.52,4,.54,1.34,1.12,2.67,1.74,4,.58,1.24,1.19,2.45,1.82,3.65.35.67.72,1.32,1.08,1.97.26.47.52.94.79,1.4.5.86,1.02,1.71,1.55,2.56.12.19.23.37.35.56.61.96,1.24,1.91,1.89,2.85h0c5.19-1.42,10.89-3.17,17-5.23.03-.01.06-.02.1-.03,1.48-.5,2.99-1.02,4.52-1.55.07-.02.13-.05.2-.07,1.51-.53,3.04-1.07,4.59-1.63.08-.03.16-.06.24-.09,1.56-.56,3.14-1.14,4.74-1.74.06-.02.12-.05.18-.07,1.64-.61,3.3-1.24,4.98-1.88.02,0,.03-.01.05-.02,3.41-1.31,6.9-2.69,10.45-4.13.06-.02.12-.05.18-.07,1.7-.69,3.41-1.39,5.14-2.11.14-.06.27-.11.41-.17,1.66-.69,3.34-1.4,5.03-2.12.17-.07.35-.15.52-.22,1.67-.71,3.35-1.43,5.03-2.17.18-.08.36-.16.54-.24,1.7-.74,3.41-1.5,5.13-2.27.16-.07.33-.14.49-.22,1.78-.79,3.56-1.6,5.36-2.42.1-.04.2-.09.29-.13,1.9-.87,3.8-1.74,5.71-2.64,1.91-.89,3.81-1.79,5.69-2.68.1-.05.19-.09.29-.14,1.78-.85,3.55-1.7,5.3-2.55.16-.08.32-.16.48-.23,1.69-.83,3.37-1.65,5.04-2.48.18-.09.35-.18.53-.26,1.65-.82,3.28-1.64,4.9-2.46.17-.09.34-.17.51-.26,1.64-.83,3.26-1.66,4.86-2.49.13-.07.26-.14.39-.2,1.66-.86,3.3-1.72,4.92-2.58.06-.03.11-.06.17-.09,3.39-1.8,6.69-3.58,9.88-5.35.02,0,.03-.02.05-.03,1.57-.87,3.12-1.74,4.65-2.6.06-.03.11-.06.17-.09,1.49-.84,2.95-1.68,4.38-2.51.07-.04.14-.08.21-.12,1.43-.83,2.83-1.65,4.2-2.47.06-.03.12-.07.18-.1,1.39-.83,2.76-1.65,4.1-2.47.03-.02.06-.03.08-.05,5.5-3.36,10.51-6.6,14.93-9.66-.3-1.1-.62-2.19-.97-3.28-.06-.21-.13-.41-.2-.62-.31-.95-.62-1.89-.96-2.83-.18-.5-.37-1-.56-1.49-.27-.7-.53-1.4-.82-2.1-.51-1.25-1.05-2.49-1.62-3.72v-.02c-.13-.28-.28-.55-.41-.82-.5-1.04-1-2.07-1.53-3.08l-.03-.04h0Z"/>
        <path class="cls-2" d="M656.78,488.25c-10.24-6.03-22.58,2.72-49.62-3.51-5.89-1.36-11.98-4.83-18.58-9.26-16.42-11.05-35.94-28.1-63.07-33.55-3.74-.69-7.53-1.2-11.34-1.53-19.86-1.7-40.43,1.61-59.79,10.64-19.75,9.21-35.74,23.19-47.26,39.93-1.82,2.64-3.53,5.36-5.12,8.13-13.59,24.45-13.05,50.62-15.16,70.46-.84,7.9-2.1,14.79-4.85,20.17-12.61,24.71-27.25,28.54-29.21,40.26-2.68,16.01,36.05,11.37,87.91-5.75,27.36,22.35,66.15,28.49,100.31,12.56,34.16-15.93,54.4-49.59,54.86-84.91,46.45-28.72,74.9-55.4,60.91-63.65h.01ZM396.86,602.61c-1.62-3.48,4.09-10.06,15.12-18.41.85,2.24,1.78,4.47,2.81,6.67,1.94,4.15,4.14,8.1,6.57,11.83-13.87,3.23-22.85,3.44-24.5-.09ZM588.21,559.63c-.06.54-.12,1.08-.19,1.62-.09.71-.18,1.42-.29,2.12-.08.51-.14,1.03-.23,1.54-.18,1.07-.37,2.13-.59,3.19-.1.51-.22,1.02-.33,1.53-.16.71-.32,1.41-.49,2.11-.12.5-.25,1.01-.38,1.51-.28,1.05-.58,2.1-.9,3.14-.14.46-.29.91-.44,1.36-.23.72-.48,1.44-.73,2.16-.17.48-.34.95-.51,1.42-.39,1.04-.79,2.08-1.21,3.1-.15.37-.32.73-.48,1.1-.33.77-.67,1.53-1.02,2.29-.2.43-.41.87-.62,1.3-.43.89-.88,1.77-1.34,2.65-.2.37-.4.75-.6,1.12-.46.85-.94,1.68-1.43,2.51-.23.39-.46.77-.69,1.15-.5.81-1.01,1.62-1.53,2.42-.15.24-.3.48-.46.71-.66.98-1.34,1.94-2.04,2.9-.24.33-.49.66-.73.99-.57.76-1.16,1.52-1.76,2.26-.19.24-.38.48-.57.72-.76.93-1.55,1.84-2.36,2.74-.24.27-.49.54-.74.81-.66.72-1.33,1.43-2.02,2.13-.23.23-.45.46-.68.69-.87.87-1.76,1.72-2.68,2.56-.23.21-.47.42-.71.63-.76.68-1.53,1.34-2.31,2-.26.21-.51.43-.77.64-.98.8-1.97,1.58-2.99,2.34-.2.15-.41.29-.61.44-.87.64-1.76,1.26-2.65,1.87-.28.19-.57.38-.85.57-1.08.71-2.18,1.41-3.3,2.08-.13.08-.27.16-.41.23-1.01.6-2.05,1.18-3.09,1.74-.31.17-.62.33-.93.49-1.18.62-2.38,1.22-3.6,1.79h0c-1.22.57-2.45,1.1-3.69,1.61-.32.13-.65.26-.98.39-1.1.44-2.21.86-3.32,1.25-.15.05-.29.11-.44.16-1.23.43-2.47.82-3.72,1.19-.33.1-.66.19-.98.28-1.04.3-2.09.58-3.14.83-.24.06-.48.12-.72.18-1.24.29-2.47.55-3.72.79-.33.06-.65.12-.98.18-1,.18-2.01.34-3.01.49-.31.04-.62.09-.94.14-1.23.16-2.45.3-3.68.41-.32.03-.64.05-.96.07-.98.08-1.95.14-2.93.18-.37.02-.73.03-1.1.05-1.21.04-2.42.05-3.62.04-.31,0-.61-.02-.92-.02-.96-.02-1.91-.06-2.87-.11-.41-.02-.82-.04-1.23-.07-1.18-.08-2.36-.18-3.53-.3-.28-.03-.56-.07-.84-.1-.95-.11-1.9-.24-2.84-.38-.44-.07-.88-.14-1.32-.21-.95-.16-1.9-.33-2.85-.52-.41-.08-.82-.17-1.23-.26-.97-.21-1.93-.44-2.9-.68-.46-.12-.93-.24-1.39-.36-.81-.22-1.61-.45-2.42-.69-.38-.11-.77-.22-1.15-.34-1.06-.33-2.11-.69-3.16-1.06-.47-.17-.94-.35-1.42-.52-.71-.27-1.42-.55-2.13-.83-.44-.18-.88-.35-1.32-.54-1-.43-2-.87-2.98-1.33-.47-.22-.93-.45-1.4-.68-.65-.32-1.29-.64-1.94-.98-.46-.24-.92-.48-1.38-.73-.95-.52-1.89-1.05-2.82-1.6-.45-.26-.88-.54-1.33-.81-.61-.37-1.21-.75-1.81-1.14-.46-.3-.91-.59-1.36-.9-.9-.61-1.78-1.23-2.66-1.87,4.12-1.42,8.3-2.92,12.55-4.49.15-.06.3-.11.45-.17,1.21-.45,2.43-.9,3.66-1.36.27-.1.54-.21.82-.31,1.12-.42,2.24-.85,3.36-1.28.31-.12.63-.24.94-.36,1.11-.43,2.21-.86,3.32-1.29l.93-.36c1.16-.45,2.32-.91,3.48-1.38.25-.1.51-.2.76-.3,1.39-.56,2.79-1.12,4.19-1.69.01,0,.03-.01.04-.02,2.88-1.17,5.77-2.37,8.67-3.59.36-.15.73-.31,1.09-.46,1.05-.44,2.1-.89,3.15-1.34.47-.2.95-.41,1.43-.61.95-.41,1.9-.82,2.85-1.23.52-.23,1.04-.45,1.56-.68.91-.4,1.82-.8,2.73-1.2.54-.24,1.07-.47,1.61-.71.92-.41,1.85-.82,2.77-1.24.51-.23,1.03-.46,1.54-.69,1-.45,2-.91,3-1.36.43-.2.87-.39,1.3-.59,1.43-.66,2.87-1.32,4.3-1.99.29-.14.59-.27.88-.41s.58-.28.88-.41c1.43-.67,2.86-1.34,4.29-2.01.43-.2.86-.41,1.29-.61.99-.47,1.99-.95,2.98-1.42.51-.24,1.01-.49,1.52-.73.91-.44,1.82-.88,2.73-1.33.53-.26,1.05-.52,1.58-.77.9-.44,1.79-.88,2.68-1.32.51-.25,1.01-.5,1.52-.76.93-.46,1.85-.93,2.78-1.39.46-.23.92-.46,1.38-.7,1.02-.52,2.04-1.04,3.05-1.55.35-.18.7-.36,1.05-.54,2.8-1.44,5.58-2.89,8.33-4.34.01,0,.02-.01.03-.02,1.34-.71,2.67-1.42,4-2.13.24-.13.48-.26.72-.39,1.1-.59,2.2-1.19,3.29-1.78.29-.16.58-.32.88-.48,1.05-.57,2.09-1.15,3.13-1.72.29-.16.59-.32.88-.49,1.05-.58,2.1-1.17,3.14-1.76.25-.14.51-.28.76-.43,1.14-.64,2.27-1.28,3.4-1.93.14-.08.28-.16.41-.24,3.93-2.24,7.77-4.49,11.5-6.73-.07,1.08-.17,2.16-.28,3.23l.09-.02h0ZM580.44,513.65c.57,1.23,1.11,2.47,1.62,3.72.29.7.55,1.4.82,2.1.19.5.38.99.56,1.49.34.94.66,1.89.96,2.83.07.21.13.41.2.62.34,1.09.67,2.19.97,3.28-4.43,3.06-9.43,6.3-14.93,9.66-.03.02-.06.03-.08.05-1.34.82-2.7,1.64-4.1,2.47-.06.03-.12.07-.18.1-1.37.82-2.77,1.64-4.2,2.47-.07.04-.14.08-.21.12-1.43.83-2.89,1.67-4.38,2.51-.06.03-.11.06-.17.09-1.52.86-3.07,1.73-4.65,2.6-.02,0-.03.02-.05.03-3.19,1.77-6.49,3.56-9.88,5.35-.06.03-.11.06-.17.09-1.62.86-3.26,1.72-4.92,2.58-.13.07-.26.14-.39.2-1.6.83-3.22,1.66-4.86,2.49-.17.09-.34.17-.51.26-1.62.82-3.25,1.64-4.9,2.46-.18.09-.35.18-.53.26-1.66.83-3.34,1.65-5.04,2.48-.16.08-.32.16-.48.23-1.75.85-3.52,1.7-5.3,2.55-.1.05-.19.09-.29.14-1.88.9-3.78,1.79-5.69,2.68-1.91.89-3.82,1.77-5.71,2.64-.1.04-.2.09-.29.13-1.8.82-3.58,1.62-5.36,2.42-.16.07-.33.15-.49.22-1.72.77-3.43,1.52-5.13,2.27-.18.08-.36.16-.54.24-1.69.74-3.37,1.46-5.03,2.17-.17.07-.35.15-.52.22-1.69.72-3.36,1.42-5.03,2.12-.14.06-.27.11-.41.17-1.73.72-3.44,1.42-5.14,2.11-.06.02-.12.05-.18.07-3.56,1.44-7.04,2.82-10.45,4.13-.02,0-.03.01-.05.02-1.68.65-3.34,1.27-4.98,1.88-.06.02-.12.05-.18.07-1.6.6-3.18,1.18-4.74,1.74-.08.03-.16.06-.24.09-1.55.56-3.08,1.1-4.59,1.63-.07.02-.13.05-.2.07-1.53.53-3.04,1.05-4.52,1.55-.03.01-.06.02-.1.03-6.11,2.05-11.81,3.8-17,5.23h0c-.65-.93-1.28-1.88-1.89-2.85-.12-.18-.23-.37-.35-.56-.53-.84-1.05-1.69-1.55-2.56-.27-.46-.52-.93-.79-1.4-.36-.65-.73-1.3-1.08-1.97-.63-1.2-1.24-2.41-1.82-3.65-.62-1.32-1.2-2.66-1.74-4-.54-1.33-1.05-2.66-1.52-4v-.02h0c-.35-1-.67-2-.98-3-.11-.36-.24-.72-.34-1.08-.27-.91-.51-1.83-.75-2.74-.12-.46-.25-.91-.36-1.37-.21-.87-.4-1.75-.59-2.62-.11-.5-.22-1-.32-1.5-.17-.85-.31-1.7-.45-2.56-.09-.53-.18-1.05-.25-1.58-.12-.84-.22-1.67-.32-2.51-.06-.54-.13-1.09-.18-1.63-.08-.82-.14-1.65-.2-2.47-.04-.56-.07-1.11-.1-1.67-.04-.82-.07-1.63-.08-2.44-.01-.56-.02-1.13-.02-1.69,0-.81,0-1.61.03-2.42.01-.57.04-1.14.06-1.7.04-.8.08-1.59.14-2.39.04-.57.09-1.14.15-1.71.07-.79.15-1.58.24-2.36.07-.57.15-1.14.23-1.71.11-.78.22-1.56.35-2.34.09-.57.21-1.13.31-1.69.14-.77.29-1.54.45-2.31.12-.56.26-1.11.39-1.67.18-.77.36-1.53.56-2.29.14-.55.31-1.09.46-1.63.22-.76.43-1.53.66-2.28.16-.51.34-1.01.51-1.51.59-1.77,1.23-3.52,1.93-5.25.1-.26.2-.52.3-.77.27-.65.57-1.29.86-1.93.27-.6.53-1.21.81-1.81.29-.62.61-1.22.91-1.83.31-.61.61-1.23.93-1.84.31-.59.65-1.17.98-1.76.34-.61.68-1.22,1.03-1.82.34-.57.69-1.13,1.05-1.7.37-.6.75-1.2,1.14-1.79.36-.55.74-1.09,1.11-1.64.41-.59.81-1.18,1.23-1.76.39-.53.78-1.05,1.18-1.57.44-.58.88-1.15,1.33-1.71.41-.51.82-1.01,1.24-1.51.47-.56.95-1.12,1.43-1.67.43-.49.86-.97,1.31-1.45.5-.54,1.01-1.08,1.53-1.61.45-.46.9-.92,1.36-1.38.54-.53,1.08-1.05,1.63-1.56.47-.44.94-.87,1.42-1.3.57-.51,1.15-1.01,1.74-1.5.49-.41.97-.82,1.46-1.22.61-.49,1.23-.97,1.86-1.45.5-.38.99-.76,1.49-1.13.66-.48,1.33-.94,2-1.41.5-.34.99-.7,1.5-1.03.72-.48,1.46-.93,2.19-1.38.48-.3.96-.61,1.45-.9.83-.49,1.69-.96,2.54-1.43.42-.23.83-.47,1.25-.7,1.29-.68,2.6-1.33,3.93-1.96,1.33-.62,2.68-1.2,4.02-1.75.44-.18.89-.34,1.34-.51.91-.35,1.81-.71,2.72-1.03.54-.19,1.08-.36,1.63-.53.82-.27,1.64-.54,2.47-.79.58-.17,1.17-.33,1.75-.49.79-.22,1.57-.43,2.36-.63.61-.15,1.22-.28,1.83-.41.77-.17,1.54-.34,2.31-.49.63-.12,1.25-.23,1.88-.33.76-.13,1.51-.26,2.27-.37.64-.09,1.28-.17,1.91-.25.75-.09,1.49-.18,2.24-.25.65-.06,1.29-.11,1.94-.16.74-.05,1.48-.1,2.22-.13.65-.03,1.3-.06,1.95-.07.73-.02,1.46-.03,2.19-.03.65,0,1.31,0,1.96.02.72.02,1.44.05,2.17.08.66.03,1.31.06,1.97.11.71.05,1.42.12,2.13.18.66.06,1.32.12,1.97.2.7.08,1.4.18,2.1.28.66.09,1.32.18,1.98.29.69.11,1.37.25,2.05.38.66.13,1.33.24,1.98.38.67.14,1.33.31,1.99.47.67.16,1.34.31,2,.48.63.17,1.25.36,1.88.54.69.2,1.38.38,2.06.59.19.06.38.13.57.19,1.86.59,3.69,1.26,5.5,1.97.48.19.98.37,1.46.57.74.31,1.46.64,2.19.97.51.23,1.03.45,1.53.69.71.34,1.42.7,2.12,1.05.51.26,1.02.5,1.52.77.7.37,1.38.76,2.07,1.14.5.28,1,.56,1.49.85.68.4,1.35.82,2.02,1.24.48.3.97.6,1.45.92.66.43,1.32.88,1.97,1.33.47.32.94.65,1.4.98.65.47,1.29.95,1.92,1.43.45.34.9.69,1.34,1.04.63.5,1.25,1.01,1.87,1.54.43.36.85.73,1.28,1.1.61.54,1.22,1.08,1.82,1.64.41.38.81.76,1.21,1.14.6.58,1.19,1.16,1.77,1.75.38.39.75.78,1.13,1.18.58.61,1.16,1.23,1.72,1.87.35.4.7.8,1.04,1.2.56.66,1.13,1.32,1.67,1.99.32.4.63.8.94,1.21.55.71,1.1,1.41,1.63,2.14.28.38.54.77.81,1.15.55.77,1.1,1.55,1.62,2.34.2.31.4.63.6.94.57.89,1.14,1.78,1.68,2.69.73,1.23,1.43,2.48,2.1,3.76.53,1.01,1.04,2.04,1.53,3.08.13.28.28.54.41.82v.02l.03.04h0ZM591.79,523.23c-1.3-4.26-2.9-8.49-4.84-12.64-1.03-2.21-2.13-4.35-3.3-6.44,13.48-3.08,22.2-3.22,23.82.25,1.65,3.54-4.28,10.28-15.68,18.83h0Z"/>
      </g>
      <path class="cls-4" d="M414.59,534.63c.14-.77.29-1.55.45-2.31-.17.77-.31,1.54-.45,2.31Z"/>
      <path class="cls-4" d="M415.43,530.65c.18-.77.36-1.53.56-2.29-.2.76-.38,1.53-.56,2.29Z"/>
      <path class="cls-4" d="M429.9,499.05c.39-.53.78-1.05,1.18-1.57-.4.52-.79,1.04-1.18,1.57Z"/>
      <path class="cls-4" d="M564.67,490.43c.58.61,1.16,1.23,1.72,1.87-.56-.63-1.14-1.25-1.72-1.87Z"/>
      <path class="cls-4" d="M413.93,538.66c.11-.78.22-1.56.35-2.34-.13.78-.24,1.56-.35,2.34Z"/>
      <path class="cls-4" d="M432.42,495.76c.41-.51.82-1.01,1.24-1.51-.42.5-.84,1-1.24,1.51Z"/>
      <path class="cls-4" d="M427.56,502.44c.36-.55.74-1.09,1.11-1.64-.37.54-.75,1.08-1.11,1.64Z"/>
      <path class="cls-4" d="M414.69,567.5c-.17-.85-.31-1.7-.45-2.56.14.85.28,1.71.45,2.56Z"/>
      <path class="cls-4" d="M558.74,484.72c.61.54,1.22,1.08,1.82,1.64-.6-.56-1.21-1.1-1.82-1.64Z"/>
      <path class="cls-4" d="M425.37,505.93c.34-.57.69-1.13,1.05-1.7-.35.56-.71,1.12-1.05,1.7Z"/>
      <path class="cls-4" d="M416.45,526.72c.22-.76.43-1.53.66-2.28-.24.76-.45,1.52-.66,2.28Z"/>
      <path class="cls-4" d="M541.93,473.14c.7.37,1.38.76,2.07,1.14-.69-.39-1.37-.78-2.07-1.14Z"/>
      <path class="cls-4" d="M509.03,463.33c.66.06,1.32.12,1.97.2-.66-.08-1.31-.14-1.97-.2Z"/>
      <path class="cls-4" d="M513.1,463.81c.66.09,1.32.18,1.98.29-.66-.11-1.32-.2-1.98-.29Z"/>
      <path class="cls-4" d="M467.79,469.41c.44-.18.89-.34,1.34-.51-.45.17-.9.33-1.34.51Z"/>
      <path class="cls-4" d="M570.05,496.7c.55.71,1.1,1.41,1.63,2.14-.53-.73-1.08-1.43-1.63-2.14Z"/>
      <path class="cls-4" d="M416.71,575.73c-.27-.91-.51-1.83-.75-2.74.24.91.48,1.83.75,2.74Z"/>
      <path class="cls-4" d="M517.13,464.48c.66.13,1.33.24,1.98.38-.66-.14-1.32-.26-1.98-.38Z"/>
      <path class="cls-4" d="M415.6,571.62c-.21-.87-.4-1.75-.59-2.62.19.87.37,1.75.59,2.62Z"/>
      <path class="cls-4" d="M572.49,499.99c.55.77,1.1,1.55,1.62,2.34-.52-.8-1.07-1.57-1.62-2.34Z"/>
      <path class="cls-4" d="M534.57,469.67c.74.31,1.46.64,2.19.97-.73-.33-1.45-.66-2.19-.97Z"/>
      <path class="cls-4" d="M500.8,462.94c.65,0,1.31,0,1.96.02-.65,0-1.31-.02-1.96-.02Z"/>
      <path class="cls-4" d="M538.29,471.32c.71.34,1.42.7,2.12,1.05-.71-.36-1.41-.72-2.12-1.05Z"/>
      <path class="cls-4" d="M524.98,466.34c.69.2,1.38.38,2.06.59-.68-.21-1.37-.4-2.06-.59Z"/>
      <path class="cls-4" d="M521.1,465.32c.67.16,1.34.31,2,.48-.66-.17-1.33-.32-2-.48Z"/>
      <path class="cls-4" d="M413.19,555.08c-.04-.82-.07-1.63-.08-2.44.02.81.04,1.63.08,2.44Z"/>
      <path class="cls-4" d="M504.93,463.04c.66.03,1.31.06,1.97.11-.66-.05-1.31-.08-1.97-.11Z"/>
      <path class="cls-4" d="M480.07,465.43c.61-.15,1.22-.28,1.83-.41-.61.14-1.22.27-1.83.41Z"/>
      <path class="cls-4" d="M484.2,464.53c.63-.12,1.25-.23,1.88-.33-.63.11-1.25.21-1.88.33Z"/>
      <path class="cls-4" d="M419.56,517.68c-.7,1.73-1.34,3.48-1.93,5.25.59-1.77,1.23-3.52,1.93-5.25Z"/>
      <path class="cls-4" d="M413.17,546.83c.04-.8.08-1.59.14-2.39-.06.8-.1,1.59-.14,2.39Z"/>
      <path class="cls-4" d="M548.96,477.29c.66.43,1.32.88,1.97,1.33-.65-.45-1.31-.9-1.97-1.33Z"/>
      <path class="cls-4" d="M475.95,466.55c.58-.17,1.17-.33,1.75-.49-.59.16-1.17.31-1.75.49Z"/>
      <path class="cls-4" d="M471.85,467.87c.54-.19,1.08-.36,1.63-.53-.54.18-1.09.34-1.63.53Z"/>
      <path class="cls-4" d="M545.5,475.13c.68.4,1.35.82,2.02,1.24-.67-.42-1.34-.84-2.02-1.24Z"/>
      <path class="cls-4" d="M492.51,463.33c.65-.06,1.29-.11,1.94-.16-.65.05-1.29.1-1.94.16Z"/>
      <path class="cls-4" d="M413.08,550.94c0-.81,0-1.61.03-2.42-.02.8-.03,1.61-.03,2.42Z"/>
      <path class="cls-4" d="M496.66,463.04c.65-.03,1.3-.06,1.95-.07-.65.02-1.3.04-1.95.07Z"/>
      <path class="cls-4" d="M488.35,463.83c.64-.09,1.28-.17,1.91-.25-.64.08-1.28.16-1.91.25Z"/>
      <path class="cls-4" d="M576.39,505.97h0c-.54-.91-1.11-1.8-1.68-2.69.57.89,1.14,1.78,1.68,2.69h0Z"/>
      <path class="cls-4" d="M533.11,469.1c-1.81-.72-3.64-1.38-5.5-1.97,1.86.59,3.69,1.26,5.5,1.97Z"/>
      <path d="M454.71,625.39c-.61-.37-1.21-.75-1.81-1.14.6.39,1.2.77,1.81,1.14Z"/>
      <path d="M507.69,638.26c-.98.08-1.95.14-2.93.18.98-.04,1.95-.1,2.93-.18Z"/>
      <path d="M568.65,606.54c-.76.93-1.55,1.84-2.36,2.74.81-.9,1.59-1.81,2.36-2.74Z"/>
      <path d="M565.55,610.09c-.66.72-1.33,1.43-2.02,2.13.69-.7,1.36-1.41,2.02-2.13Z"/>
      <path d="M570.99,603.55c-.57.76-1.16,1.52-1.76,2.26.6-.75,1.19-1.5,1.76-2.26Z"/>
      <path d="M573.76,599.67c-.66.98-1.34,1.94-2.04,2.9.7-.95,1.38-1.92,2.04-2.9Z"/>
      <path d="M556.4,618.74c-.98.8-1.97,1.58-2.99,2.34,1.02-.76,2.01-1.54,2.99-2.34Z"/>
      <path d="M552.8,621.51c-.87.64-1.76,1.26-2.65,1.87.9-.61,1.78-1.23,2.65-1.87Z"/>
      <path d="M562.86,612.91c-.87.87-1.76,1.72-2.68,2.56.91-.84,1.81-1.69,2.68-2.56Z"/>
      <path d="M575.75,596.54c-.5.81-1.01,1.62-1.53,2.42.52-.8,1.03-1.6,1.53-2.42Z"/>
      <path d="M559.48,616.1c-.76.68-1.53,1.34-2.31,2,.78-.65,1.55-1.32,2.31-2Z"/>
      <path d="M579.81,589.11c-.43.89-.88,1.77-1.34,2.65.46-.88.91-1.76,1.34-2.65Z"/>
      <path d="M577.87,592.88c-.46.85-.94,1.68-1.43,2.51.49-.83.97-1.67,1.43-2.51Z"/>
      <path d="M587.5,564.9c-.18,1.07-.37,2.13-.59,3.19.21-1.06.41-2.12.59-3.19Z"/>
      <path d="M586.59,569.62c-.16.71-.32,1.41-.49,2.11.17-.7.34-1.4.49-2.11Z"/>
      <path d="M588.02,561.24c-.09.71-.18,1.42-.29,2.12.1-.71.2-1.41.29-2.12Z"/>
      <path d="M585.71,573.23c-.28,1.05-.58,2.1-.9,3.14.32-1.04.62-2.09.9-3.14Z"/>
      <path d="M549.3,623.95c-1.08.71-2.18,1.41-3.3,2.08,1.12-.67,2.22-1.37,3.3-2.08Z"/>
      <path d="M581.45,585.52c-.33.77-.67,1.53-1.02,2.29.35-.76.69-1.52,1.02-2.29Z"/>
      <path d="M583.14,581.32c-.39,1.04-.79,2.08-1.21,3.1.43-1.03.83-2.06,1.21-3.1Z"/>
      <path d="M584.38,577.74c-.23.72-.48,1.44-.73,2.16.25-.72.49-1.44.73-2.16Z"/>
      <path d="M533.31,632.29c-1.1.44-2.21.86-3.32,1.25,1.11-.39,2.22-.81,3.32-1.25Z"/>
      <path d="M478.14,635.51c-.81-.22-1.61-.45-2.42-.69.8.24,1.61.47,2.42.69Z"/>
      <path d="M482.43,636.55c-.97-.21-1.93-.44-2.9-.68.96.24,1.93.47,2.9.68Z"/>
      <path d="M490.67,637.92c-.95-.11-1.9-.24-2.84-.38.94.14,1.89.27,2.84.38Z"/>
      <path d="M545.59,626.27c-1.01.6-2.05,1.18-3.09,1.74,1.05-.56,2.08-1.14,3.09-1.74Z"/>
      <path d="M462.17,629.51c-.65-.32-1.29-.65-1.94-.98.64.33,1.29.66,1.94.98Z"/>
      <path d="M466.56,631.52c-1-.43-2-.87-2.98-1.33.99.46,1.98.91,2.98,1.33Z"/>
      <path d="M474.58,634.48c-1.06-.33-2.11-.69-3.16-1.06,1.05.37,2.1.73,3.16,1.06Z"/>
      <path d="M499.13,638.5c-.96-.02-1.91-.06-2.87-.11.95.05,1.91.09,2.87.11Z"/>
      <path d="M470.01,632.89c-.71-.27-1.42-.55-2.13-.83.71.29,1.41.56,2.13.83Z"/>
      <path d="M495.04,638.33c-1.18-.08-2.36-.18-3.53-.3,1.17.13,2.35.22,3.53.3Z"/>
      <path d="M458.86,627.8c-.95-.52-1.89-1.05-2.82-1.6.93.55,1.87,1.08,2.82,1.6Z"/>
      <path d="M503.67,638.48c-1.21.04-2.42.05-3.62.04,1.2.01,2.41,0,3.62-.04Z"/>
      <path d="M537.97,630.29h0c-1.22.57-2.45,1.1-3.69,1.61,1.23-.51,2.46-1.04,3.69-1.61Z"/>
      <path d="M541.57,628.5c-1.18.62-2.38,1.22-3.6,1.79,1.22-.57,2.42-1.17,3.6-1.79Z"/>
      <path d="M529.55,633.7c-1.23.43-2.47.82-3.72,1.19,1.24-.37,2.48-.76,3.72-1.19Z"/>
      <path d="M516.29,637.16c-1,.18-2.01.34-3.01.49,1.01-.14,2.01-.31,3.01-.49Z"/>
      <path d="M524.85,635.18c-1.04.3-2.09.58-3.14.83,1.05-.26,2.09-.54,3.14-.83Z"/>
      <path d="M512.34,637.78c-1.23.16-2.45.3-3.68.41,1.23-.11,2.45-.24,3.68-.41Z"/>
      <path d="M520.99,636.19c-1.24.29-2.48.55-3.72.79,1.24-.24,2.48-.5,3.72-.79Z"/>
      <path d="M486.51,637.33c-.95-.16-1.9-.33-2.85-.52.95.19,1.9.36,2.85.52Z"/>
      <path d="M588.21,559.63c.11-1.08.21-2.15.28-3.23h0c-.07,1.08-.17,2.16-.28,3.23Z"/>
      <path d="M448.89,621.48c.87.64,1.76,1.26,2.66,1.87-.9-.61-1.78-1.23-2.66-1.87h0Z"/>
      <path d="M576.98,563.12c-.14.08-.28.16-.41.24-1.13.64-2.26,1.28-3.4,1.93-.25.14-.51.28-.76.43-1.04.59-2.09,1.17-3.14,1.76-.29.16-.59.32-.88.49-1.04.57-2.08,1.15-3.13,1.72-.29.16-.58.32-.88.48-1.09.6-2.19,1.19-3.29,1.78-.24.13-.48.26-.72.39-1.32.71-2.66,1.42-4,2.13-.01,0-.02.01-.03.02-2.75,1.45-5.52,2.9-8.33,4.34-.35.18-.7.36-1.05.54-1.01.52-2.03,1.04-3.05,1.55-.46.23-.92.46-1.38.7-.92.47-1.85.93-2.78,1.39-.51.25-1.01.5-1.52.76-.89.44-1.78.88-2.68,1.32-.53.26-1.05.52-1.58.77-.91.44-1.82.89-2.73,1.33-.51.24-1.01.49-1.52.73-.99.48-1.98.95-2.98,1.42-.43.2-.86.41-1.29.61-1.42.67-2.85,1.35-4.28,2.01-.29.14-.59.28-.88.41-.29.14-.59.27-.88.41-1.43.67-2.87,1.33-4.3,1.99-.43.2-.87.39-1.3.59-1,.46-2,.91-3,1.36-.51.23-1.03.46-1.54.69-.92.42-1.85.83-2.77,1.24-.54.24-1.07.48-1.61.71-.91.4-1.82.8-2.73,1.2-.52.23-1.04.45-1.56.68-.95.41-1.9.82-2.85,1.23-.48.2-.95.41-1.43.61-1.05.45-2.1.89-3.15,1.34-.36.15-.73.31-1.09.46-2.9,1.22-5.8,2.42-8.67,3.59-.01,0-.03.01-.04.02-1.4.57-2.8,1.13-4.19,1.69-.26.1-.51.2-.76.3-1.16.46-2.32.92-3.48,1.38l-.93.36c-1.11.43-2.22.86-3.32,1.29-.31.12-.63.24-.94.36-1.12.43-2.24.86-3.36,1.28-.27.1-.54.21-.82.31-1.22.46-2.44.91-3.66,1.36-.15.06-.3.11-.45.17-4.24,1.57-8.43,3.06-12.55,4.49.87.64,1.76,1.26,2.66,1.87.45.3.9.6,1.36.9.6.39,1.2.77,1.81,1.14.44.27.88.55,1.33.81.93.55,1.87,1.08,2.82,1.6.46.25.92.49,1.38.73.64.33,1.29.66,1.94.98.46.23.93.46,1.4.68.99.46,1.98.91,2.98,1.33.44.19.88.36,1.32.54.71.29,1.41.56,2.13.83.47.18.94.35,1.42.52,1.05.37,2.1.73,3.16,1.06.38.12.76.23,1.15.34.8.24,1.61.47,2.42.69.46.12.92.25,1.39.36.96.24,1.93.47,2.9.68.41.09.82.17,1.23.26.95.19,1.9.36,2.85.52.44.07.88.14,1.32.21.94.14,1.89.27,2.84.38.28.03.56.07.84.1,1.17.13,2.35.22,3.53.3.41.03.82.05,1.23.07.95.05,1.91.09,2.87.11.31,0,.61.02.92.02,1.2.01,2.41,0,3.62-.04.37-.01.73-.03,1.1-.05.98-.04,1.95-.1,2.93-.18.32-.02.64-.04.96-.07,1.23-.11,2.45-.24,3.68-.41.31-.04.62-.09.94-.14,1.01-.14,2.01-.31,3.01-.49.33-.06.65-.11.98-.18,1.24-.24,2.48-.5,3.72-.79.24-.06.48-.12.72-.18,1.05-.26,2.09-.54,3.14-.83.33-.09.66-.19.98-.28,1.24-.37,2.48-.76,3.72-1.19.15-.05.29-.11.44-.16,1.11-.39,2.22-.81,3.32-1.25.33-.13.65-.26.98-.39,1.23-.51,2.46-1.04,3.69-1.61h0c1.22-.57,2.42-1.17,3.6-1.79.31-.16.62-.33.93-.49,1.04-.56,2.08-1.14,3.09-1.74.13-.08.27-.15.41-.23,1.12-.67,2.22-1.37,3.3-2.08.29-.19.57-.38.85-.57.9-.61,1.78-1.23,2.65-1.87.2-.15.41-.29.61-.44,1.02-.76,2.01-1.54,2.99-2.34.26-.21.51-.43.77-.64.78-.65,1.55-1.32,2.31-2,.24-.21.47-.42.71-.63.91-.84,1.81-1.69,2.68-2.56.23-.23.45-.46.68-.69.69-.7,1.36-1.41,2.02-2.13.25-.27.5-.54.74-.81.81-.9,1.59-1.81,2.36-2.74.2-.24.38-.48.57-.72.6-.75,1.19-1.5,1.76-2.26.25-.33.49-.66.73-.99.7-.95,1.38-1.92,2.04-2.9.16-.23.3-.47.46-.71.52-.8,1.03-1.61,1.53-2.42.23-.38.46-.77.69-1.15.49-.83.97-1.67,1.43-2.51.2-.37.4-.74.6-1.12.46-.88.91-1.76,1.34-2.65.21-.43.41-.87.62-1.3.35-.76.69-1.52,1.02-2.29.16-.37.32-.73.48-1.1.43-1.03.83-2.06,1.21-3.1.18-.47.34-.95.51-1.42.25-.72.49-1.44.73-2.16.15-.45.3-.9.44-1.36.32-1.04.62-2.09.9-3.14.13-.5.26-1.01.38-1.51.17-.7.34-1.4.49-2.11.11-.51.23-1.02.33-1.53.21-1.06.41-2.12.59-3.19.08-.51.15-1.02.23-1.54.1-.71.2-1.41.29-2.12.07-.54.13-1.08.19-1.62.11-1.08.21-2.15.28-3.23-3.74,2.24-7.58,4.48-11.5,6.73l-.1.02h0Z"/>
      <path d="M539.75,582.99c.93-.46,1.85-.93,2.78-1.39-.92.47-1.85.93-2.78,1.39Z"/>
      <path d="M556.37,574.45c1.34-.71,2.67-1.42,4-2.13-1.32.71-2.66,1.42-4,2.13Z"/>
      <path d="M543.91,580.9c1.02-.52,2.04-1.04,3.05-1.55-1.01.52-2.03,1.04-3.05,1.55Z"/>
      <path d="M479.17,610.18c1.39-.56,2.79-1.12,4.19-1.69-1.4.57-2.8,1.13-4.19,1.69Z"/>
      <path d="M535.55,585.07c.9-.44,1.79-.88,2.68-1.32-.89.44-1.78.88-2.68,1.32Z"/>
      <path d="M483.4,608.48c2.88-1.17,5.77-2.37,8.67-3.59-2.9,1.22-5.8,2.42-8.67,3.59Z"/>
      <path d="M548.01,578.81c2.8-1.44,5.58-2.89,8.33-4.34-2.75,1.45-5.52,2.9-8.33,4.34Z"/>
      <path d="M474.92,611.86c1.16-.45,2.32-.91,3.48-1.38-1.16.46-2.32.92-3.48,1.38Z"/>
      <path d="M506.5,598.66c.92-.41,1.85-.82,2.77-1.24-.92.42-1.85.83-2.77,1.24Z"/>
      <path d="M466.36,615.16c1.12-.42,2.24-.85,3.36-1.28-1.12.43-2.24.86-3.36,1.28Z"/>
      <path d="M510.81,596.73c1-.45,2-.91,3-1.36-1,.46-2,.91-3,1.36Z"/>
      <path d="M502.15,600.57c.91-.4,1.82-.8,2.73-1.2-.91.4-1.82.8-2.73,1.2Z"/>
      <path d="M531.24,587.17c.91-.44,1.82-.88,2.73-1.33-.91.44-1.82.89-2.73,1.33Z"/>
      <path d="M461.89,616.83c1.21-.45,2.43-.9,3.66-1.36-1.22.46-2.44.91-3.66,1.36Z"/>
      <path d="M526.74,589.33c.99-.47,1.99-.95,2.98-1.42-.99.48-1.98.95-2.98,1.42Z"/>
      <path d="M470.66,613.52c1.11-.43,2.21-.86,3.32-1.29-1.11.43-2.22.86-3.32,1.29Z"/>
      <path d="M573.17,565.28c1.14-.64,2.27-1.28,3.4-1.93-1.13.64-2.26,1.28-3.4,1.93Z"/>
      <path d="M520.29,592.37c.29-.14.58-.28.88-.41,1.43-.67,2.86-1.34,4.28-2.01-1.42.67-2.85,1.35-4.29,2.01-.29.14-.59.28-.88.41-.29.14-.59.27-.88.41-1.43.67-2.87,1.33-4.3,1.99,1.43-.66,2.87-1.32,4.3-1.99.29-.14.59-.27.88-.41h.01Z"/>
      <path d="M493.17,604.43c1.05-.44,2.1-.89,3.15-1.34-1.05.45-2.1.89-3.15,1.34Z"/>
      <path d="M588.48,556.39h0c-3.74,2.24-7.58,4.48-11.5,6.73,3.93-2.24,7.77-4.49,11.5-6.73Z"/>
      <path d="M461.44,617c-4.24,1.57-8.43,3.06-12.55,4.49h0c4.12-1.42,8.3-2.92,12.55-4.49Z"/>
      <path d="M497.74,602.48c.95-.41,1.9-.82,2.85-1.23-.95.41-1.9.82-2.85,1.23Z"/>
      <path d="M565.26,569.67c1.05-.57,2.09-1.15,3.13-1.72-1.04.57-2.08,1.15-3.13,1.72Z"/>
      <path d="M561.09,571.93c1.1-.59,2.2-1.19,3.29-1.78-1.09.6-2.19,1.19-3.29,1.78Z"/>
      <path d="M569.26,567.46c1.05-.58,2.1-1.17,3.14-1.76-1.04.59-2.09,1.17-3.14,1.76Z"/>
      <path d="M421.31,587.83c-.62-1.32-1.2-2.66-1.74-4,.54,1.34,1.12,2.67,1.74,4Z"/>
      <path d="M578.49,509.72c.53,1.01,1.04,2.04,1.53,3.08-.5-1.04-1-2.07-1.53-3.08Z"/>
      <path d="M584.4,523.79c.07.21.13.41.2.62-.06-.21-.13-.41-.2-.62Z"/>
      <path d="M423.12,591.48c-.63-1.2-1.24-2.41-1.82-3.65.58,1.24,1.19,2.45,1.82,3.65Z"/>
      <path d="M582.88,519.47c.19.5.38.99.56,1.49-.18-.5-.37-1-.56-1.49Z"/>
      <path d="M580.44,513.65c.57,1.23,1.11,2.48,1.62,3.72-.51-1.25-1.05-2.49-1.62-3.72Z"/>
      <path d="M424.99,594.85c-.27-.46-.53-.93-.79-1.4.26.47.52.94.79,1.4Z"/>
      <path d="M426.89,597.96c-.12-.18-.23-.37-.35-.56.12.19.23.37.35.56Z"/>
      <path d="M523.1,465.8c.63.17,1.25.36,1.88.54-.63-.18-1.25-.37-1.88-.54Z"/>
      <path d="M533.11,469.1c.49.19.98.37,1.46.57-.48-.2-.97-.38-1.46-.57Z"/>
      <path d="M544,474.29c.5.28,1,.56,1.49.85-.49-.29-.99-.57-1.49-.85Z"/>
      <path d="M536.76,470.63c.51.23,1.03.45,1.53.69-.51-.24-1.02-.46-1.53-.69Z"/>
      <path d="M540.41,472.37c.51.26,1.02.5,1.52.77-.5-.27-1.01-.51-1.52-.77Z"/>
      <path d="M527.04,466.93c.19.06.38.13.57.19-.19-.06-.38-.13-.57-.19Z"/>
      <path d="M547.51,476.37c.48.3.97.6,1.45.92-.48-.31-.97-.61-1.45-.92Z"/>
      <path d="M519.11,464.86c.67.14,1.33.31,1.99.47-.66-.16-1.32-.32-1.99-.47Z"/>
      <path d="M506.9,463.14c.71.05,1.42.12,2.13.18-.71-.07-1.42-.13-2.13-.18Z"/>
      <path d="M511,463.53c.7.08,1.4.18,2.1.28-.7-.1-1.4-.2-2.1-.28Z"/>
      <path d="M515.08,464.1c.69.11,1.37.25,2.05.38-.68-.13-1.36-.26-2.05-.38Z"/>
      <path d="M574.11,502.33c.2.31.4.63.6.94-.2-.31-.39-.63-.6-.94Z"/>
      <path d="M569.11,495.49c.32.4.63.8.94,1.21-.31-.4-.62-.81-.94-1.21Z"/>
      <path d="M571.68,498.84c.28.38.54.77.81,1.15-.27-.38-.53-.77-.81-1.15Z"/>
      <path d="M550.93,478.62c.47.32.94.65,1.4.98-.46-.33-.93-.66-1.4-.98Z"/>
      <path d="M502.76,462.96c.72.02,1.44.05,2.17.08-.72-.03-1.44-.06-2.17-.08Z"/>
      <path d="M467.79,469.41c-1.35.55-2.69,1.13-4.02,1.75s-2.64,1.28-3.93,1.96c1.29-.68,2.6-1.33,3.93-1.96s2.68-1.2,4.02-1.75Z"/>
      <path d="M554.25,481.04c.45.34.9.69,1.34,1.04-.44-.35-.89-.7-1.34-1.04Z"/>
      <path d="M557.47,483.62c.43.36.85.73,1.28,1.1-.42-.37-.85-.74-1.28-1.1Z"/>
      <path d="M560.56,486.36c.41.38.81.76,1.21,1.14-.4-.38-.8-.77-1.21-1.14Z"/>
      <path d="M563.54,489.25c.38.39.75.78,1.13,1.18-.37-.4-.75-.79-1.13-1.18Z"/>
      <path d="M566.39,492.29c.35.4.7.8,1.04,1.2-.35-.4-.69-.81-1.04-1.2Z"/>
      <path d="M417.06,576.8c-.11-.36-.24-.72-.34-1.08.11.36.23.72.34,1.08Z"/>
      <path d="M415.04,532.32c.12-.56.26-1.11.39-1.67-.13.56-.27,1.11-.39,1.67Z"/>
      <path d="M415.99,528.35c.14-.55.31-1.09.46-1.63-.15.54-.32,1.08-.46,1.63Z"/>
      <path d="M417.11,524.44c.16-.51.34-1.01.51-1.51-.17.5-.35,1-.51,1.51Z"/>
      <path d="M414.28,536.32c.09-.57.21-1.13.31-1.69-.11.56-.22,1.13-.31,1.69Z"/>
      <path d="M420.71,514.98c.27-.6.53-1.21.81-1.81-.28.6-.54,1.21-.81,1.81Z"/>
      <path d="M422.43,511.34c.31-.61.61-1.23.93-1.84-.32.61-.62,1.22-.93,1.84Z"/>
      <path d="M424.34,507.75c.34-.61.68-1.22,1.03-1.82-.36.6-.69,1.21-1.03,1.82Z"/>
      <path d="M413.7,540.37c.07-.57.15-1.14.23-1.71-.08.57-.16,1.14-.23,1.71Z"/>
      <path d="M419.56,517.68c.1-.26.2-.52.3-.77-.11.26-.2.52-.3.77Z"/>
      <path d="M413.31,544.44c.04-.57.09-1.14.15-1.71-.05.57-.1,1.14-.15,1.71Z"/>
      <path d="M414.24,564.94c-.09-.53-.18-1.05-.25-1.58.08.53.17,1.05.25,1.58Z"/>
      <path d="M426.42,504.23c.37-.6.75-1.2,1.14-1.79-.39.59-.76,1.19-1.14,1.79Z"/>
      <path d="M415.01,569c-.11-.5-.22-1-.32-1.5.1.5.21,1,.32,1.5Z"/>
      <path d="M415.96,572.99c-.12-.46-.25-.91-.36-1.37.11.46.24.91.36,1.37Z"/>
      <path d="M413.67,560.85c-.06-.54-.13-1.09-.18-1.63.05.54.12,1.09.18,1.63Z"/>
      <path d="M413.11,548.53c.01-.57.04-1.14.06-1.7-.03.57-.05,1.13-.06,1.7Z"/>
      <path d="M413.29,556.74c-.04-.56-.07-1.11-.1-1.67.03.56.06,1.11.1,1.67Z"/>
      <path d="M413.1,552.63c-.01-.56-.02-1.13-.02-1.69,0,.56,0,1.12.02,1.69Z"/>
      <path d="M481.9,465.02c.77-.17,1.54-.34,2.31-.49-.77.15-1.54.32-2.31.49Z"/>
      <path d="M498.61,462.96c.73-.02,1.46-.03,2.19-.03-.73,0-1.46,0-2.19.03Z"/>
      <path d="M473.48,467.34c.82-.27,1.64-.54,2.47-.79-.83.25-1.65.52-2.47.79Z"/>
      <path d="M477.7,466.06c.79-.22,1.58-.43,2.36-.63-.79.19-1.58.41-2.36.63Z"/>
      <path d="M469.13,468.9c.91-.35,1.81-.71,2.72-1.03-.91.32-1.82.67-2.72,1.03Z"/>
      <path d="M494.44,463.17c.74-.05,1.48-.1,2.22-.13-.74.04-1.48.08-2.22.13Z"/>
      <path d="M486.08,464.19c.76-.13,1.51-.26,2.27-.37-.76.11-1.51.24-2.27.37Z"/>
      <path d="M456.05,475.24c.83-.49,1.69-.96,2.54-1.43-.85.47-1.71.93-2.54,1.43Z"/>
      <path d="M490.27,463.58c.75-.09,1.49-.18,2.24-.25-.75.07-1.49.16-2.24.25Z"/>
      <path d="M442.34,485.28c.57-.51,1.15-1.01,1.74-1.5-.59.5-1.17.99-1.74,1.5Z"/>
      <path d="M436.4,491.14c.5-.54,1.01-1.08,1.53-1.61-.52.53-1.03,1.07-1.53,1.61Z"/>
      <path d="M439.29,488.15c.54-.53,1.08-1.05,1.63-1.56-.55.51-1.1,1.03-1.63,1.56Z"/>
      <path d="M433.66,494.25c.47-.56.95-1.12,1.43-1.67-.49.55-.96,1.11-1.43,1.67Z"/>
      <path d="M431.08,497.47c.44-.58.88-1.15,1.33-1.71-.45.57-.89,1.14-1.33,1.71Z"/>
      <path d="M445.55,482.55c.61-.49,1.23-.97,1.86-1.45-.63.48-1.25.96-1.86,1.45Z"/>
      <path d="M428.67,500.8c.41-.59.81-1.18,1.23-1.76-.42.58-.83,1.17-1.23,1.76Z"/>
      <path d="M448.9,479.97c.66-.48,1.33-.94,2-1.41-.67.46-1.35.93-2,1.41Z"/>
      <path d="M452.4,477.53c.72-.47,1.46-.93,2.19-1.38-.74.46-1.48.91-2.19,1.38Z"/>
      <path d="M445.88,595.55s-.06.02-.1.03c.03-.01.06-.02.1-.03Z"/>
      <path d="M492.68,577.28c-.18.08-.36.16-.54.24.18-.08.36-.16.54-.24Z"/>
      <path d="M487.1,579.68c-.17.07-.35.15-.52.22.17-.07.35-.15.52-.22Z"/>
      <path d="M481.55,582.02c-.14.06-.27.11-.41.17.14-.06.27-.11.41-.17Z"/>
      <path d="M503.96,572.24c-.1.04-.2.09-.29.13.1-.04.2-.09.29-.13Z"/>
      <path d="M580.02,512.8c-.5-1.04-1-2.07-1.53-3.08-.67-1.28-1.38-2.53-2.1-3.76-.54-.91-1.11-1.8-1.68-2.69-.2-.31-.39-.63-.6-.94-.52-.8-1.07-1.57-1.62-2.34-.27-.38-.53-.77-.81-1.15-.53-.73-1.08-1.43-1.63-2.14-.31-.4-.62-.81-.94-1.21-.55-.68-1.11-1.34-1.67-1.99-.35-.4-.69-.81-1.04-1.2-.56-.63-1.14-1.25-1.72-1.87-.37-.4-.75-.79-1.13-1.18-.58-.59-1.18-1.17-1.77-1.75-.4-.38-.8-.77-1.21-1.14-.6-.56-1.21-1.1-1.82-1.64-.42-.37-.85-.74-1.28-1.1-.62-.52-1.24-1.03-1.87-1.54-.44-.35-.89-.7-1.34-1.04-.64-.49-1.27-.97-1.92-1.43-.46-.33-.93-.66-1.4-.98-.65-.45-1.31-.9-1.97-1.33-.48-.31-.97-.61-1.45-.92-.67-.42-1.34-.84-2.02-1.24-.49-.29-.99-.57-1.49-.85-.69-.39-1.37-.78-2.07-1.14-.5-.27-1.01-.51-1.52-.77-.71-.36-1.41-.72-2.12-1.05-.51-.24-1.02-.46-1.53-.69-.73-.33-1.45-.66-2.19-.97-.48-.2-.97-.38-1.46-.57-1.81-.72-3.64-1.38-5.5-1.97-.19-.06-.38-.13-.57-.19-.68-.21-1.37-.4-2.06-.59-.63-.18-1.25-.37-1.88-.54-.66-.17-1.33-.32-2-.48-.66-.16-1.32-.32-1.99-.47-.66-.14-1.32-.26-1.98-.38-.68-.13-1.36-.26-2.05-.38-.66-.11-1.32-.2-1.98-.29-.7-.1-1.4-.2-2.1-.28-.66-.08-1.31-.14-1.97-.2-.71-.07-1.42-.13-2.13-.18-.66-.05-1.31-.08-1.97-.11-.72-.03-1.44-.06-2.17-.08-.65,0-1.31-.02-1.96-.02-.73,0-1.46,0-2.19.03-.65.02-1.3.04-1.95.07-.74.04-1.48.08-2.22.13-.65.05-1.29.1-1.94.16-.75.07-1.49.16-2.24.25-.64.08-1.28.16-1.91.25-.76.11-1.51.24-2.27.37-.63.11-1.26.21-1.88.33-.77.15-1.54.32-2.31.49-.61.14-1.22.27-1.83.41-.79.19-1.58.41-2.36.63-.59.16-1.17.31-1.75.49-.83.25-1.65.52-2.47.79-.54.18-1.09.34-1.63.53-.91.32-1.82.67-2.72,1.03-.45.17-.9.33-1.34.51-1.35.55-2.69,1.13-4.02,1.75s-2.64,1.28-3.93,1.96c-.42.22-.83.47-1.25.7-.85.47-1.71.93-2.54,1.43-.49.29-.97.6-1.45.9-.74.46-1.48.91-2.19,1.38-.51.33-1,.69-1.5,1.03-.67.46-1.35.93-2,1.41-.51.37-1,.75-1.49,1.13-.63.48-1.25.96-1.86,1.45-.5.4-.98.81-1.46,1.22-.59.5-1.17.99-1.74,1.5-.48.43-.95.87-1.42,1.3-.55.51-1.1,1.03-1.63,1.56-.46.45-.91.91-1.36,1.38-.52.53-1.03,1.07-1.53,1.61-.44.48-.88.96-1.31,1.45-.49.55-.96,1.11-1.43,1.67-.42.5-.84,1-1.24,1.51-.45.57-.89,1.14-1.33,1.71-.4.52-.79,1.04-1.18,1.57-.42.58-.83,1.17-1.23,1.76-.37.54-.75,1.09-1.11,1.64-.39.59-.76,1.19-1.14,1.79-.35.56-.71,1.13-1.05,1.7-.36.6-.69,1.21-1.03,1.82-.33.58-.66,1.17-.98,1.76-.32.61-.62,1.22-.93,1.84-.3.61-.62,1.21-.91,1.83-.28.6-.54,1.21-.81,1.81-.29.64-.59,1.28-.86,1.93-.11.26-.2.52-.3.77-.7,1.73-1.34,3.48-1.93,5.25-.17.5-.35,1-.51,1.51-.24.76-.45,1.52-.66,2.28-.15.54-.32,1.08-.46,1.63-.2.76-.38,1.53-.56,2.29-.13.56-.27,1.11-.39,1.67-.17.77-.31,1.54-.45,2.31-.11.56-.22,1.13-.31,1.69-.13.78-.24,1.56-.35,2.34-.08.57-.16,1.14-.23,1.71-.09.79-.17,1.57-.24,2.36-.05.57-.1,1.14-.15,1.71-.06.8-.1,1.59-.14,2.39-.03.57-.05,1.13-.06,1.7-.02.8-.03,1.61-.03,2.42,0,.56,0,1.12.02,1.69.02.81.04,1.63.08,2.44.03.56.06,1.11.1,1.67.06.82.12,1.65.2,2.47.05.54.12,1.09.18,1.63.1.84.2,1.68.32,2.51.08.53.17,1.05.25,1.58.14.85.28,1.71.45,2.56.1.5.21,1,.32,1.5.19.87.37,1.75.59,2.62.11.46.24.91.36,1.37.24.91.48,1.83.75,2.74.11.36.23.72.34,1.08.31,1,.63,2.01.98,3h0v.02c.47,1.34.98,2.68,1.52,4,.55,1.34,1.12,2.67,1.74,4,.58,1.24,1.19,2.45,1.82,3.65.35.67.72,1.32,1.08,1.97.26.47.52.94.79,1.4.5.86,1.02,1.71,1.55,2.56.12.19.23.37.35.56.62.96,1.24,1.91,1.89,2.85h0c5.19-1.42,10.89-3.17,17-5.23.03-.01.06-.02.1-.03,1.48-.5,2.99-1.02,4.52-1.55.07-.02.13-.05.2-.07,1.51-.53,3.04-1.07,4.59-1.63.08-.03.16-.06.24-.09,1.56-.56,3.14-1.14,4.74-1.74.06-.02.12-.05.18-.07,1.64-.61,3.3-1.24,4.98-1.88.02,0,.03-.01.05-.02,3.41-1.31,6.9-2.69,10.45-4.13.06-.02.12-.05.18-.07,1.7-.69,3.41-1.39,5.14-2.11.14-.06.27-.11.41-.17,1.66-.69,3.34-1.4,5.03-2.12.17-.07.35-.15.52-.22,1.67-.71,3.35-1.43,5.03-2.17.18-.08.36-.16.54-.24,1.7-.74,3.41-1.5,5.13-2.27.16-.07.33-.14.49-.22,1.78-.79,3.56-1.6,5.36-2.42.1-.04.2-.09.29-.13,1.9-.87,3.8-1.74,5.71-2.64s3.81-1.79,5.69-2.68c.1-.05.19-.09.29-.14,1.78-.85,3.55-1.7,5.3-2.55.16-.08.32-.16.48-.23,1.69-.83,3.37-1.65,5.04-2.48.18-.09.35-.18.53-.26,1.65-.82,3.28-1.64,4.9-2.46.17-.09.34-.17.51-.26,1.64-.83,3.26-1.66,4.86-2.49.13-.07.26-.14.39-.2,1.66-.86,3.3-1.72,4.92-2.58.06-.03.11-.06.17-.09,3.39-1.8,6.69-3.58,9.88-5.35.02,0,.03-.02.05-.03,1.57-.87,3.12-1.74,4.65-2.6.06-.03.11-.06.17-.09,1.49-.84,2.95-1.68,4.38-2.51.07-.04.14-.08.21-.12,1.43-.83,2.83-1.65,4.2-2.47.06-.03.12-.07.18-.1,1.39-.83,2.76-1.65,4.1-2.47.03-.02.06-.03.08-.05,5.5-3.36,10.51-6.6,14.93-9.66-.3-1.1-.63-2.19-.97-3.28-.07-.21-.13-.41-.2-.62-.3-.95-.63-1.89-.96-2.83-.18-.5-.37-1-.56-1.49-.27-.7-.53-1.4-.82-2.1-.51-1.25-1.05-2.49-1.62-3.72v-.02c-.13-.28-.28-.55-.41-.82l-.03-.04h0Z"/>
      <path d="M450.6,593.93c-.07.02-.13.05-.2.07.07-.02.13-.05.2-.07Z"/>
      <path d="M515.65,566.78c-.1.05-.19.09-.29.14.1-.05.19-.09.29-.14Z"/>
      <path d="M460.34,590.41c-.06.02-.12.05-.18.07.06-.02.12-.05.18-.07Z"/>
      <path d="M455.42,592.22c-.08.03-.16.06-.24.09.08-.03.16-.06.24-.09Z"/>
      <path d="M465.37,588.51s-.03.01-.05.02c.02,0,.03-.01.05-.02Z"/>
      <path d="M476,584.31c-.06.02-.12.05-.18.07.06-.02.12-.05.18-.07Z"/>
      <path d="M498.3,574.79c-.16.07-.33.15-.49.22.16-.07.33-.14.49-.22Z"/>
      <path d="M557.49,545.09c-.06.03-.11.06-.17.09.06-.03.11-.06.17-.09Z"/>
      <path d="M552.67,547.79s-.03.02-.05.03c.02,0,.03-.02.05-.03Z"/>
      <path d="M562.08,542.46c-.07.04-.14.08-.21.12.07-.04.14-.08.21-.12Z"/>
      <path d="M521.43,564c-.16.08-.32.16-.48.23.16-.08.32-.16.48-.23Z"/>
      <path d="M570.64,537.36s-.06.03-.08.05c.03-.02.06-.03.08-.05Z"/>
      <path d="M566.46,539.88c-.06.03-.12.07-.18.1.06-.03.12-.07.18-.1Z"/>
      <path d="M532.41,558.54c-.17.09-.34.17-.51.26.17-.09.34-.17.51-.26Z"/>
      <path d="M527,561.26c-.18.09-.35.18-.53.26.18-.09.35-.18.53-.26Z"/>
      <path d="M537.66,555.84c-.13.07-.26.14-.39.2.13-.07.26-.14.39-.2Z"/>
      <path d="M542.75,553.17c-.06.03-.11.06-.17.09.06-.03.11-.06.17-.09Z"/>
    </g>
  </g>
</svg>